<ttFont>
    <TTGlyph name="A" xMin="-112" yMin="0" xMax="1258" yMax="1352">
      <contour>
        <pt x="264" y="53" on="1"/>
        <pt x="254" y="0" on="1"/>
        <pt x="-112" y="0" on="1"/>
        <pt x="-102" y="53" on="1"/>
        <pt x="10" y="80" on="1"/>
        <pt x="692" y="1352" on="1"/>
        <pt x="883" y="1352" on="1"/>
        <pt x="1133" y="80" on="1"/>
        <pt x="1258" y="53" on="1"/>
        <pt x="1247" y="0" on="1"/>
        <pt x="772" y="0" on="1"/>
        <pt x="783" y="53" on="1"/>
        <pt x="926" y="80" on="1"/>
        <pt x="862" y="467" on="1"/>
        <pt x="334" y="467" on="1"/>
        <pt x="129" y="80" on="1"/>
      </contour>
      <contour>
        <pt x="723" y="1208" on="1"/>
        <pt x="379" y="557" on="1"/>
        <pt x="846" y="557" on="1"/>
      </contour>
    </TTGlyph>
    <TTGlyph name="AE" xMin="-146" yMin="0" xMax="1788" yMax="1341">
      <contour>
        <pt x="799" y="467" on="1"/>
        <pt x="387" y="467" on="1"/>
        <pt x="112" y="80" on="1"/>
        <pt x="265" y="53" on="1"/>
        <pt x="256" y="0" on="1"/>
        <pt x="-146" y="0" on="1"/>
        <pt x="-137" y="53" on="1"/>
        <pt x="-6" y="80" on="1"/>
        <pt x="850" y="1270" on="1"/>
        <pt x="690" y="1288" on="1"/>
        <pt x="699" y="1341" on="1"/>
        <pt x="1788" y="1341" on="1"/>
        <pt x="1731" y="1020" on="1"/>
        <pt x="1665" y="1020" on="1"/>
        <pt x="1671" y="1237" on="1"/>
        <pt x="1562" y="1251" on="0"/>
        <pt x="1350" y="1251" on="1"/>
        <pt x="1131" y="1251" on="1"/>
        <pt x="1038" y="727" on="1"/>
        <pt x="1400" y="727" on="1"/>
        <pt x="1460" y="887" on="1"/>
        <pt x="1524" y="887" on="1"/>
        <pt x="1451" y="475" on="1"/>
        <pt x="1387" y="475" on="1"/>
        <pt x="1385" y="637" on="1"/>
        <pt x="1023" y="637" on="1"/>
        <pt x="926" y="90" on="1"/>
        <pt x="1190" y="90" on="1"/>
        <pt x="1446" y="90" on="0"/>
        <pt x="1531" y="106" on="1"/>
        <pt x="1632" y="354" on="1"/>
        <pt x="1698" y="354" on="1"/>
        <pt x="1616" y="0" on="1"/>
        <pt x="546" y="0" on="1"/>
        <pt x="556" y="53" on="1"/>
        <pt x="731" y="80" on="1"/>
      </contour>
      <contour>
        <pt x="452" y="557" on="1"/>
        <pt x="815" y="557" on="1"/>
        <pt x="934" y="1231" on="1"/>
      </contour>
    </TTGlyph>
    <TTGlyph name="AEacute" xMin="-146" yMin="0" xMax="1788" yMax="1757">
      <component glyphName="AE" x="0" y="0" flags="0x204"/>
      <component glyphName="acute" x="884" y="334" flags="0x4"/>
    </TTGlyph>
    <TTGlyph name="Aacute" xMin="-112" yMin="0" xMax="1258" yMax="1757">
      <component glyphName="A" x="0" y="0" flags="0x204"/>
      <component glyphName="acute" x="443" y="334" flags="0x4"/>
    </TTGlyph>
    <TTGlyph name="Abreve" xMin="-112" yMin="0" xMax="1258" yMax="1733">
      <component glyphName="A" x="0" y="0" flags="0x204"/>
      <component glyphName="breve" x="315" y="334" flags="0x4"/>
    </TTGlyph>
    <TTGlyph name="Acircumflex" xMin="-112" yMin="0" xMax="1258" yMax="1758">
      <component glyphName="A" x="0" y="0" flags="0x204"/>
      <component glyphName="circumflex" x="312" y="334" flags="0x4"/>
    </TTGlyph>
    <TTGlyph name="Adieresis" xMin="-112" yMin="0" xMax="1258" yMax="1665">
      <component glyphName="A" x="0" y="0" flags="0x204"/>
      <component glyphName="dieresis" x="336" y="334" flags="0x4"/>
    </TTGlyph>
    <TTGlyph name="Agrave" xMin="-112" yMin="0" xMax="1258" yMax="1757">
      <component glyphName="A" x="0" y="0" flags="0x204"/>
      <component glyphName="grave" x="261" y="334" flags="0x4"/>
    </TTGlyph>
    <TTGlyph name="Alpha" xMin="-112" yMin="0" xMax="1258" yMax="1352">
      <component glyphName="A" x="0" y="0" flags="0x204"/>
    </TTGlyph>
    <TTGlyph name="Alphatonos" xMin="-112" yMin="0" xMax="1258" yMax="1353">
      <component glyphName="A" x="0" y="0" flags="0x4"/>
      <component glyphName="tonos" x="-123" y="-90" flags="0x4"/>
    </TTGlyph>
    <TTGlyph name="Amacron" xMin="-112" yMin="0" xMax="1258" yMax="1604">
      <component glyphName="A" x="0" y="0" flags="0x204"/>
      <component glyphName="uni02C9" x="329" y="334" flags="0x4"/>
    </TTGlyph>
    <TTGlyph name="Aogonek" xMin="-112" yMin="-403" xMax="1258" yMax="1352">
      <component glyphName="A" x="0" y="0" flags="0x204"/>
      <component glyphName="ogonek" x="690" y="0" flags="0x4"/>
    </TTGlyph>
    <TTGlyph name="Aring" xMin="-112" yMin="0" xMax="1258" yMax="1678">
      <contour>
        <pt x="993" y="1475" on="1"/>
        <pt x="993" y="1418" on="0"/>
        <pt x="938" y="1326" on="0"/>
        <pt x="893" y="1300" on="1"/>
        <pt x="1133" y="80" on="1"/>
        <pt x="1258" y="53" on="1"/>
        <pt x="1247" y="0" on="1"/>
        <pt x="772" y="0" on="1"/>
        <pt x="783" y="53" on="1"/>
        <pt x="926" y="80" on="1"/>
        <pt x="862" y="467" on="1"/>
        <pt x="334" y="467" on="1"/>
        <pt x="129" y="80" on="1"/>
        <pt x="264" y="53" on="1"/>
        <pt x="254" y="0" on="1"/>
        <pt x="-112" y="0" on="1"/>
        <pt x="-102" y="53" on="1"/>
        <pt x="10" y="80" on="1"/>
        <pt x="670" y="1310" on="1"/>
        <pt x="632" y="1338" on="0"/>
        <pt x="587" y="1424" on="0"/>
        <pt x="587" y="1475" on="1"/>
        <pt x="587" y="1559" on="0"/>
        <pt x="706" y="1678" on="0"/>
        <pt x="790" y="1678" on="1"/>
        <pt x="874" y="1678" on="0"/>
        <pt x="993" y="1559" on="0"/>
      </contour>
      <contour>
        <pt x="723" y="1208" on="1"/>
        <pt x="379" y="557" on="1"/>
        <pt x="846" y="557" on="1"/>
      </contour>
      <contour>
        <pt x="913" y="1475" on="1"/>
        <pt x="913" y="1526" on="0"/>
        <pt x="841" y="1598" on="0"/>
        <pt x="790" y="1598" on="1"/>
        <pt x="739" y="1598" on="0"/>
        <pt x="667" y="1526" on="0"/>
        <pt x="667" y="1475" on="1"/>
        <pt x="667" y="1425" on="0"/>
        <pt x="736" y="1352" on="0"/>
        <pt x="785" y="1352" on="1"/>
        <pt x="790" y="1352" on="1"/>
        <pt x="838" y="1352" on="0"/>
        <pt x="913" y="1422" on="0"/>
      </contour>
    </TTGlyph>
    <TTGlyph name="Aringacute" xMin="-112" yMin="0" xMax="1258" yMax="2009">
      <component glyphName="Aring" x="0" y="0" flags="0x204"/>
      <component glyphName="acute" x="467" y="586" flags="0x4"/>
    </TTGlyph>
    <TTGlyph name="Atilde" xMin="-112" yMin="0" xMax="1258" yMax="1741">
      <component glyphName="A" x="0" y="0" flags="0x204"/>
      <component glyphName="tilde" x="350" y="360" flags="0x4"/>
    </TTGlyph>
    <TTGlyph name="B" xMin="19" yMin="-6" xMax="1206" yMax="1341">
      <contour>
        <pt x="639" y="754" on="1"/>
        <pt x="833" y="754" on="0"/>
        <pt x="998" y="884" on="0"/>
        <pt x="998" y="1047" on="1"/>
        <pt x="998" y="1151" on="0"/>
        <pt x="868" y="1251" on="0"/>
        <pt x="719" y="1251" on="1"/>
        <pt x="561" y="1251" on="1"/>
        <pt x="473" y="754" on="1"/>
      </contour>
      <contour>
        <pt x="615" y="84" on="1"/>
        <pt x="807" y="84" on="0"/>
        <pt x="987" y="233" on="0"/>
        <pt x="987" y="406" on="1"/>
        <pt x="987" y="542" on="0"/>
        <pt x="810" y="664" on="0"/>
        <pt x="643" y="664" on="1"/>
        <pt x="457" y="664" on="1"/>
        <pt x="357" y="90" on="1"/>
        <pt x="510" y="84" on="0"/>
      </contour>
      <contour>
        <pt x="19" y="0" on="1"/>
        <pt x="29" y="53" on="1"/>
        <pt x="162" y="80" on="1"/>
        <pt x="371" y="1262" on="1"/>
        <pt x="203" y="1288" on="1"/>
        <pt x="213" y="1341" on="1"/>
        <pt x="764" y="1341" on="1"/>
        <pt x="1206" y="1341" on="0"/>
        <pt x="1206" y="1059" on="1"/>
        <pt x="1206" y="918" on="0"/>
        <pt x="1029" y="734" on="0"/>
        <pt x="871" y="713" on="1"/>
        <pt x="1026" y="700" on="0"/>
        <pt x="1196" y="541" on="0"/>
        <pt x="1196" y="410" on="1"/>
        <pt x="1196" y="195" on="0"/>
        <pt x="905" y="-6" on="0"/>
        <pt x="615" y="-6" on="1"/>
        <pt x="232" y="0" on="1"/>
      </contour>
    </TTGlyph>
    <TTGlyph name="Beta" xMin="19" yMin="-6" xMax="1206" yMax="1341">
      <component glyphName="B" x="0" y="0" flags="0x204"/>
    </TTGlyph>
    <TTGlyph name="C" xMin="114" yMin="-19" xMax="1385" yMax="1356">
      <contour>
        <pt x="699" y="-19" on="1"/>
        <pt x="424" y="-19" on="0"/>
        <pt x="114" y="269" on="0"/>
        <pt x="114" y="523" on="1"/>
        <pt x="114" y="771" on="0"/>
        <pt x="321" y="1151" on="0"/>
        <pt x="702" y="1356" on="0"/>
        <pt x="947" y="1356" on="1"/>
        <pt x="1158" y="1356" on="0"/>
        <pt x="1385" y="1305" on="1"/>
        <pt x="1340" y="1012" on="1"/>
        <pt x="1275" y="1012" on="1"/>
        <pt x="1275" y="1186" on="1"/>
        <pt x="1213" y="1229" on="0"/>
        <pt x="1037" y="1276" on="0"/>
        <pt x="941" y="1276" on="1"/>
        <pt x="760" y="1276" on="0"/>
        <pt x="473" y="1083" on="0"/>
        <pt x="314" y="729" on="0"/>
        <pt x="314" y="503" on="1"/>
        <pt x="314" y="288" on="0"/>
        <pt x="523" y="63" on="0"/>
        <pt x="716" y="63" on="1"/>
        <pt x="830" y="63" on="0"/>
        <pt x="1048" y="131" on="0"/>
        <pt x="1116" y="184" on="1"/>
        <pt x="1188" y="385" on="1"/>
        <pt x="1253" y="385" on="1"/>
        <pt x="1192" y="70" on="1"/>
        <pt x="1077" y="28" on="0"/>
        <pt x="812" y="-19" on="0"/>
      </contour>
    </TTGlyph>
    <TTGlyph name="Cacute" xMin="114" yMin="-19" xMax="1385" yMax="1757">
      <component glyphName="C" x="0" y="0" flags="0x204"/>
      <component glyphName="acute" x="590" y="334" flags="0x4"/>
    </TTGlyph>
    <TTGlyph name="Ccaron" xMin="114" yMin="-19" xMax="1385" yMax="1758">
      <component glyphName="C" x="0" y="0" flags="0x204"/>
      <component glyphName="caron" x="500" y="334" flags="0x4"/>
    </TTGlyph>
    <TTGlyph name="Ccedilla" xMin="114" yMin="-427" xMax="1385" yMax="1356">
      <component glyphName="C" x="0" y="0" flags="0x204"/>
      <component glyphName="cedilla" x="349" y="0" flags="0x4"/>
    </TTGlyph>
    <TTGlyph name="Ccircumflex" xMin="114" yMin="-19" xMax="1385" yMax="1758">
      <component glyphName="C" x="0" y="0" flags="0x204"/>
      <component glyphName="circumflex" x="442" y="334" flags="0x4"/>
    </TTGlyph>
    <TTGlyph name="Chi" xMin="-68" yMin="0" xMax="1317" yMax="1341">
      <component glyphName="X" x="0" y="0" flags="0x204"/>
    </TTGlyph>
    <TTGlyph name="D" xMin="-23" yMin="-4" xMax="1448" yMax="1341">
      <contour>
        <pt x="1238" y="785" on="1"/>
        <pt x="1238" y="1251" on="0"/>
        <pt x="723" y="1251" on="1"/>
        <pt x="561" y="1251" on="1"/>
        <pt x="357" y="94" on="1"/>
        <pt x="517" y="86" on="0"/>
        <pt x="621" y="86" on="1"/>
        <pt x="915" y="86" on="0"/>
        <pt x="1238" y="449" on="0"/>
      </contour>
      <contour>
        <pt x="784" y="1341" on="1"/>
        <pt x="1107" y="1341" on="0"/>
        <pt x="1448" y="1058" on="0"/>
        <pt x="1448" y="792" on="1"/>
        <pt x="1448" y="553" on="0"/>
        <pt x="1247" y="189" on="0"/>
        <pt x="875" y="-4" on="0"/>
        <pt x="629" y="-4" on="1"/>
        <pt x="148" y="0" on="1"/>
        <pt x="-23" y="0" on="1"/>
        <pt x="-14" y="53" on="1"/>
        <pt x="162" y="80" on="1"/>
        <pt x="370" y="1262" on="1"/>
        <pt x="203" y="1288" on="1"/>
        <pt x="212" y="1341" on="1"/>
      </contour>
    </TTGlyph>
    <TTGlyph name="Dcaron" xMin="-23" yMin="-4" xMax="1448" yMax="1758">
      <component glyphName="D" x="0" y="0" flags="0x204"/>
      <component glyphName="caron" x="430" y="334" flags="0x4"/>
    </TTGlyph>
    <TTGlyph name="Delta" xMin="-68" yMin="0" xMax="1108" yMax="1352">
      <contour>
        <pt x="1092" y="0" on="1"/>
        <pt x="-68" y="0" on="1"/>
        <pt x="-53" y="80" on="1"/>
        <pt x="710" y="1352" on="1"/>
        <pt x="900" y="1352" on="1"/>
        <pt x="1108" y="80" on="1"/>
      </contour>
      <contour>
        <pt x="734" y="1208" on="1"/>
        <pt x="84" y="109" on="1"/>
        <pt x="890" y="109" on="1"/>
      </contour>
    </TTGlyph>
    <TTGlyph name="E" xMin="-24" yMin="0" xMax="1218" yMax="1341">
      <contour>
        <pt x="370" y="1262" on="1"/>
        <pt x="202" y="1288" on="1"/>
        <pt x="212" y="1341" on="1"/>
        <pt x="1218" y="1341" on="1"/>
        <pt x="1161" y="1020" on="1"/>
        <pt x="1095" y="1020" on="1"/>
        <pt x="1101" y="1237" on="1"/>
        <pt x="992" y="1251" on="0"/>
        <pt x="780" y="1251" on="1"/>
        <pt x="561" y="1251" on="1"/>
        <pt x="468" y="727" on="1"/>
        <pt x="830" y="727" on="1"/>
        <pt x="890" y="887" on="1"/>
        <pt x="954" y="887" on="1"/>
        <pt x="881" y="475" on="1"/>
        <pt x="817" y="475" on="1"/>
        <pt x="815" y="637" on="1"/>
        <pt x="453" y="637" on="1"/>
        <pt x="356" y="90" on="1"/>
        <pt x="620" y="90" on="1"/>
        <pt x="876" y="90" on="0"/>
        <pt x="961" y="106" on="1"/>
        <pt x="1062" y="354" on="1"/>
        <pt x="1128" y="354" on="1"/>
        <pt x="1046" y="0" on="1"/>
        <pt x="-24" y="0" on="1"/>
        <pt x="-14" y="53" on="1"/>
        <pt x="161" y="80" on="1"/>
      </contour>
    </TTGlyph>
    <TTGlyph name="Eacute" xMin="-24" yMin="0" xMax="1218" yMax="1757">
      <component glyphName="E" x="0" y="0" flags="0x204"/>
      <component glyphName="acute" x="408" y="334" flags="0x4"/>
    </TTGlyph>
    <TTGlyph name="Ebreve" xMin="-24" yMin="0" xMax="1218" yMax="1733">
      <component glyphName="E" x="0" y="0" flags="0x204"/>
      <component glyphName="breve" x="318" y="334" flags="0x4"/>
    </TTGlyph>
    <TTGlyph name="Ecaron" xMin="-24" yMin="0" xMax="1218" yMax="1758">
      <component glyphName="E" x="0" y="0" flags="0x204"/>
      <component glyphName="caron" x="348" y="334" flags="0x4"/>
    </TTGlyph>
    <TTGlyph name="Ecircumflex" xMin="-24" yMin="0" xMax="1218" yMax="1758">
      <component glyphName="E" x="0" y="0" flags="0x204"/>
      <component glyphName="circumflex" x="343" y="334" flags="0x4"/>
    </TTGlyph>
    <TTGlyph name="Edieresis" xMin="-24" yMin="0" xMax="1218" yMax="1696">
      <component glyphName="E" x="0" y="0" flags="0x204"/>
      <component glyphName="dieresis" x="312" y="365" flags="0x4"/>
    </TTGlyph>
    <TTGlyph name="Egrave" xMin="-24" yMin="0" xMax="1218" yMax="1757">
      <component glyphName="E" x="0" y="0" flags="0x204"/>
      <component glyphName="grave" x="253" y="334" flags="0x4"/>
    </TTGlyph>
    <TTGlyph name="Emacron" xMin="-24" yMin="0" xMax="1218" yMax="1604">
      <component glyphName="E" x="0" y="0" flags="0x204"/>
      <component glyphName="uni02C9" x="338" y="334" flags="0x4"/>
    </TTGlyph>
    <TTGlyph name="Eng" xMin="-23" yMin="-20" xMax="1339" yMax="1351">
      <contour>
        <pt x="830" y="-20" on="1"/>
        <pt x="761" y="-20" on="0"/>
        <pt x="635" y="7" on="0"/>
        <pt x="594" y="26" on="1"/>
        <pt x="636" y="258" on="1"/>
        <pt x="701" y="258" on="1"/>
        <pt x="706" y="119" on="1"/>
        <pt x="719" y="97" on="0"/>
        <pt x="802" y="66" on="0"/>
        <pt x="844" y="66" on="1"/>
        <pt x="984" y="66" on="0"/>
        <pt x="1017" y="256" on="1"/>
        <pt x="1129" y="879" on="1"/>
        <pt x="1132" y="898" on="0"/>
        <pt x="1140" y="943" on="0"/>
        <pt x="1146" y="990" on="0"/>
        <pt x="1150" y="1033" on="0"/>
        <pt x="1150" y="1050" on="1"/>
        <pt x="1150" y="1139" on="0"/>
        <pt x="1047" y="1231" on="0"/>
        <pt x="948" y="1231" on="1"/>
        <pt x="865" y="1231" on="0"/>
        <pt x="649" y="1170" on="0"/>
        <pt x="537" y="1114" on="1"/>
        <pt x="355" y="80" on="1"/>
        <pt x="492" y="53" on="1"/>
        <pt x="483" y="0" on="1"/>
        <pt x="-23" y="0" on="1"/>
        <pt x="-14" y="53" on="1"/>
        <pt x="162" y="80" on="1"/>
        <pt x="371" y="1262" on="1"/>
        <pt x="203" y="1288" on="1"/>
        <pt x="213" y="1341" on="1"/>
        <pt x="576" y="1341" on="1"/>
        <pt x="553" y="1201" on="1"/>
        <pt x="833" y="1351" on="0"/>
        <pt x="1023" y="1351" on="1"/>
        <pt x="1339" y="1351" on="0"/>
        <pt x="1339" y="1071" on="1"/>
        <pt x="1339" y="999" on="0"/>
        <pt x="1319" y="879" on="1"/>
        <pt x="1240" y="432" on="1"/>
        <pt x="1160" y="-20" on="0"/>
      </contour>
    </TTGlyph>
    <TTGlyph name="Eng.alt1" xMin="-24" yMin="-444" xMax="1380" yMax="1351">
      <contour>
        <pt x="789" y="-444" on="1"/>
        <pt x="655" y="-444" on="0"/>
        <pt x="553" y="-398" on="1"/>
        <pt x="595" y="-166" on="1"/>
        <pt x="660" y="-166" on="1"/>
        <pt x="665" y="-305" on="1"/>
        <pt x="678" y="-328" on="0"/>
        <pt x="762" y="-358" on="0"/>
        <pt x="803" y="-358" on="1"/>
        <pt x="943" y="-358" on="0"/>
        <pt x="976" y="-168" on="1"/>
        <pt x="1175" y="950" on="1"/>
        <pt x="1183" y="990" on="0"/>
        <pt x="1183" y="1034" on="1"/>
        <pt x="1183" y="1231" on="0"/>
        <pt x="971" y="1231" on="1"/>
        <pt x="786" y="1231" on="0"/>
        <pt x="537" y="1114" on="1"/>
        <pt x="355" y="80" on="1"/>
        <pt x="522" y="53" on="1"/>
        <pt x="513" y="0" on="1"/>
        <pt x="-24" y="0" on="1"/>
        <pt x="-15" y="53" on="1"/>
        <pt x="162" y="80" on="1"/>
        <pt x="371" y="1262" on="1"/>
        <pt x="203" y="1288" on="1"/>
        <pt x="212" y="1341" on="1"/>
        <pt x="575" y="1341" on="1"/>
        <pt x="553" y="1201" on="1"/>
        <pt x="679" y="1265" on="0"/>
        <pt x="965" y="1351" on="0"/>
        <pt x="1068" y="1351" on="1"/>
        <pt x="1229" y="1351" on="0"/>
        <pt x="1380" y="1225" on="0"/>
        <pt x="1380" y="1089" on="1"/>
        <pt x="1380" y="1037" on="0"/>
        <pt x="1367" y="959" on="1"/>
        <pt x="1199" y="8" on="1"/>
        <pt x="1119" y="-444" on="0"/>
      </contour>
    </TTGlyph>
    <TTGlyph name="Eng.alt2" xMin="-15" yMin="-443" xMax="1461" yMax="1341">
      <contour>
        <pt x="1461" y="1341" on="1"/>
        <pt x="1451" y="1288" on="1"/>
        <pt x="1275" y="1262" on="1"/>
        <pt x="1044" y="-51" on="1"/>
        <pt x="1012" y="-236" on="0"/>
        <pt x="786" y="-443" on="0"/>
        <pt x="620" y="-443" on="1"/>
        <pt x="493" y="-443" on="0"/>
        <pt x="418" y="-413" on="1"/>
        <pt x="461" y="-169" on="1"/>
        <pt x="527" y="-169" on="1"/>
        <pt x="533" y="-308" on="1"/>
        <pt x="547" y="-331" on="0"/>
        <pt x="613" y="-357" on="0"/>
        <pt x="655" y="-357" on="1"/>
        <pt x="758" y="-357" on="0"/>
        <pt x="910" y="-223" on="0"/>
        <pt x="929" y="-110" on="1"/>
        <pt x="950" y="11" on="1"/>
        <pt x="474" y="1206" on="1"/>
        <pt x="275" y="80" on="1"/>
        <pt x="451" y="53" on="1"/>
        <pt x="441" y="0" on="1"/>
        <pt x="-15" y="0" on="1"/>
        <pt x="-5" y="53" on="1"/>
        <pt x="170" y="80" on="1"/>
        <pt x="379" y="1262" on="1"/>
        <pt x="211" y="1288" on="1"/>
        <pt x="221" y="1341" on="1"/>
        <pt x="609" y="1341" on="1"/>
        <pt x="1008" y="336" on="1"/>
        <pt x="1170" y="1262" on="1"/>
        <pt x="994" y="1288" on="1"/>
        <pt x="1004" y="1341" on="1"/>
      </contour>
    </TTGlyph>
    <TTGlyph name="Eng.alt3" xMin="82" yMin="-20" xMax="1379" yMax="1351">
      <contour>
        <pt x="1182" y="1038" on="1"/>
        <pt x="1182" y="1134" on="0"/>
        <pt x="1081" y="1231" on="0"/>
        <pt x="970" y="1231" on="1"/>
        <pt x="785" y="1231" on="0"/>
        <pt x="536" y="1114" on="1"/>
        <pt x="461" y="685" on="1"/>
        <pt x="628" y="658" on="1"/>
        <pt x="619" y="605" on="1"/>
        <pt x="82" y="605" on="1"/>
        <pt x="91" y="658" on="1"/>
        <pt x="268" y="685" on="1"/>
        <pt x="370" y="1262" on="1"/>
        <pt x="202" y="1288" on="1"/>
        <pt x="211" y="1341" on="1"/>
        <pt x="574" y="1341" on="1"/>
        <pt x="552" y="1201" on="1"/>
        <pt x="678" y="1265" on="0"/>
        <pt x="964" y="1351" on="0"/>
        <pt x="1067" y="1351" on="1"/>
        <pt x="1379" y="1351" on="0"/>
        <pt x="1379" y="1089" on="1"/>
        <pt x="1379" y="1035" on="0"/>
        <pt x="1366" y="959" on="1"/>
        <pt x="1294" y="550" on="1"/>
        <pt x="1243" y="262" on="0"/>
        <pt x="895" y="-20" on="0"/>
        <pt x="593" y="-20" on="1"/>
        <pt x="418" y="-20" on="0"/>
        <pt x="234" y="31" on="1"/>
        <pt x="275" y="283" on="1"/>
        <pt x="343" y="283" on="1"/>
        <pt x="339" y="150" on="1"/>
        <pt x="429" y="60" on="0"/>
        <pt x="603" y="60" on="1"/>
        <pt x="821" y="60" on="0"/>
        <pt x="1058" y="295" on="0"/>
        <pt x="1103" y="548" on="1"/>
        <pt x="1174" y="950" on="1"/>
        <pt x="1182" y="990" on="0"/>
      </contour>
    </TTGlyph>
    <TTGlyph name="Eogonek" xMin="-24" yMin="-403" xMax="1218" yMax="1341">
      <component glyphName="E" x="0" y="0" flags="0x204"/>
      <component glyphName="ogonek" x="541" y="0" flags="0x4"/>
    </TTGlyph>
    <TTGlyph name="Epsilon" xMin="-24" yMin="0" xMax="1218" yMax="1341">
      <component glyphName="E" x="0" y="0" flags="0x204"/>
    </TTGlyph>
    <TTGlyph name="Epsilontonos" xMin="-13" yMin="0" xMax="1358" yMax="1342">
      <component glyphName="E" x="140" y="0" flags="0x4"/>
      <component glyphName="tonos" x="-261" y="-101" flags="0x4"/>
    </TTGlyph>
    <TTGlyph name="Eta" xMin="-22" yMin="0" xMax="1571" yMax="1341">
      <component glyphName="H" x="0" y="0" flags="0x204"/>
    </TTGlyph>
    <TTGlyph name="Etatonos" xMin="-12" yMin="0" xMax="1714" yMax="1342">
      <component glyphName="H" x="143" y="0" flags="0x4"/>
      <component glyphName="tonos" x="-260" y="-101" flags="0x4"/>
    </TTGlyph>
    <TTGlyph name="Eth" xMin="-23" yMin="-4" xMax="1448" yMax="1341">
      <contour>
        <pt x="784" y="1341" on="1"/>
        <pt x="1107" y="1341" on="0"/>
        <pt x="1448" y="1058" on="0"/>
        <pt x="1448" y="792" on="1"/>
        <pt x="1448" y="553" on="0"/>
        <pt x="1247" y="189" on="0"/>
        <pt x="875" y="-4" on="0"/>
        <pt x="629" y="-4" on="1"/>
        <pt x="148" y="0" on="1"/>
        <pt x="-23" y="0" on="1"/>
        <pt x="-14" y="53" on="1"/>
        <pt x="162" y="80" on="1"/>
        <pt x="258" y="629" on="1"/>
        <pt x="78" y="629" on="1"/>
        <pt x="93" y="711" on="1"/>
        <pt x="273" y="711" on="1"/>
        <pt x="370" y="1262" on="1"/>
        <pt x="203" y="1288" on="1"/>
        <pt x="212" y="1341" on="1"/>
      </contour>
      <contour>
        <pt x="1238" y="785" on="1"/>
        <pt x="1238" y="1251" on="0"/>
        <pt x="723" y="1251" on="1"/>
        <pt x="561" y="1251" on="1"/>
        <pt x="466" y="711" on="1"/>
        <pt x="841" y="711" on="1"/>
        <pt x="826" y="629" on="1"/>
        <pt x="451" y="629" on="1"/>
        <pt x="357" y="94" on="1"/>
        <pt x="517" y="86" on="0"/>
        <pt x="621" y="86" on="1"/>
        <pt x="915" y="86" on="0"/>
        <pt x="1238" y="449" on="0"/>
      </contour>
    </TTGlyph>
    <TTGlyph name="Euro" xMin="24" yMin="-20" xMax="1104" yMax="1356">
      <contour>
        <pt x="194" y="829" on="1"/>
        <pt x="272" y="1098" on="0"/>
        <pt x="574" y="1356" on="0"/>
        <pt x="785" y="1356" on="1"/>
        <pt x="859" y="1356" on="0"/>
        <pt x="1005" y="1335" on="0"/>
        <pt x="1104" y="1305" on="1"/>
        <pt x="1063" y="1053" on="1"/>
        <pt x="995" y="1053" on="1"/>
        <pt x="999" y="1186" on="1"/>
        <pt x="961" y="1229" on="0"/>
        <pt x="852" y="1276" on="0"/>
        <pt x="792" y="1276" on="1"/>
        <pt x="649" y="1276" on="0"/>
        <pt x="461" y="1057" on="0"/>
        <pt x="401" y="829" on="1"/>
        <pt x="751" y="829" on="1"/>
        <pt x="737" y="748" on="1"/>
        <pt x="382" y="748" on="1"/>
        <pt x="363" y="670" on="0"/>
        <pt x="352" y="584" on="1"/>
        <pt x="708" y="584" on="1"/>
        <pt x="693" y="502" on="1"/>
        <pt x="343" y="502" on="1"/>
        <pt x="339" y="401" on="1"/>
        <pt x="339" y="227" on="0"/>
        <pt x="466" y="57" on="0"/>
        <pt x="579" y="57" on="1"/>
        <pt x="661" y="57" on="0"/>
        <pt x="793" y="117" on="0"/>
        <pt x="834" y="158" on="1"/>
        <pt x="887" y="317" on="1"/>
        <pt x="954" y="317" on="1"/>
        <pt x="901" y="43" on="1"/>
        <pt x="740" y="-20" on="0"/>
        <pt x="557" y="-20" on="1"/>
        <pt x="356" y="-20" on="0"/>
        <pt x="134" y="227" on="0"/>
        <pt x="134" y="446" on="1"/>
        <pt x="136" y="502" on="1"/>
        <pt x="24" y="502" on="1"/>
        <pt x="39" y="584" on="1"/>
        <pt x="144" y="584" on="1"/>
        <pt x="154" y="673" on="0"/>
        <pt x="174" y="748" on="1"/>
        <pt x="68" y="748" on="1"/>
        <pt x="82" y="829" on="1"/>
      </contour>
    </TTGlyph>
    <TTGlyph name="F" xMin="-11" yMin="0" xMax="1268" yMax="1341">
      <contour>
        <pt x="446" y="602" on="1"/>
        <pt x="354" y="80" on="1"/>
        <pt x="573" y="53" on="1"/>
        <pt x="563" y="0" on="1"/>
        <pt x="-11" y="0" on="1"/>
        <pt x="-1" y="53" on="1"/>
        <pt x="161" y="80" on="1"/>
        <pt x="370" y="1262" on="1"/>
        <pt x="202" y="1288" on="1"/>
        <pt x="212" y="1341" on="1"/>
        <pt x="1268" y="1341" on="1"/>
        <pt x="1211" y="1020" on="1"/>
        <pt x="1145" y="1020" on="1"/>
        <pt x="1151" y="1237" on="1"/>
        <pt x="1043" y="1251" on="0"/>
        <pt x="830" y="1251" on="1"/>
        <pt x="561" y="1251" on="1"/>
        <pt x="462" y="692" on="1"/>
        <pt x="907" y="692" on="1"/>
        <pt x="966" y="852" on="1"/>
        <pt x="1027" y="852" on="1"/>
        <pt x="955" y="440" on="1"/>
        <pt x="894" y="440" on="1"/>
        <pt x="891" y="602" on="1"/>
      </contour>
    </TTGlyph>
    <TTGlyph name="G" xMin="113" yMin="-18" xMax="1435" yMax="1356">
      <contour>
        <pt x="690" y="-18" on="1"/>
        <pt x="417" y="-18" on="0"/>
        <pt x="113" y="269" on="0"/>
        <pt x="113" y="523" on="1"/>
        <pt x="113" y="774" on="0"/>
        <pt x="321" y="1152" on="0"/>
        <pt x="701" y="1356" on="0"/>
        <pt x="947" y="1356" on="1"/>
        <pt x="1178" y="1356" on="0"/>
        <pt x="1394" y="1296" on="1"/>
        <pt x="1343" y="1008" on="1"/>
        <pt x="1276" y="1008" on="1"/>
        <pt x="1279" y="1174" on="1"/>
        <pt x="1152" y="1276" on="0"/>
        <pt x="941" y="1276" on="1"/>
        <pt x="764" y="1276" on="0"/>
        <pt x="476" y="1085" on="0"/>
        <pt x="314" y="733" on="0"/>
        <pt x="314" y="503" on="1"/>
        <pt x="314" y="295" on="0"/>
        <pt x="519" y="62" on="0"/>
        <pt x="703" y="62" on="1"/>
        <pt x="792" y="62" on="0"/>
        <pt x="972" y="113" on="0"/>
        <pt x="1035" y="153" on="1"/>
        <pt x="1098" y="506" on="1"/>
        <pt x="931" y="532" on="1"/>
        <pt x="940" y="586" on="1"/>
        <pt x="1435" y="586" on="1"/>
        <pt x="1426" y="532" on="1"/>
        <pt x="1290" y="506" on="1"/>
        <pt x="1215" y="86" on="1"/>
        <pt x="1064" y="28" on="0"/>
        <pt x="820" y="-18" on="0"/>
      </contour>
    </TTGlyph>
    <TTGlyph name="Gamma" xMin="-17" yMin="0" xMax="1230" yMax="1341">
      <contour>
        <pt x="553" y="0" on="1"/>
        <pt x="-17" y="0" on="1"/>
        <pt x="-8" y="53" on="1"/>
        <pt x="167" y="79" on="1"/>
        <pt x="376" y="1261" on="1"/>
        <pt x="209" y="1288" on="1"/>
        <pt x="219" y="1341" on="1"/>
        <pt x="1230" y="1341" on="1"/>
        <pt x="1180" y="956" on="1"/>
        <pt x="1115" y="956" on="1"/>
        <pt x="1102" y="1235" on="1"/>
        <pt x="1070" y="1242" on="0"/>
        <pt x="879" y="1255" on="0"/>
        <pt x="822" y="1255" on="1"/>
        <pt x="568" y="1255" on="1"/>
        <pt x="360" y="79" on="1"/>
        <pt x="562" y="53" on="1"/>
      </contour>
    </TTGlyph>
    <TTGlyph name="Gbreve" xMin="113" yMin="-18" xMax="1435" yMax="1733">
      <component glyphName="G" x="0" y="0" flags="0x204"/>
      <component glyphName="breve" x="470" y="334" flags="0x4"/>
    </TTGlyph>
    <TTGlyph name="Gcircumflex" xMin="113" yMin="-18" xMax="1435" yMax="1758">
      <component glyphName="G" x="0" y="0" flags="0x204"/>
      <component glyphName="circumflex" x="442" y="334" flags="0x4"/>
    </TTGlyph>
    <TTGlyph name="H" xMin="-22" yMin="0" xMax="1571" yMax="1341">
      <contour>
        <pt x="-22" y="0" on="1"/>
        <pt x="-14" y="53" on="1"/>
        <pt x="162" y="80" on="1"/>
        <pt x="369" y="1262" on="1"/>
        <pt x="203" y="1288" on="1"/>
        <pt x="211" y="1341" on="1"/>
        <pt x="748" y="1341" on="1"/>
        <pt x="740" y="1288" on="1"/>
        <pt x="561" y="1262" on="1"/>
        <pt x="469" y="735" on="1"/>
        <pt x="1100" y="735" on="1"/>
        <pt x="1192" y="1262" on="1"/>
        <pt x="1026" y="1288" on="1"/>
        <pt x="1034" y="1341" on="1"/>
        <pt x="1571" y="1341" on="1"/>
        <pt x="1563" y="1288" on="1"/>
        <pt x="1385" y="1262" on="1"/>
        <pt x="1178" y="80" on="1"/>
        <pt x="1344" y="53" on="1"/>
        <pt x="1335" y="0" on="1"/>
        <pt x="799" y="0" on="1"/>
        <pt x="807" y="53" on="1"/>
        <pt x="985" y="80" on="1"/>
        <pt x="1084" y="645" on="1"/>
        <pt x="453" y="645" on="1"/>
        <pt x="354" y="80" on="1"/>
        <pt x="520" y="53" on="1"/>
        <pt x="512" y="0" on="1"/>
      </contour>
    </TTGlyph>
    <TTGlyph name="Hbar" xMin="-22" yMin="0" xMax="1571" yMax="1341">
      <contour>
        <pt x="-22" y="0" on="1"/>
        <pt x="-14" y="53" on="1"/>
        <pt x="162" y="80" on="1"/>
        <pt x="315" y="957" on="1"/>
        <pt x="143" y="957" on="1"/>
        <pt x="157" y="1039" on="1"/>
        <pt x="330" y="1039" on="1"/>
        <pt x="369" y="1262" on="1"/>
        <pt x="203" y="1288" on="1"/>
        <pt x="211" y="1341" on="1"/>
        <pt x="748" y="1341" on="1"/>
        <pt x="740" y="1288" on="1"/>
        <pt x="561" y="1262" on="1"/>
        <pt x="522" y="1039" on="1"/>
        <pt x="1153" y="1039" on="1"/>
        <pt x="1192" y="1262" on="1"/>
        <pt x="1026" y="1288" on="1"/>
        <pt x="1034" y="1341" on="1"/>
        <pt x="1571" y="1341" on="1"/>
        <pt x="1563" y="1288" on="1"/>
        <pt x="1385" y="1262" on="1"/>
        <pt x="1346" y="1039" on="1"/>
        <pt x="1517" y="1039" on="1"/>
        <pt x="1503" y="957" on="1"/>
        <pt x="1331" y="957" on="1"/>
        <pt x="1178" y="80" on="1"/>
        <pt x="1344" y="53" on="1"/>
        <pt x="1335" y="0" on="1"/>
        <pt x="799" y="0" on="1"/>
        <pt x="807" y="53" on="1"/>
        <pt x="985" y="80" on="1"/>
        <pt x="1084" y="645" on="1"/>
        <pt x="453" y="645" on="1"/>
        <pt x="354" y="80" on="1"/>
        <pt x="520" y="53" on="1"/>
        <pt x="512" y="0" on="1"/>
      </contour>
      <contour>
        <pt x="1100" y="735" on="1"/>
        <pt x="1139" y="957" on="1"/>
        <pt x="508" y="957" on="1"/>
        <pt x="469" y="735" on="1"/>
      </contour>
    </TTGlyph>
    <TTGlyph name="Hcircumflex" xMin="-22" yMin="0" xMax="1571" yMax="1758">
      <component glyphName="H" x="0" y="0" flags="0x204"/>
      <component glyphName="circumflex" x="442" y="334" flags="0x4"/>
    </TTGlyph>
    <TTGlyph name="I" xMin="-8" yMin="0" xMax="762" yMax="1341">
      <contour>
        <pt x="369" y="80" on="1"/>
        <pt x="535" y="53" on="1"/>
        <pt x="527" y="0" on="1"/>
        <pt x="-8" y="0" on="1"/>
        <pt x="0" y="53" on="1"/>
        <pt x="176" y="80" on="1"/>
        <pt x="383" y="1262" on="1"/>
        <pt x="217" y="1288" on="1"/>
        <pt x="225" y="1341" on="1"/>
        <pt x="762" y="1341" on="1"/>
        <pt x="754" y="1288" on="1"/>
        <pt x="576" y="1262" on="1"/>
      </contour>
    </TTGlyph>
    <TTGlyph name="IJ" xMin="-8" yMin="-20" xMax="1616" yMax="1341">
      <component glyphName="I" x="0" y="0" flags="0x4"/>
      <component glyphName="J" x="627" y="0" flags="0x4"/>
    </TTGlyph>
    <TTGlyph name="Iacute" xMin="-8" yMin="0" xMax="864" yMax="1757">
      <component glyphName="I" x="0" y="0" flags="0x204"/>
      <component glyphName="acute" x="154" y="334" flags="0x4"/>
    </TTGlyph>
    <TTGlyph name="Ibreve" xMin="-8" yMin="0" xMax="851" yMax="1733">
      <component glyphName="I" x="0" y="0" flags="0x204"/>
      <component glyphName="breve" x="50" y="334" flags="0x4"/>
    </TTGlyph>
    <TTGlyph name="Icircumflex" xMin="-8" yMin="0" xMax="811" yMax="1758">
      <component glyphName="I" x="0" y="0" flags="0x204"/>
      <component glyphName="circumflex" x="45" y="334" flags="0x4"/>
    </TTGlyph>
    <TTGlyph name="Idieresis" xMin="-8" yMin="0" xMax="806" yMax="1696">
      <component glyphName="I" x="0" y="0" flags="0x204"/>
      <component glyphName="dieresis" x="46" y="365" flags="0x4"/>
    </TTGlyph>
    <TTGlyph name="Idotaccent" xMin="-8" yMin="0" xMax="762" yMax="1690">
      <component glyphName="I" x="0" y="0" flags="0x204"/>
      <component glyphName="dotaccent" x="65" y="334" flags="0x4"/>
    </TTGlyph>
    <TTGlyph name="Igrave" xMin="-8" yMin="0" xMax="762" yMax="1757">
      <component glyphName="I" x="0" y="0" flags="0x204"/>
      <component glyphName="grave" x="-12" y="334" flags="0x4"/>
    </TTGlyph>
    <TTGlyph name="Imacron" xMin="-8" yMin="0" xMax="851" yMax="1604">
      <component glyphName="I" x="0" y="0" flags="0x204"/>
      <component glyphName="uni02C9" x="46" y="334" flags="0x4"/>
    </TTGlyph>
    <TTGlyph name="Iogonek" xMin="-8" yMin="-403" xMax="762" yMax="1341">
      <component glyphName="I" x="0" y="0" flags="0x204"/>
      <component glyphName="ogonek" x="-35" y="0" flags="0x4"/>
    </TTGlyph>
    <TTGlyph name="Iota" xMin="-8" yMin="0" xMax="762" yMax="1341">
      <component glyphName="I" x="0" y="0" flags="0x204"/>
    </TTGlyph>
    <TTGlyph name="Iotadieresis" xMin="-8" yMin="0" xMax="806" yMax="1696">
      <component glyphName="I" x="0" y="0" flags="0x204"/>
      <component glyphName="dieresis" x="46" y="365" flags="0x4"/>
    </TTGlyph>
    <TTGlyph name="Iotatonos" xMin="0" yMin="0" xMax="903" yMax="1342">
      <component glyphName="I" x="141" y="0" flags="0x4"/>
      <component glyphName="tonos" x="-248" y="-101" flags="0x4"/>
    </TTGlyph>
    <TTGlyph name="Itilde" xMin="-8" yMin="0" xMax="870" yMax="1715">
      <component glyphName="I" x="0" y="0" flags="0x204"/>
      <component glyphName="tilde" x="60" y="334" flags="0x4"/>
    </TTGlyph>
    <TTGlyph name="J" xMin="31" yMin="-20" xMax="989" yMax="1341">
      <contour>
        <pt x="631" y="1262" on="1"/>
        <pt x="464" y="1288" on="1"/>
        <pt x="473" y="1341" on="1"/>
        <pt x="989" y="1341" on="1"/>
        <pt x="980" y="1288" on="1"/>
        <pt x="823" y="1262" on="1"/>
        <pt x="677" y="432" on="1"/>
        <pt x="597" y="-20" on="0"/>
        <pt x="267" y="-20" on="1"/>
        <pt x="198" y="-20" on="0"/>
        <pt x="72" y="7" on="0"/>
        <pt x="31" y="26" on="1"/>
        <pt x="73" y="258" on="1"/>
        <pt x="138" y="258" on="1"/>
        <pt x="143" y="119" on="1"/>
        <pt x="156" y="97" on="0"/>
        <pt x="239" y="66" on="0"/>
        <pt x="281" y="66" on="1"/>
        <pt x="421" y="66" on="0"/>
        <pt x="454" y="256" on="1"/>
      </contour>
    </TTGlyph>
    <TTGlyph name="Jcircumflex" xMin="31" yMin="-20" xMax="1050" yMax="1758">
      <component glyphName="J" x="0" y="0" flags="0x204"/>
      <component glyphName="circumflex" x="284" y="334" flags="0x4"/>
    </TTGlyph>
    <TTGlyph name="K" xMin="-24" yMin="0" xMax="1454" yMax="1341">
      <contour>
        <pt x="1454" y="1341" on="1"/>
        <pt x="1444" y="1288" on="1"/>
        <pt x="1288" y="1262" on="1"/>
        <pt x="732" y="807" on="1"/>
        <pt x="1179" y="80" on="1"/>
        <pt x="1313" y="53" on="1"/>
        <pt x="1303" y="0" on="1"/>
        <pt x="996" y="0" on="1"/>
        <pt x="585" y="686" on="1"/>
        <pt x="442" y="569" on="1"/>
        <pt x="354" y="80" on="1"/>
        <pt x="542" y="53" on="1"/>
        <pt x="532" y="0" on="1"/>
        <pt x="-24" y="0" on="1"/>
        <pt x="-14" y="53" on="1"/>
        <pt x="161" y="80" on="1"/>
        <pt x="370" y="1262" on="1"/>
        <pt x="202" y="1288" on="1"/>
        <pt x="212" y="1341" on="1"/>
        <pt x="749" y="1341" on="1"/>
        <pt x="739" y="1288" on="1"/>
        <pt x="563" y="1262" on="1"/>
        <pt x="465" y="704" on="1"/>
        <pt x="1143" y="1262" on="1"/>
        <pt x="1024" y="1288" on="1"/>
        <pt x="1034" y="1341" on="1"/>
      </contour>
    </TTGlyph>
    <TTGlyph name="Kappa" xMin="-24" yMin="0" xMax="1454" yMax="1341">
      <contour>
        <pt x="1454" y="1341" on="1"/>
        <pt x="1444" y="1288" on="1"/>
        <pt x="1288" y="1262" on="1"/>
        <pt x="732" y="807" on="1"/>
        <pt x="1179" y="80" on="1"/>
        <pt x="1313" y="53" on="1"/>
        <pt x="1303" y="0" on="1"/>
        <pt x="996" y="0" on="1"/>
        <pt x="585" y="686" on="1"/>
        <pt x="442" y="569" on="1"/>
        <pt x="354" y="80" on="1"/>
        <pt x="542" y="53" on="1"/>
        <pt x="532" y="0" on="1"/>
        <pt x="-24" y="0" on="1"/>
        <pt x="-14" y="53" on="1"/>
        <pt x="161" y="80" on="1"/>
        <pt x="370" y="1262" on="1"/>
        <pt x="202" y="1288" on="1"/>
        <pt x="212" y="1341" on="1"/>
        <pt x="749" y="1341" on="1"/>
        <pt x="739" y="1288" on="1"/>
        <pt x="563" y="1262" on="1"/>
        <pt x="465" y="704" on="1"/>
        <pt x="1143" y="1262" on="1"/>
        <pt x="1024" y="1288" on="1"/>
        <pt x="1034" y="1341" on="1"/>
      </contour>
    </TTGlyph>
    <TTGlyph name="L" xMin="-24" yMin="0" xMax="1042" yMax="1341">
      <contour>
        <pt x="355" y="86" on="1"/>
        <pt x="569" y="86" on="1"/>
        <pt x="759" y="86" on="0"/>
        <pt x="866" y="106" on="1"/>
        <pt x="977" y="385" on="1"/>
        <pt x="1042" y="385" on="1"/>
        <pt x="956" y="0" on="1"/>
        <pt x="-24" y="0" on="1"/>
        <pt x="-14" y="53" on="1"/>
        <pt x="161" y="80" on="1"/>
        <pt x="370" y="1262" on="1"/>
        <pt x="202" y="1288" on="1"/>
        <pt x="212" y="1341" on="1"/>
        <pt x="784" y="1341" on="1"/>
        <pt x="774" y="1288" on="1"/>
        <pt x="563" y="1262" on="1"/>
      </contour>
    </TTGlyph>
    <TTGlyph name="Lacute" xMin="-24" yMin="0" xMax="1042" yMax="1757">
      <component glyphName="L" x="0" y="0" flags="0x204"/>
      <component glyphName="acute" x="176" y="334" flags="0x4"/>
    </TTGlyph>
    <TTGlyph name="Lambda" xMin="-159" yMin="0" xMax="1224" yMax="1352">
      <contour>
        <pt x="122" y="80" on="1"/>
        <pt x="296" y="53" on="1"/>
        <pt x="286" y="0" on="1"/>
        <pt x="-159" y="0" on="1"/>
        <pt x="-149" y="53" on="1"/>
        <pt x="1" y="80" on="1"/>
        <pt x="712" y="1352" on="1"/>
        <pt x="902" y="1352" on="1"/>
        <pt x="1060" y="80" on="1"/>
        <pt x="1224" y="53" on="1"/>
        <pt x="1214" y="0" on="1"/>
        <pt x="652" y="0" on="1"/>
        <pt x="662" y="53" on="1"/>
        <pt x="848" y="80" on="1"/>
        <pt x="740" y="1197" on="1"/>
      </contour>
    </TTGlyph>
    <TTGlyph name="Lcaron" xMin="-24" yMin="0" xMax="1171" yMax="1341">
      <component glyphName="L" x="0" y="0" flags="0x204"/>
      <component glyphName="caroncommaaccent" x="815" y="0" flags="0x4"/>
    </TTGlyph>
    <TTGlyph name="Ldot" xMin="-24" yMin="0" xMax="1042" yMax="1341">
      <component glyphName="L" x="0" y="0" flags="0x204"/>
      <component glyphName="dotaccent" x="378" y="-577" flags="0x4"/>
    </TTGlyph>
    <TTGlyph name="Lslash" xMin="-24" yMin="0" xMax="1042" yMax="1341">
      <contour>
        <pt x="470" y="736" on="1"/>
        <pt x="810" y="915" on="1"/>
        <pt x="793" y="821" on="1"/>
        <pt x="453" y="642" on="1"/>
        <pt x="355" y="86" on="1"/>
        <pt x="569" y="86" on="1"/>
        <pt x="759" y="86" on="0"/>
        <pt x="866" y="106" on="1"/>
        <pt x="977" y="385" on="1"/>
        <pt x="1042" y="385" on="1"/>
        <pt x="956" y="0" on="1"/>
        <pt x="-24" y="0" on="1"/>
        <pt x="-14" y="53" on="1"/>
        <pt x="161" y="80" on="1"/>
        <pt x="240" y="530" on="1"/>
        <pt x="36" y="422" on="1"/>
        <pt x="52" y="518" on="1"/>
        <pt x="257" y="625" on="1"/>
        <pt x="370" y="1262" on="1"/>
        <pt x="202" y="1288" on="1"/>
        <pt x="212" y="1341" on="1"/>
        <pt x="784" y="1341" on="1"/>
        <pt x="774" y="1288" on="1"/>
        <pt x="563" y="1262" on="1"/>
      </contour>
    </TTGlyph>
    <TTGlyph name="M" xMin="-24" yMin="0" xMax="1800" yMax="1341">
      <contour>
        <pt x="721" y="0" on="1"/>
        <pt x="686" y="0" on="1"/>
        <pt x="455" y="1153" on="1"/>
        <pt x="266" y="80" on="1"/>
        <pt x="442" y="53" on="1"/>
        <pt x="432" y="0" on="1"/>
        <pt x="-24" y="0" on="1"/>
        <pt x="-14" y="53" on="1"/>
        <pt x="161" y="80" on="1"/>
        <pt x="370" y="1262" on="1"/>
        <pt x="202" y="1288" on="1"/>
        <pt x="212" y="1341" on="1"/>
        <pt x="594" y="1341" on="1"/>
        <pt x="800" y="318" on="1"/>
        <pt x="1398" y="1341" on="1"/>
        <pt x="1800" y="1341" on="1"/>
        <pt x="1790" y="1288" on="1"/>
        <pt x="1614" y="1262" on="1"/>
        <pt x="1405" y="80" on="1"/>
        <pt x="1573" y="53" on="1"/>
        <pt x="1563" y="0" on="1"/>
        <pt x="1019" y="0" on="1"/>
        <pt x="1029" y="53" on="1"/>
        <pt x="1213" y="80" on="1"/>
        <pt x="1402" y="1153" on="1"/>
      </contour>
    </TTGlyph>
    <TTGlyph name="Mu" xMin="-24" yMin="0" xMax="1800" yMax="1341">
      <component glyphName="M" x="0" y="0" flags="0x204"/>
    </TTGlyph>
    <TTGlyph name="N" xMin="-15" yMin="0" xMax="1461" yMax="1341">
      <contour>
        <pt x="1170" y="1262" on="1"/>
        <pt x="994" y="1288" on="1"/>
        <pt x="1004" y="1341" on="1"/>
        <pt x="1461" y="1341" on="1"/>
        <pt x="1451" y="1288" on="1"/>
        <pt x="1275" y="1262" on="1"/>
        <pt x="1052" y="0" on="1"/>
        <pt x="955" y="0" on="1"/>
        <pt x="474" y="1206" on="1"/>
        <pt x="275" y="80" on="1"/>
        <pt x="451" y="53" on="1"/>
        <pt x="441" y="0" on="1"/>
        <pt x="-15" y="0" on="1"/>
        <pt x="-5" y="53" on="1"/>
        <pt x="170" y="80" on="1"/>
        <pt x="379" y="1262" on="1"/>
        <pt x="211" y="1288" on="1"/>
        <pt x="221" y="1341" on="1"/>
        <pt x="609" y="1341" on="1"/>
        <pt x="1008" y="336" on="1"/>
      </contour>
    </TTGlyph>
    <TTGlyph name="Nacute" xMin="-15" yMin="0" xMax="1461" yMax="1757">
      <component glyphName="N" x="0" y="0" flags="0x204"/>
      <component glyphName="acute" x="495" y="334" flags="0x4"/>
    </TTGlyph>
    <TTGlyph name="Ncaron" xMin="-15" yMin="0" xMax="1461" yMax="1758">
      <component glyphName="N" x="0" y="0" flags="0x204"/>
      <component glyphName="caron" x="421" y="334" flags="0x4"/>
    </TTGlyph>
    <TTGlyph name="Ntilde" xMin="-15" yMin="0" xMax="1461" yMax="1741">
      <component glyphName="N" x="0" y="0" flags="0x204"/>
      <component glyphName="tilde" x="440" y="360" flags="0x4"/>
    </TTGlyph>
    <TTGlyph name="Nu" xMin="-15" yMin="0" xMax="1461" yMax="1341">
      <component glyphName="N" x="0" y="0" flags="0x204"/>
    </TTGlyph>
    <TTGlyph name="O" xMin="103" yMin="-20" xMax="1431" yMax="1356">
      <contour>
        <pt x="1231" y="832" on="1"/>
        <pt x="1231" y="1032" on="0"/>
        <pt x="1026" y="1276" on="0"/>
        <pt x="858" y="1276" on="1"/>
        <pt x="709" y="1276" on="0"/>
        <pt x="460" y="1073" on="0"/>
        <pt x="303" y="695" on="0"/>
        <pt x="303" y="503" on="1"/>
        <pt x="303" y="305" on="0"/>
        <pt x="504" y="65" on="0"/>
        <pt x="670" y="65" on="1"/>
        <pt x="819" y="65" on="0"/>
        <pt x="1072" y="266" on="0"/>
        <pt x="1231" y="644" on="0"/>
      </contour>
      <contour>
        <pt x="663" y="-20" on="1"/>
        <pt x="502" y="-20" on="0"/>
        <pt x="245" y="115" on="0"/>
        <pt x="103" y="361" on="0"/>
        <pt x="103" y="514" on="1"/>
        <pt x="103" y="755" on="0"/>
        <pt x="303" y="1146" on="0"/>
        <pt x="649" y="1356" on="0"/>
        <pt x="871" y="1356" on="1"/>
        <pt x="1032" y="1356" on="0"/>
        <pt x="1289" y="1221" on="0"/>
        <pt x="1431" y="976" on="0"/>
        <pt x="1431" y="822" on="1"/>
        <pt x="1431" y="585" on="0"/>
        <pt x="1230" y="187" on="0"/>
        <pt x="885" y="-20" on="0"/>
      </contour>
    </TTGlyph>
    <TTGlyph name="OE" xMin="103" yMin="-6" xMax="1900" yMax="1348">
      <contour>
        <pt x="642" y="-6" on="1"/>
        <pt x="389" y="-6" on="0"/>
        <pt x="103" y="268" on="0"/>
        <pt x="103" y="514" on="1"/>
        <pt x="103" y="749" on="0"/>
        <pt x="295" y="1133" on="0"/>
        <pt x="646" y="1348" on="0"/>
        <pt x="871" y="1348" on="1"/>
        <pt x="1136" y="1341" on="1"/>
        <pt x="1900" y="1341" on="1"/>
        <pt x="1843" y="1020" on="1"/>
        <pt x="1777" y="1020" on="1"/>
        <pt x="1783" y="1237" on="1"/>
        <pt x="1674" y="1251" on="0"/>
        <pt x="1462" y="1251" on="1"/>
        <pt x="1243" y="1251" on="1"/>
        <pt x="1150" y="727" on="1"/>
        <pt x="1512" y="727" on="1"/>
        <pt x="1572" y="887" on="1"/>
        <pt x="1636" y="887" on="1"/>
        <pt x="1563" y="475" on="1"/>
        <pt x="1499" y="475" on="1"/>
        <pt x="1497" y="637" on="1"/>
        <pt x="1135" y="637" on="1"/>
        <pt x="1038" y="90" on="1"/>
        <pt x="1302" y="90" on="1"/>
        <pt x="1558" y="90" on="0"/>
        <pt x="1643" y="106" on="1"/>
        <pt x="1744" y="354" on="1"/>
        <pt x="1810" y="354" on="1"/>
        <pt x="1728" y="0" on="1"/>
        <pt x="917" y="0" on="1"/>
        <pt x="839" y="-6" on="0"/>
      </contour>
      <contour>
        <pt x="655" y="65" on="1"/>
        <pt x="768" y="65" on="0"/>
        <pt x="844" y="87" on="1"/>
        <pt x="1048" y="1252" on="1"/>
        <pt x="982" y="1276" on="0"/>
        <pt x="858" y="1276" on="1"/>
        <pt x="709" y="1276" on="0"/>
        <pt x="460" y="1073" on="0"/>
        <pt x="303" y="695" on="0"/>
        <pt x="303" y="503" on="1"/>
        <pt x="303" y="294" on="0"/>
        <pt x="487" y="65" on="0"/>
      </contour>
    </TTGlyph>
    <TTGlyph name="Oacute" xMin="103" yMin="-20" xMax="1431" yMax="1757">
      <component glyphName="O" x="0" y="0" flags="0x204"/>
      <component glyphName="acute" x="588" y="334" flags="0x4"/>
    </TTGlyph>
    <TTGlyph name="Obreve" xMin="103" yMin="-20" xMax="1431" yMax="1733">
      <component glyphName="O" x="0" y="0" flags="0x204"/>
      <component glyphName="breve" x="429" y="334" flags="0x4"/>
    </TTGlyph>
    <TTGlyph name="Ocircumflex" xMin="103" yMin="-20" xMax="1431" yMax="1758">
      <component glyphName="O" x="0" y="0" flags="0x204"/>
      <component glyphName="circumflex" x="452" y="334" flags="0x4"/>
    </TTGlyph>
    <TTGlyph name="Odieresis" xMin="103" yMin="-20" xMax="1431" yMax="1696">
      <component glyphName="O" x="0" y="0" flags="0x204"/>
      <component glyphName="dieresis" x="434" y="365" flags="0x4"/>
    </TTGlyph>
    <TTGlyph name="Ograve" xMin="103" yMin="-20" xMax="1431" yMax="1757">
      <component glyphName="O" x="0" y="0" flags="0x204"/>
      <component glyphName="grave" x="430" y="334" flags="0x4"/>
    </TTGlyph>
    <TTGlyph name="Ohm" xMin="44" yMin="0" xMax="1407" yMax="1356">
      <component glyphName="Omega" x="0" y="0" flags="0x204"/>
    </TTGlyph>
    <TTGlyph name="Ohorn" xMin="103" yMin="-20" xMax="1654" yMax="1463">
      <contour>
        <pt x="663" y="-20" on="1"/>
        <pt x="502" y="-20" on="0"/>
        <pt x="245" y="115" on="0"/>
        <pt x="103" y="361" on="0"/>
        <pt x="103" y="514" on="1"/>
        <pt x="103" y="755" on="0"/>
        <pt x="303" y="1146" on="0"/>
        <pt x="649" y="1356" on="0"/>
        <pt x="871" y="1356" on="1"/>
        <pt x="1043" y="1356" on="0"/>
        <pt x="1312" y="1201" on="0"/>
        <pt x="1378" y="1063" on="1"/>
        <pt x="1440" y="1093" on="0"/>
        <pt x="1501" y="1161" on="0"/>
        <pt x="1501" y="1191" on="1"/>
        <pt x="1501" y="1213" on="0"/>
        <pt x="1467" y="1241" on="0"/>
        <pt x="1427" y="1269" on="0"/>
        <pt x="1393" y="1306" on="0"/>
        <pt x="1393" y="1338" on="1"/>
        <pt x="1393" y="1395" on="0"/>
        <pt x="1465" y="1463" on="0"/>
        <pt x="1520" y="1463" on="1"/>
        <pt x="1577" y="1463" on="0"/>
        <pt x="1654" y="1395" on="0"/>
        <pt x="1654" y="1319" on="1"/>
        <pt x="1654" y="1233" on="0"/>
        <pt x="1521" y="1059" on="0"/>
        <pt x="1403" y="1000" on="1"/>
        <pt x="1431" y="916" on="0"/>
        <pt x="1431" y="822" on="1"/>
        <pt x="1431" y="585" on="0"/>
        <pt x="1230" y="187" on="0"/>
        <pt x="885" y="-20" on="0"/>
      </contour>
      <contour>
        <pt x="1231" y="832" on="1"/>
        <pt x="1231" y="1032" on="0"/>
        <pt x="1026" y="1276" on="0"/>
        <pt x="858" y="1276" on="1"/>
        <pt x="709" y="1276" on="0"/>
        <pt x="460" y="1073" on="0"/>
        <pt x="303" y="695" on="0"/>
        <pt x="303" y="503" on="1"/>
        <pt x="303" y="305" on="0"/>
        <pt x="504" y="65" on="0"/>
        <pt x="670" y="65" on="1"/>
        <pt x="819" y="65" on="0"/>
        <pt x="1072" y="266" on="0"/>
        <pt x="1231" y="644" on="0"/>
      </contour>
    </TTGlyph>
    <TTGlyph name="Omacron" xMin="103" yMin="-20" xMax="1431" yMax="1604">
      <component glyphName="O" x="0" y="0" flags="0x204"/>
      <component glyphName="uni02C9" x="433" y="334" flags="0x4"/>
    </TTGlyph>
    <TTGlyph name="Omega" xMin="44" yMin="0" xMax="1407" yMax="1356">
      <contour>
        <pt x="863" y="1276" on="1"/>
        <pt x="636" y="1276" on="0"/>
        <pt x="383" y="983" on="0"/>
        <pt x="383" y="723" on="1"/>
        <pt x="383" y="565" on="0"/>
        <pt x="516" y="373" on="0"/>
        <pt x="636" y="343" on="1"/>
        <pt x="603" y="0" on="1"/>
        <pt x="44" y="0" on="1"/>
        <pt x="83" y="330" on="1"/>
        <pt x="149" y="330" on="1"/>
        <pt x="181" y="186" on="1"/>
        <pt x="261" y="170" on="0"/>
        <pt x="452" y="170" on="1"/>
        <pt x="524" y="170" on="1"/>
        <pt x="532" y="281" on="1"/>
        <pt x="373" y="320" on="0"/>
        <pt x="176" y="565" on="0"/>
        <pt x="176" y="735" on="1"/>
        <pt x="176" y="923" on="0"/>
        <pt x="346" y="1206" on="0"/>
        <pt x="660" y="1356" on="0"/>
        <pt x="867" y="1356" on="1"/>
        <pt x="1120" y="1356" on="0"/>
        <pt x="1407" y="1115" on="0"/>
        <pt x="1407" y="901" on="1"/>
        <pt x="1407" y="648" on="0"/>
        <pt x="1130" y="320" on="0"/>
        <pt x="885" y="281" on="1"/>
        <pt x="857" y="170" on="1"/>
        <pt x="916" y="170" on="1"/>
        <pt x="1118" y="170" on="0"/>
        <pt x="1203" y="186" on="1"/>
        <pt x="1285" y="330" on="1"/>
        <pt x="1351" y="330" on="1"/>
        <pt x="1274" y="0" on="1"/>
        <pt x="715" y="0" on="1"/>
        <pt x="802" y="343" on="1"/>
        <pt x="997" y="372" on="0"/>
        <pt x="1201" y="653" on="0"/>
        <pt x="1201" y="897" on="1"/>
        <pt x="1201" y="1079" on="0"/>
        <pt x="1025" y="1276" on="0"/>
      </contour>
    </TTGlyph>
    <TTGlyph name="Omegatonos" xMin="-24" yMin="0" xMax="1407" yMax="1356">
      <component glyphName="Omega" x="0" y="0" flags="0x4"/>
      <component glyphName="tonos" x="-272" y="-101" flags="0x4"/>
    </TTGlyph>
    <TTGlyph name="Omicron" xMin="103" yMin="-20" xMax="1431" yMax="1356">
      <component glyphName="O" x="0" y="0" flags="0x204"/>
    </TTGlyph>
    <TTGlyph name="Omicrontonos" xMin="15" yMin="-20" xMax="1431" yMax="1356">
      <component glyphName="O" x="0" y="0" flags="0x4"/>
      <component glyphName="tonos" x="-233" y="-101" flags="0x4"/>
    </TTGlyph>
    <TTGlyph name="Oslash" xMin="-22" yMin="-55" xMax="1542" yMax="1391">
      <contour>
        <pt x="663" y="-20" on="1"/>
        <pt x="427" y="-20" on="0"/>
        <pt x="270" y="118" on="1"/>
        <pt x="97" y="-55" on="1"/>
        <pt x="-22" y="-55" on="1"/>
        <pt x="213" y="180" on="1"/>
        <pt x="103" y="319" on="0"/>
        <pt x="103" y="514" on="1"/>
        <pt x="103" y="755" on="0"/>
        <pt x="303" y="1146" on="0"/>
        <pt x="649" y="1356" on="0"/>
        <pt x="871" y="1356" on="1"/>
        <pt x="1103" y="1356" on="0"/>
        <pt x="1258" y="1222" on="1"/>
        <pt x="1427" y="1391" on="1"/>
        <pt x="1542" y="1391" on="1"/>
        <pt x="1314" y="1163" on="1"/>
        <pt x="1431" y="1021" on="0"/>
        <pt x="1431" y="822" on="1"/>
        <pt x="1431" y="585" on="0"/>
        <pt x="1230" y="187" on="0"/>
        <pt x="885" y="-20" on="0"/>
      </contour>
      <contour>
        <pt x="1231" y="832" on="1"/>
        <pt x="1231" y="949" on="0"/>
        <pt x="1194" y="1043" on="1"/>
        <pt x="375" y="223" on="1"/>
        <pt x="423" y="148" on="0"/>
        <pt x="573" y="65" on="0"/>
        <pt x="670" y="65" on="1"/>
        <pt x="819" y="65" on="0"/>
        <pt x="1072" y="266" on="0"/>
        <pt x="1231" y="644" on="0"/>
      </contour>
      <contour>
        <pt x="303" y="503" on="1"/>
        <pt x="303" y="389" on="0"/>
        <pt x="336" y="302" on="1"/>
        <pt x="1154" y="1119" on="1"/>
        <pt x="1105" y="1194" on="0"/>
        <pt x="954" y="1276" on="0"/>
        <pt x="858" y="1276" on="1"/>
        <pt x="709" y="1276" on="0"/>
        <pt x="460" y="1073" on="0"/>
        <pt x="303" y="695" on="0"/>
      </contour>
    </TTGlyph>
    <TTGlyph name="Oslashacute" xMin="-22" yMin="-55" xMax="1542" yMax="1757">
      <component glyphName="Oslash" x="0" y="0" flags="0x204"/>
      <component glyphName="acute" x="500" y="334" flags="0x4"/>
    </TTGlyph>
    <TTGlyph name="Otilde" xMin="103" yMin="-20" xMax="1431" yMax="1741">
      <component glyphName="O" x="0" y="0" flags="0x204"/>
      <component glyphName="tilde" x="471" y="360" flags="0x4"/>
    </TTGlyph>
    <TTGlyph name="P" xMin="-11" yMin="0" xMax="1199" yMax="1341">
      <contour>
        <pt x="612" y="616" on="1"/>
        <pt x="1000" y="616" on="0"/>
        <pt x="1000" y="973" on="1"/>
        <pt x="1000" y="1116" on="0"/>
        <pt x="855" y="1251" on="0"/>
        <pt x="709" y="1251" on="1"/>
        <pt x="561" y="1251" on="1"/>
        <pt x="449" y="616" on="1"/>
      </contour>
      <contour>
        <pt x="433" y="526" on="1"/>
        <pt x="354" y="80" on="1"/>
        <pt x="573" y="53" on="1"/>
        <pt x="563" y="0" on="1"/>
        <pt x="-11" y="0" on="1"/>
        <pt x="-1" y="53" on="1"/>
        <pt x="161" y="80" on="1"/>
        <pt x="370" y="1262" on="1"/>
        <pt x="202" y="1288" on="1"/>
        <pt x="212" y="1341" on="1"/>
        <pt x="749" y="1341" on="1"/>
        <pt x="965" y="1341" on="0"/>
        <pt x="1199" y="1162" on="0"/>
        <pt x="1199" y="986" on="1"/>
        <pt x="1199" y="762" on="0"/>
        <pt x="906" y="526" on="0"/>
        <pt x="634" y="526" on="1"/>
      </contour>
    </TTGlyph>
    <TTGlyph name="Phi" xMin="101" yMin="0" xMax="1506" yMax="1341">
      <contour>
        <pt x="918" y="300" on="1"/>
        <pt x="1306" y="300" on="0"/>
        <pt x="1306" y="727" on="1"/>
        <pt x="1306" y="889" on="0"/>
        <pt x="1147" y="1059" on="0"/>
        <pt x="995" y="1059" on="1"/>
        <pt x="962" y="1059" on="1"/>
        <pt x="829" y="300" on="1"/>
      </contour>
      <contour>
        <pt x="681" y="1059" on="1"/>
        <pt x="293" y="1059" on="0"/>
        <pt x="293" y="632" on="1"/>
        <pt x="293" y="470" on="0"/>
        <pt x="452" y="300" on="0"/>
        <pt x="604" y="300" on="1"/>
        <pt x="646" y="300" on="1"/>
        <pt x="780" y="1059" on="1"/>
      </contour>
      <contour>
        <pt x="632" y="222" on="1"/>
        <pt x="566" y="222" on="1"/>
        <pt x="343" y="222" on="0"/>
        <pt x="101" y="431" on="0"/>
        <pt x="101" y="635" on="1"/>
        <pt x="101" y="879" on="0"/>
        <pt x="393" y="1137" on="0"/>
        <pt x="671" y="1137" on="1"/>
        <pt x="795" y="1137" on="1"/>
        <pt x="816" y="1262" on="1"/>
        <pt x="649" y="1288" on="1"/>
        <pt x="659" y="1341" on="1"/>
        <pt x="1185" y="1341" on="1"/>
        <pt x="1175" y="1288" on="1"/>
        <pt x="998" y="1262" on="1"/>
        <pt x="977" y="1137" on="1"/>
        <pt x="1033" y="1137" on="1"/>
        <pt x="1261" y="1137" on="0"/>
        <pt x="1506" y="919" on="0"/>
        <pt x="1506" y="726" on="1"/>
        <pt x="1506" y="483" on="0"/>
        <pt x="1208" y="222" on="0"/>
        <pt x="928" y="222" on="1"/>
        <pt x="814" y="222" on="1"/>
        <pt x="790" y="80" on="1"/>
        <pt x="956" y="53" on="1"/>
        <pt x="947" y="0" on="1"/>
        <pt x="421" y="0" on="1"/>
        <pt x="430" y="53" on="1"/>
        <pt x="608" y="80" on="1"/>
      </contour>
    </TTGlyph>
    <TTGlyph name="Pi" xMin="-17" yMin="0" xMax="1579" yMax="1341">
      <contour>
        <pt x="-17" y="0" on="1"/>
        <pt x="-8" y="53" on="1"/>
        <pt x="168" y="80" on="1"/>
        <pt x="376" y="1262" on="1"/>
        <pt x="209" y="1288" on="1"/>
        <pt x="219" y="1341" on="1"/>
        <pt x="1579" y="1341" on="1"/>
        <pt x="1569" y="1288" on="1"/>
        <pt x="1392" y="1262" on="1"/>
        <pt x="1184" y="80" on="1"/>
        <pt x="1350" y="53" on="1"/>
        <pt x="1341" y="0" on="1"/>
        <pt x="805" y="0" on="1"/>
        <pt x="814" y="53" on="1"/>
        <pt x="992" y="80" on="1"/>
        <pt x="1198" y="1251" on="1"/>
        <pt x="567" y="1251" on="1"/>
        <pt x="361" y="80" on="1"/>
        <pt x="527" y="53" on="1"/>
        <pt x="518" y="0" on="1"/>
      </contour>
    </TTGlyph>
    <TTGlyph name="Psi" xMin="144" yMin="0" xMax="1594" yMax="1341">
      <contour>
        <pt x="741" y="80" on="1"/>
        <pt x="919" y="53" on="1"/>
        <pt x="909" y="0" on="1"/>
        <pt x="363" y="0" on="1"/>
        <pt x="373" y="53" on="1"/>
        <pt x="559" y="80" on="1"/>
        <pt x="634" y="506" on="1"/>
        <pt x="415" y="506" on="0"/>
        <pt x="200" y="683" on="0"/>
        <pt x="200" y="864" on="1"/>
        <pt x="200" y="934" on="0"/>
        <pt x="211" y="987" on="1"/>
        <pt x="262" y="1262" on="1"/>
        <pt x="144" y="1288" on="1"/>
        <pt x="154" y="1341" on="1"/>
        <pt x="468" y="1341" on="1"/>
        <pt x="402" y="982" on="1"/>
        <pt x="392" y="926" on="0"/>
        <pt x="392" y="871" on="1"/>
        <pt x="392" y="728" on="0"/>
        <pt x="515" y="586" on="0"/>
        <pt x="648" y="585" on="1"/>
        <pt x="768" y="1262" on="1"/>
        <pt x="590" y="1288" on="1"/>
        <pt x="600" y="1341" on="1"/>
        <pt x="1146" y="1341" on="1"/>
        <pt x="1136" y="1288" on="1"/>
        <pt x="950" y="1262" on="1"/>
        <pt x="830" y="585" on="1"/>
        <pt x="994" y="585" on="0"/>
        <pt x="1173" y="746" on="0"/>
        <pt x="1206" y="926" on="1"/>
        <pt x="1280" y="1341" on="1"/>
        <pt x="1594" y="1341" on="1"/>
        <pt x="1584" y="1288" on="1"/>
        <pt x="1458" y="1262" on="1"/>
        <pt x="1399" y="931" on="1"/>
        <pt x="1358" y="705" on="0"/>
        <pt x="1080" y="506" on="0"/>
        <pt x="816" y="506" on="1"/>
      </contour>
    </TTGlyph>
    <TTGlyph name="Q" xMin="113" yMin="-332" xMax="1441" yMax="1356">
      <contour>
        <pt x="113" y="514" on="1"/>
        <pt x="113" y="755" on="0"/>
        <pt x="313" y="1146" on="0"/>
        <pt x="659" y="1356" on="0"/>
        <pt x="881" y="1356" on="1"/>
        <pt x="1042" y="1356" on="0"/>
        <pt x="1299" y="1221" on="0"/>
        <pt x="1441" y="976" on="0"/>
        <pt x="1441" y="822" on="1"/>
        <pt x="1441" y="624" on="0"/>
        <pt x="1299" y="274" on="0"/>
        <pt x="1043" y="44" on="0"/>
        <pt x="872" y="3" on="1"/>
        <pt x="957" y="-122" on="0"/>
        <pt x="1033" y="-198" on="0"/>
        <pt x="1114" y="-233" on="0"/>
        <pt x="1164" y="-233" on="1"/>
        <pt x="1247" y="-229" on="1"/>
        <pt x="1235" y="-295" on="1"/>
        <pt x="1210" y="-305" on="0"/>
        <pt x="1079" y="-332" on="0"/>
        <pt x="1032" y="-332" on="1"/>
        <pt x="930" y="-332" on="0"/>
        <pt x="792" y="-227" on="0"/>
        <pt x="695" y="-68" on="1"/>
        <pt x="665" y="-20" on="1"/>
        <pt x="505" y="-19" on="0"/>
        <pt x="252" y="118" on="0"/>
        <pt x="113" y="361" on="0"/>
      </contour>
      <contour>
        <pt x="1241" y="832" on="1"/>
        <pt x="1241" y="1032" on="0"/>
        <pt x="1036" y="1276" on="0"/>
        <pt x="868" y="1276" on="1"/>
        <pt x="719" y="1276" on="0"/>
        <pt x="470" y="1073" on="0"/>
        <pt x="313" y="695" on="0"/>
        <pt x="313" y="503" on="1"/>
        <pt x="313" y="305" on="0"/>
        <pt x="514" y="65" on="0"/>
        <pt x="680" y="65" on="1"/>
        <pt x="829" y="65" on="0"/>
        <pt x="1082" y="266" on="0"/>
        <pt x="1241" y="644" on="0"/>
      </contour>
    </TTGlyph>
    <TTGlyph name="R" xMin="-11" yMin="0" xMax="1217" yMax="1341">
      <contour>
        <pt x="444" y="588" on="1"/>
        <pt x="354" y="80" on="1"/>
        <pt x="533" y="53" on="1"/>
        <pt x="523" y="0" on="1"/>
        <pt x="-11" y="0" on="1"/>
        <pt x="-1" y="53" on="1"/>
        <pt x="161" y="80" on="1"/>
        <pt x="370" y="1262" on="1"/>
        <pt x="202" y="1288" on="1"/>
        <pt x="212" y="1341" on="1"/>
        <pt x="744" y="1341" on="1"/>
        <pt x="963" y="1341" on="0"/>
        <pt x="1193" y="1175" on="0"/>
        <pt x="1193" y="1016" on="1"/>
        <pt x="1193" y="700" on="0"/>
        <pt x="843" y="616" on="1"/>
        <pt x="1070" y="80" on="1"/>
        <pt x="1217" y="53" on="1"/>
        <pt x="1207" y="0" on="1"/>
        <pt x="899" y="0" on="1"/>
        <pt x="653" y="588" on="1"/>
      </contour>
      <contour>
        <pt x="616" y="678" on="1"/>
        <pt x="798" y="678" on="0"/>
        <pt x="995" y="851" on="0"/>
        <pt x="995" y="1010" on="1"/>
        <pt x="995" y="1251" on="0"/>
        <pt x="709" y="1251" on="1"/>
        <pt x="561" y="1251" on="1"/>
        <pt x="460" y="678" on="1"/>
      </contour>
    </TTGlyph>
    <TTGlyph name="Racute" xMin="-11" yMin="0" xMax="1217" yMax="1757">
      <component glyphName="R" x="0" y="0" flags="0x204"/>
      <component glyphName="acute" x="432" y="334" flags="0x4"/>
    </TTGlyph>
    <TTGlyph name="Rcaron" xMin="-11" yMin="0" xMax="1217" yMax="1758">
      <component glyphName="R" x="0" y="0" flags="0x204"/>
      <component glyphName="caron" x="330" y="334" flags="0x4"/>
    </TTGlyph>
    <TTGlyph name="Rho" xMin="-11" yMin="0" xMax="1199" yMax="1341">
      <component glyphName="P" x="0" y="0" flags="0x204"/>
    </TTGlyph>
    <TTGlyph name="S" xMin="24" yMin="-20" xMax="991" yMax="1356">
      <contour>
        <pt x="76" y="371" on="1"/>
        <pt x="141" y="371" on="1"/>
        <pt x="142" y="180" on="1"/>
        <pt x="175" y="130" on="0"/>
        <pt x="334" y="61" on="0"/>
        <pt x="423" y="61" on="1"/>
        <pt x="587" y="61" on="0"/>
        <pt x="764" y="216" on="0"/>
        <pt x="764" y="355" on="1"/>
        <pt x="764" y="409" on="0"/>
        <pt x="716" y="489" on="0"/>
        <pt x="636" y="553" on="0"/>
        <pt x="535" y="607" on="0"/>
        <pt x="429" y="662" on="0"/>
        <pt x="328" y="725" on="0"/>
        <pt x="248" y="808" on="0"/>
        <pt x="200" y="916" on="0"/>
        <pt x="200" y="989" on="1"/>
        <pt x="200" y="1167" on="0"/>
        <pt x="442" y="1356" on="0"/>
        <pt x="667" y="1356" on="1"/>
        <pt x="839" y="1356" on="0"/>
        <pt x="991" y="1318" on="1"/>
        <pt x="942" y="1039" on="1"/>
        <pt x="877" y="1039" on="1"/>
        <pt x="872" y="1210" on="1"/>
        <pt x="840" y="1236" on="0"/>
        <pt x="726" y="1272" on="0"/>
        <pt x="652" y="1272" on="1"/>
        <pt x="519" y="1272" on="0"/>
        <pt x="375" y="1142" on="0"/>
        <pt x="375" y="1025" on="1"/>
        <pt x="375" y="962" on="0"/>
        <pt x="465" y="858" on="0"/>
        <pt x="554" y="813" on="1"/>
        <pt x="690" y="742" on="0"/>
        <pt x="810" y="668" on="0"/>
        <pt x="891" y="584" on="0"/>
        <pt x="940" y="476" on="0"/>
        <pt x="940" y="406" on="1"/>
        <pt x="940" y="200" on="0"/>
        <pt x="671" y="-20" on="0"/>
        <pt x="417" y="-20" on="1"/>
        <pt x="291" y="-20" on="0"/>
        <pt x="90" y="31" on="0"/>
        <pt x="24" y="73" on="1"/>
      </contour>
    </TTGlyph>
    <TTGlyph name="Sacute" xMin="24" yMin="-20" xMax="1019" yMax="1757">
      <component glyphName="S" x="0" y="0" flags="0x204"/>
      <component glyphName="acute" x="309" y="334" flags="0x4"/>
    </TTGlyph>
    <TTGlyph name="Scaron" xMin="24" yMin="-20" xMax="1023" yMax="1758">
      <component glyphName="S" x="0" y="0" flags="0x204"/>
      <component glyphName="caron" x="246" y="334" flags="0x4"/>
    </TTGlyph>
    <TTGlyph name="Scedilla" xMin="24" yMin="-427" xMax="991" yMax="1356">
      <component glyphName="S" x="0" y="0" flags="0x204"/>
      <component glyphName="cedilla" x="66" y="0" flags="0x4"/>
    </TTGlyph>
    <TTGlyph name="Scircumflex" xMin="24" yMin="-20" xMax="991" yMax="1758">
      <component glyphName="S" x="0" y="0" flags="0x204"/>
      <component glyphName="circumflex" x="212" y="334" flags="0x4"/>
    </TTGlyph>
    <TTGlyph name="Scommaaccent" xMin="24" yMin="-436" xMax="991" yMax="1356">
      <component glyphName="S" x="0" y="0" flags="0x204"/>
      <component glyphName="uni0326" x="195" y="0" flags="0x4"/>
    </TTGlyph>
    <TTGlyph name="Sigma" xMin="-4" yMin="0" xMax="1185" yMax="1341">
      <contour>
        <pt x="736" y="728" on="1"/>
        <pt x="729" y="688" on="1"/>
        <pt x="232" y="170" on="1"/>
        <pt x="484" y="170" on="1"/>
        <pt x="586" y="170" on="0"/>
        <pt x="881" y="179" on="0"/>
        <pt x="917" y="186" on="1"/>
        <pt x="1011" y="374" on="1"/>
        <pt x="1077" y="374" on="1"/>
        <pt x="985" y="0" on="1"/>
        <pt x="-4" y="0" on="1"/>
        <pt x="10" y="74" on="1"/>
        <pt x="559" y="646" on="1"/>
        <pt x="248" y="1262" on="1"/>
        <pt x="264" y="1341" on="1"/>
        <pt x="1185" y="1341" on="1"/>
        <pt x="1122" y="1020" on="1"/>
        <pt x="1056" y="1020" on="1"/>
        <pt x="1057" y="1237" on="1"/>
        <pt x="949" y="1251" on="0"/>
        <pt x="753" y="1251" on="1"/>
        <pt x="472" y="1251" on="1"/>
      </contour>
    </TTGlyph>
    <TTGlyph name="T" xMin="134" yMin="0" xMax="1260" yMax="1341">
      <contour>
        <pt x="176" y="0" on="1"/>
        <pt x="186" y="53" on="1"/>
        <pt x="403" y="80" on="1"/>
        <pt x="610" y="1255" on="1"/>
        <pt x="559" y="1255" on="1"/>
        <pt x="360" y="1255" on="0"/>
        <pt x="265" y="1235" on="1"/>
        <pt x="201" y="1026" on="1"/>
        <pt x="134" y="1026" on="1"/>
        <pt x="190" y="1341" on="1"/>
        <pt x="1260" y="1341" on="1"/>
        <pt x="1204" y="1026" on="1"/>
        <pt x="1136" y="1026" on="1"/>
        <pt x="1146" y="1235" on="1"/>
        <pt x="1056" y="1253" on="0"/>
        <pt x="852" y="1253" on="1"/>
        <pt x="803" y="1253" on="1"/>
        <pt x="596" y="80" on="1"/>
        <pt x="805" y="53" on="1"/>
        <pt x="795" y="0" on="1"/>
      </contour>
    </TTGlyph>
    <TTGlyph name="Tau" xMin="134" yMin="0" xMax="1260" yMax="1341">
      <component glyphName="T" x="0" y="0" flags="0x204"/>
    </TTGlyph>
    <TTGlyph name="Tbar" xMin="134" yMin="0" xMax="1260" yMax="1341">
      <contour>
        <pt x="176" y="0" on="1"/>
        <pt x="186" y="53" on="1"/>
        <pt x="403" y="80" on="1"/>
        <pt x="499" y="629" on="1"/>
        <pt x="178" y="629" on="1"/>
        <pt x="193" y="711" on="1"/>
        <pt x="514" y="711" on="1"/>
        <pt x="610" y="1255" on="1"/>
        <pt x="559" y="1255" on="1"/>
        <pt x="360" y="1255" on="0"/>
        <pt x="265" y="1235" on="1"/>
        <pt x="201" y="1026" on="1"/>
        <pt x="134" y="1026" on="1"/>
        <pt x="190" y="1341" on="1"/>
        <pt x="1260" y="1341" on="1"/>
        <pt x="1204" y="1026" on="1"/>
        <pt x="1136" y="1026" on="1"/>
        <pt x="1146" y="1235" on="1"/>
        <pt x="1056" y="1253" on="0"/>
        <pt x="852" y="1253" on="1"/>
        <pt x="803" y="1253" on="1"/>
        <pt x="707" y="711" on="1"/>
        <pt x="1031" y="711" on="1"/>
        <pt x="1016" y="629" on="1"/>
        <pt x="693" y="629" on="1"/>
        <pt x="596" y="80" on="1"/>
        <pt x="805" y="53" on="1"/>
        <pt x="795" y="0" on="1"/>
      </contour>
    </TTGlyph>
    <TTGlyph name="Tcaron" xMin="134" yMin="0" xMax="1260" yMax="1758">
      <component glyphName="T" x="0" y="0" flags="0x204"/>
      <component glyphName="caron" x="311" y="334" flags="0x4"/>
    </TTGlyph>
    <TTGlyph name="Theta" xMin="103" yMin="-20" xMax="1431" yMax="1356">
      <contour>
        <pt x="575" y="610" on="1"/>
        <pt x="516" y="468" on="1"/>
        <pt x="452" y="468" on="1"/>
        <pt x="533" y="880" on="1"/>
        <pt x="597" y="880" on="1"/>
        <pt x="600" y="740" on="1"/>
        <pt x="962" y="740" on="1"/>
        <pt x="1021" y="880" on="1"/>
        <pt x="1085" y="880" on="1"/>
        <pt x="1004" y="468" on="1"/>
        <pt x="940" y="468" on="1"/>
        <pt x="937" y="610" on="1"/>
      </contour>
      <contour>
        <pt x="1231" y="832" on="1"/>
        <pt x="1231" y="1032" on="0"/>
        <pt x="1026" y="1276" on="0"/>
        <pt x="858" y="1276" on="1"/>
        <pt x="709" y="1276" on="0"/>
        <pt x="460" y="1073" on="0"/>
        <pt x="303" y="695" on="0"/>
        <pt x="303" y="503" on="1"/>
        <pt x="303" y="305" on="0"/>
        <pt x="504" y="65" on="0"/>
        <pt x="670" y="65" on="1"/>
        <pt x="819" y="65" on="0"/>
        <pt x="1072" y="266" on="0"/>
        <pt x="1231" y="644" on="0"/>
      </contour>
      <contour>
        <pt x="663" y="-20" on="1"/>
        <pt x="502" y="-20" on="0"/>
        <pt x="245" y="115" on="0"/>
        <pt x="103" y="361" on="0"/>
        <pt x="103" y="514" on="1"/>
        <pt x="103" y="755" on="0"/>
        <pt x="303" y="1146" on="0"/>
        <pt x="649" y="1356" on="0"/>
        <pt x="871" y="1356" on="1"/>
        <pt x="1032" y="1356" on="0"/>
        <pt x="1289" y="1221" on="0"/>
        <pt x="1431" y="976" on="0"/>
        <pt x="1431" y="822" on="1"/>
        <pt x="1431" y="585" on="0"/>
        <pt x="1230" y="187" on="0"/>
        <pt x="885" y="-20" on="0"/>
      </contour>
    </TTGlyph>
    <TTGlyph name="Thorn" xMin="-11" yMin="0" xMax="1153" yMax="1341">
      <contour>
        <pt x="566" y="358" on="1"/>
        <pt x="954" y="358" on="0"/>
        <pt x="954" y="715" on="1"/>
        <pt x="954" y="858" on="0"/>
        <pt x="809" y="993" on="0"/>
        <pt x="663" y="993" on="1"/>
        <pt x="515" y="993" on="1"/>
        <pt x="403" y="358" on="1"/>
      </contour>
      <contour>
        <pt x="703" y="1083" on="1"/>
        <pt x="919" y="1083" on="0"/>
        <pt x="1153" y="904" on="0"/>
        <pt x="1153" y="728" on="1"/>
        <pt x="1153" y="504" on="0"/>
        <pt x="860" y="268" on="0"/>
        <pt x="588" y="268" on="1"/>
        <pt x="387" y="268" on="1"/>
        <pt x="354" y="80" on="1"/>
        <pt x="573" y="53" on="1"/>
        <pt x="563" y="0" on="1"/>
        <pt x="-11" y="0" on="1"/>
        <pt x="-1" y="53" on="1"/>
        <pt x="161" y="80" on="1"/>
        <pt x="370" y="1262" on="1"/>
        <pt x="215" y="1288" on="1"/>
        <pt x="225" y="1341" on="1"/>
        <pt x="749" y="1341" on="1"/>
        <pt x="739" y="1288" on="1"/>
        <pt x="563" y="1262" on="1"/>
        <pt x="531" y="1083" on="1"/>
      </contour>
    </TTGlyph>
    <TTGlyph name="U" xMin="188" yMin="-20" xMax="1590" yMax="1341">
      <contour>
        <pt x="1299" y="1262" on="1"/>
        <pt x="1124" y="1288" on="1"/>
        <pt x="1133" y="1341" on="1"/>
        <pt x="1590" y="1341" on="1"/>
        <pt x="1581" y="1288" on="1"/>
        <pt x="1404" y="1262" on="1"/>
        <pt x="1263" y="461" on="1"/>
        <pt x="1223" y="232" on="0"/>
        <pt x="915" y="-20" on="0"/>
        <pt x="679" y="-20" on="1"/>
        <pt x="446" y="-20" on="0"/>
        <pt x="202" y="169" on="0"/>
        <pt x="202" y="348" on="1"/>
        <pt x="202" y="403" on="0"/>
        <pt x="212" y="453" on="1"/>
        <pt x="355" y="1262" on="1"/>
        <pt x="188" y="1288" on="1"/>
        <pt x="197" y="1341" on="1"/>
        <pt x="733" y="1341" on="1"/>
        <pt x="724" y="1288" on="1"/>
        <pt x="547" y="1262" on="1"/>
        <pt x="406" y="457" on="1"/>
        <pt x="396" y="403" on="0"/>
        <pt x="396" y="355" on="1"/>
        <pt x="396" y="92" on="0"/>
        <pt x="696" y="92" on="1"/>
        <pt x="887" y="92" on="0"/>
        <pt x="1128" y="282" on="0"/>
        <pt x="1157" y="453" on="1"/>
      </contour>
    </TTGlyph>
    <TTGlyph name="UNI2206" xMin="-68" yMin="0" xMax="1108" yMax="1352">
      <component glyphName="Delta" x="0" y="0" flags="0x204"/>
    </TTGlyph>
    <TTGlyph name="Uacute" xMin="188" yMin="-20" xMax="1590" yMax="1757">
      <component glyphName="U" x="0" y="0" flags="0x204"/>
      <component glyphName="acute" x="573" y="334" flags="0x4"/>
    </TTGlyph>
    <TTGlyph name="Ubreve" xMin="188" yMin="-20" xMax="1590" yMax="1733">
      <component glyphName="U" x="0" y="0" flags="0x204"/>
      <component glyphName="breve" x="462" y="334" flags="0x4"/>
    </TTGlyph>
    <TTGlyph name="Ucircumflex" xMin="188" yMin="-20" xMax="1590" yMax="1758">
      <component glyphName="U" x="0" y="0" flags="0x204"/>
      <component glyphName="circumflex" x="488" y="334" flags="0x4"/>
    </TTGlyph>
    <TTGlyph name="Udieresis" xMin="188" yMin="-20" xMax="1590" yMax="1696">
      <component glyphName="U" x="0" y="0" flags="0x204"/>
      <component glyphName="dieresis" x="500" y="365" flags="0x4"/>
    </TTGlyph>
    <TTGlyph name="Ugrave" xMin="188" yMin="-20" xMax="1590" yMax="1757">
      <component glyphName="U" x="0" y="0" flags="0x204"/>
      <component glyphName="grave" x="361" y="334" flags="0x4"/>
    </TTGlyph>
    <TTGlyph name="Uhorn" xMin="188" yMin="-20" xMax="1735" yMax="1463">
      <contour>
        <pt x="1418" y="1341" on="1"/>
        <pt x="1363" y="1030" on="1"/>
        <pt x="1459" y="1055" on="0"/>
        <pt x="1582" y="1142" on="0"/>
        <pt x="1582" y="1191" on="1"/>
        <pt x="1582" y="1213" on="0"/>
        <pt x="1548" y="1241" on="0"/>
        <pt x="1508" y="1269" on="0"/>
        <pt x="1474" y="1306" on="0"/>
        <pt x="1474" y="1338" on="1"/>
        <pt x="1474" y="1395" on="0"/>
        <pt x="1546" y="1463" on="0"/>
        <pt x="1601" y="1463" on="1"/>
        <pt x="1658" y="1463" on="0"/>
        <pt x="1735" y="1395" on="0"/>
        <pt x="1735" y="1319" on="1"/>
        <pt x="1735" y="1246" on="0"/>
        <pt x="1639" y="1095" on="0"/>
        <pt x="1482" y="990" on="0"/>
        <pt x="1349" y="950" on="1"/>
        <pt x="1263" y="461" on="1"/>
        <pt x="1223" y="232" on="0"/>
        <pt x="915" y="-20" on="0"/>
        <pt x="679" y="-20" on="1"/>
        <pt x="444" y="-20" on="0"/>
        <pt x="202" y="168" on="0"/>
        <pt x="202" y="348" on="1"/>
        <pt x="202" y="403" on="0"/>
        <pt x="212" y="453" on="1"/>
        <pt x="355" y="1262" on="1"/>
        <pt x="188" y="1288" on="1"/>
        <pt x="197" y="1341" on="1"/>
        <pt x="733" y="1341" on="1"/>
        <pt x="724" y="1288" on="1"/>
        <pt x="547" y="1262" on="1"/>
        <pt x="406" y="457" on="1"/>
        <pt x="396" y="403" on="0"/>
        <pt x="396" y="355" on="1"/>
        <pt x="396" y="92" on="0"/>
        <pt x="696" y="92" on="1"/>
        <pt x="887" y="92" on="0"/>
        <pt x="1128" y="282" on="0"/>
        <pt x="1157" y="453" on="1"/>
        <pt x="1299" y="1262" on="1"/>
        <pt x="1124" y="1288" on="1"/>
        <pt x="1133" y="1341" on="1"/>
      </contour>
    </TTGlyph>
    <TTGlyph name="Umacron" xMin="188" yMin="-20" xMax="1590" yMax="1604">
      <component glyphName="U" x="0" y="0" flags="0x204"/>
      <component glyphName="uni02C9" x="478" y="334" flags="0x4"/>
    </TTGlyph>
    <TTGlyph name="Uogonek" xMin="188" yMin="-403" xMax="1590" yMax="1341">
      <component glyphName="U" x="0" y="0" flags="0x204"/>
      <component glyphName="ogonek" x="434" y="0" flags="0x4"/>
    </TTGlyph>
    <TTGlyph name="Upsilon" xMin="117" yMin="0" xMax="1321" yMax="1341">
      <component glyphName="Y" x="0" y="0" flags="0x204"/>
    </TTGlyph>
    <TTGlyph name="Upsilondieresis" xMin="117" yMin="0" xMax="1321" yMax="1696">
      <component glyphName="Y" x="0" y="0" flags="0x204"/>
      <component glyphName="dieresis" x="299" y="365" flags="0x4"/>
    </TTGlyph>
    <TTGlyph name="Upsilontonos" xMin="-24" yMin="0" xMax="1534" yMax="1342">
      <component glyphName="Y" x="213" y="0" flags="0x4"/>
      <component glyphName="tonos" x="-272" y="-101" flags="0x4"/>
    </TTGlyph>
    <TTGlyph name="Uring" xMin="188" yMin="-20" xMax="1590" yMax="1814">
      <component glyphName="U" x="0" y="0" flags="0x204"/>
      <component glyphName="ring" x="474" y="334" flags="0x4"/>
    </TTGlyph>
    <TTGlyph name="Utilde" xMin="188" yMin="-20" xMax="1590" yMax="1715">
      <component glyphName="U" x="0" y="0" flags="0x204"/>
      <component glyphName="tilde" x="480" y="334" flags="0x4"/>
    </TTGlyph>
    <TTGlyph name="V" xMin="107" yMin="-31" xMax="1448" yMax="1341">
      <contour>
        <pt x="1448" y="1341" on="1"/>
        <pt x="1438" y="1288" on="1"/>
        <pt x="1307" y="1262" on="1"/>
        <pt x="580" y="-31" on="1"/>
        <pt x="529" y="-31" on="1"/>
        <pt x="234" y="1262" on="1"/>
        <pt x="107" y="1288" on="1"/>
        <pt x="117" y="1341" on="1"/>
        <pt x="610" y="1341" on="1"/>
        <pt x="600" y="1288" on="1"/>
        <pt x="431" y="1262" on="1"/>
        <pt x="649" y="283" on="1"/>
        <pt x="1186" y="1262" on="1"/>
        <pt x="1034" y="1288" on="1"/>
        <pt x="1045" y="1341" on="1"/>
      </contour>
    </TTGlyph>
    <TTGlyph name="W" xMin="135" yMin="-31" xMax="1861" yMax="1341">
      <contour>
        <pt x="1135" y="-31" on="1"/>
        <pt x="1072" y="-31" on="1"/>
        <pt x="926" y="867" on="1"/>
        <pt x="508" y="-31" on="1"/>
        <pt x="443" y="-31" on="1"/>
        <pt x="248" y="1262" on="1"/>
        <pt x="135" y="1288" on="1"/>
        <pt x="144" y="1341" on="1"/>
        <pt x="611" y="1341" on="1"/>
        <pt x="602" y="1288" on="1"/>
        <pt x="441" y="1262" on="1"/>
        <pt x="581" y="326" on="1"/>
        <pt x="1007" y="1247" on="1"/>
        <pt x="1053" y="1247" on="1"/>
        <pt x="1204" y="324" on="1"/>
        <pt x="1623" y="1262" on="1"/>
        <pt x="1458" y="1288" on="1"/>
        <pt x="1467" y="1341" on="1"/>
        <pt x="1861" y="1341" on="1"/>
        <pt x="1852" y="1288" on="1"/>
        <pt x="1731" y="1262" on="1"/>
      </contour>
    </TTGlyph>
    <TTGlyph name="Wacute" xMin="135" yMin="-31" xMax="1861" yMax="1757">
      <component glyphName="W" x="0" y="0" flags="0x204"/>
      <component glyphName="acute" x="670" y="334" flags="0x4"/>
    </TTGlyph>
    <TTGlyph name="Wcircumflex" xMin="135" yMin="-31" xMax="1861" yMax="1758">
      <component glyphName="W" x="0" y="0" flags="0x204"/>
      <component glyphName="circumflex" x="587" y="334" flags="0x4"/>
    </TTGlyph>
    <TTGlyph name="Wdieresis" xMin="135" yMin="-31" xMax="1861" yMax="1665">
      <component glyphName="W" x="0" y="0" flags="0x204"/>
      <component glyphName="dieresis" x="575" y="334" flags="0x4"/>
    </TTGlyph>
    <TTGlyph name="Wgrave" xMin="135" yMin="-31" xMax="1861" yMax="1757">
      <component glyphName="W" x="0" y="0" flags="0x204"/>
      <component glyphName="grave" x="498" y="334" flags="0x4"/>
    </TTGlyph>
    <TTGlyph name="X" xMin="-68" yMin="0" xMax="1317" yMax="1341">
      <contour>
        <pt x="751" y="753" on="1"/>
        <pt x="990" y="80" on="1"/>
        <pt x="1138" y="53" on="1"/>
        <pt x="1128" y="0" on="1"/>
        <pt x="615" y="0" on="1"/>
        <pt x="625" y="53" on="1"/>
        <pt x="789" y="80" on="1"/>
        <pt x="614" y="587" on="1"/>
        <pt x="217" y="80" on="1"/>
        <pt x="379" y="53" on="1"/>
        <pt x="369" y="0" on="1"/>
        <pt x="-68" y="0" on="1"/>
        <pt x="-58" y="53" on="1"/>
        <pt x="93" y="80" on="1"/>
        <pt x="573" y="686" on="1"/>
        <pt x="369" y="1262" on="1"/>
        <pt x="222" y="1288" on="1"/>
        <pt x="232" y="1341" on="1"/>
        <pt x="725" y="1341" on="1"/>
        <pt x="715" y="1288" on="1"/>
        <pt x="571" y="1262" on="1"/>
        <pt x="711" y="853" on="1"/>
        <pt x="1030" y="1262" on="1"/>
        <pt x="898" y="1288" on="1"/>
        <pt x="908" y="1341" on="1"/>
        <pt x="1317" y="1341" on="1"/>
        <pt x="1307" y="1288" on="1"/>
        <pt x="1155" y="1262" on="1"/>
      </contour>
    </TTGlyph>
    <TTGlyph name="Xi" xMin="33" yMin="0" xMax="1301" yMax="1341">
      <contour>
        <pt x="681" y="170" on="1"/>
        <pt x="937" y="170" on="0"/>
        <pt x="1022" y="186" on="1"/>
        <pt x="1116" y="374" on="1"/>
        <pt x="1182" y="374" on="1"/>
        <pt x="1090" y="0" on="1"/>
        <pt x="33" y="0" on="1"/>
        <pt x="86" y="374" on="1"/>
        <pt x="152" y="374" on="1"/>
        <pt x="172" y="186" on="1"/>
        <pt x="210" y="179" on="0"/>
        <pt x="448" y="170" on="0"/>
        <pt x="534" y="170" on="1"/>
      </contour>
      <contour>
        <pt x="735" y="1181" on="1"/>
        <pt x="520" y="1181" on="0"/>
        <pt x="408" y="1167" on="1"/>
        <pt x="325" y="1010" on="1"/>
        <pt x="259" y="1010" on="1"/>
        <pt x="344" y="1341" on="1"/>
        <pt x="1301" y="1341" on="1"/>
        <pt x="1256" y="1010" on="1"/>
        <pt x="1190" y="1010" on="1"/>
        <pt x="1169" y="1167" on="1"/>
        <pt x="1060" y="1181" on="0"/>
        <pt x="848" y="1181" on="1"/>
      </contour>
      <contour>
        <pt x="472" y="610" on="1"/>
        <pt x="413" y="468" on="1"/>
        <pt x="349" y="468" on="1"/>
        <pt x="429" y="880" on="1"/>
        <pt x="493" y="880" on="1"/>
        <pt x="497" y="740" on="1"/>
        <pt x="913" y="740" on="1"/>
        <pt x="971" y="880" on="1"/>
        <pt x="1035" y="880" on="1"/>
        <pt x="955" y="468" on="1"/>
        <pt x="891" y="468" on="1"/>
        <pt x="888" y="610" on="1"/>
      </contour>
    </TTGlyph>
    <TTGlyph name="Y" xMin="117" yMin="0" xMax="1321" yMax="1341">
      <contour>
        <pt x="609" y="80" on="1"/>
        <pt x="818" y="53" on="1"/>
        <pt x="808" y="0" on="1"/>
        <pt x="189" y="0" on="1"/>
        <pt x="199" y="53" on="1"/>
        <pt x="416" y="80" on="1"/>
        <pt x="494" y="522" on="1"/>
        <pt x="264" y="1262" on="1"/>
        <pt x="117" y="1288" on="1"/>
        <pt x="127" y="1341" on="1"/>
        <pt x="674" y="1341" on="1"/>
        <pt x="664" y="1288" on="1"/>
        <pt x="470" y="1262" on="1"/>
        <pt x="658" y="635" on="1"/>
        <pt x="1051" y="1262" on="1"/>
        <pt x="875" y="1288" on="1"/>
        <pt x="885" y="1341" on="1"/>
        <pt x="1321" y="1341" on="1"/>
        <pt x="1311" y="1288" on="1"/>
        <pt x="1160" y="1262" on="1"/>
        <pt x="688" y="528" on="1"/>
      </contour>
    </TTGlyph>
    <TTGlyph name="Yacute" xMin="117" yMin="0" xMax="1321" yMax="1757">
      <component glyphName="Y" x="0" y="0" flags="0x204"/>
      <component glyphName="acute" x="390" y="334" flags="0x4"/>
    </TTGlyph>
    <TTGlyph name="Ycircumflex" xMin="117" yMin="0" xMax="1321" yMax="1758">
      <component glyphName="Y" x="0" y="0" flags="0x204"/>
      <component glyphName="circumflex" x="326" y="334" flags="0x4"/>
    </TTGlyph>
    <TTGlyph name="Ydieresis" xMin="117" yMin="0" xMax="1321" yMax="1696">
      <component glyphName="Y" x="0" y="0" flags="0x204"/>
      <component glyphName="dieresis" x="299" y="365" flags="0x4"/>
    </TTGlyph>
    <TTGlyph name="Ygrave" xMin="117" yMin="0" xMax="1321" yMax="1757">
      <component glyphName="Y" x="0" y="0" flags="0x204"/>
      <component glyphName="grave" x="239" y="334" flags="0x4"/>
    </TTGlyph>
    <TTGlyph name="Z" xMin="25" yMin="0" xMax="1156" yMax="1341">
      <contour>
        <pt x="907" y="1255" on="1"/>
        <pt x="707" y="1255" on="1"/>
        <pt x="459" y="1255" on="0"/>
        <pt x="364" y="1235" on="1"/>
        <pt x="296" y="1024" on="1"/>
        <pt x="227" y="1024" on="1"/>
        <pt x="283" y="1341" on="1"/>
        <pt x="1156" y="1341" on="1"/>
        <pt x="1140" y="1255" on="1"/>
        <pt x="267" y="84" on="1"/>
        <pt x="507" y="84" on="1"/>
        <pt x="626" y="84" on="0"/>
        <pt x="873" y="107" on="0"/>
        <pt x="917" y="117" on="1"/>
        <pt x="1021" y="373" on="1"/>
        <pt x="1091" y="373" on="1"/>
        <pt x="998" y="0" on="1"/>
        <pt x="25" y="0" on="1"/>
        <pt x="42" y="94" on="1"/>
      </contour>
    </TTGlyph>
    <TTGlyph name="Zacute" xMin="25" yMin="0" xMax="1156" yMax="1757">
      <component glyphName="Z" x="0" y="0" flags="0x204"/>
      <component glyphName="acute" x="332" y="334" flags="0x4"/>
    </TTGlyph>
    <TTGlyph name="Zcaron" xMin="25" yMin="0" xMax="1156" yMax="1758">
      <component glyphName="Z" x="0" y="0" flags="0x204"/>
      <component glyphName="caron" x="295" y="334" flags="0x4"/>
    </TTGlyph>
    <TTGlyph name="Zeta" xMin="25" yMin="0" xMax="1156" yMax="1341">
      <component glyphName="Z" x="0" y="0" flags="0x204"/>
    </TTGlyph>
    <TTGlyph name="a" xMin="61" yMin="-21" xMax="947" yMax="964">
      <contour>
        <pt x="789" y="70" on="1"/>
        <pt x="902" y="45" on="1"/>
        <pt x="894" y="0" on="1"/>
        <pt x="609" y="0" on="1"/>
        <pt x="638" y="156" on="1"/>
        <pt x="469" y="-21" on="0"/>
        <pt x="329" y="-21" on="1"/>
        <pt x="208" y="-21" on="0"/>
        <pt x="61" y="157" on="0"/>
        <pt x="61" y="313" on="1"/>
        <pt x="61" y="488" on="0"/>
        <pt x="214" y="793" on="0"/>
        <pt x="470" y="964" on="0"/>
        <pt x="620" y="964" on="1"/>
        <pt x="741" y="964" on="0"/>
        <pt x="848" y="922" on="1"/>
        <pt x="893" y="956" on="1"/>
        <pt x="947" y="956" on="1"/>
      </contour>
      <contour>
        <pt x="760" y="837" on="1"/>
        <pt x="721" y="864" on="0"/>
        <pt x="653" y="885" on="0"/>
        <pt x="603" y="885" on="1"/>
        <pt x="503" y="885" on="0"/>
        <pt x="336" y="734" on="0"/>
        <pt x="240" y="478" on="0"/>
        <pt x="240" y="339" on="1"/>
        <pt x="240" y="232" on="0"/>
        <pt x="328" y="104" on="0"/>
        <pt x="404" y="104" on="1"/>
        <pt x="517" y="104" on="0"/>
        <pt x="651" y="243" on="1"/>
      </contour>
    </TTGlyph>
    <TTGlyph name="aacute" xMin="61" yMin="-21" xMax="978" yMax="1423">
      <component glyphName="a" x="0" y="0" flags="0x204"/>
      <component glyphName="acute" x="268" y="0" flags="0x4"/>
    </TTGlyph>
    <TTGlyph name="abreve" xMin="61" yMin="-21" xMax="956" yMax="1399">
      <component glyphName="a" x="0" y="0" flags="0x204"/>
      <component glyphName="breve" x="155" y="0" flags="0x4"/>
    </TTGlyph>
    <TTGlyph name="acircumflex" xMin="61" yMin="-21" xMax="947" yMax="1424">
      <component glyphName="a" x="0" y="0" flags="0x204"/>
      <component glyphName="circumflex" x="171" y="0" flags="0x4"/>
    </TTGlyph>
    <TTGlyph name="acute" xMin="248" yMin="1118" xMax="710" yMax="1423">
      <contour>
        <pt x="248" y="1118" on="1"/>
        <pt x="253" y="1151" on="1"/>
        <pt x="497" y="1423" on="1"/>
        <pt x="710" y="1423" on="1"/>
        <pt x="704" y="1386" on="1"/>
        <pt x="303" y="1118" on="1"/>
      </contour>
    </TTGlyph>
    <TTGlyph name="acute.alt1" xMin="248" yMin="1118" xMax="710" yMax="1423">
      <component glyphName="acute" x="0" y="0" flags="0x4"/>
    </TTGlyph>
    <TTGlyph name="acute.alt2" xMin="248" yMin="1118" xMax="710" yMax="1423">
      <component glyphName="acute" x="0" y="0" flags="0x4"/>
    </TTGlyph>
    <TTGlyph name="acute.alt3" xMin="248" yMin="1118" xMax="710" yMax="1423">
      <component glyphName="acute" x="0" y="0" flags="0x4"/>
    </TTGlyph>
    <TTGlyph name="acute.alt4" xMin="248" yMin="1118" xMax="710" yMax="1423">
      <component glyphName="acute" x="0" y="0" flags="0x4"/>
    </TTGlyph>
    <TTGlyph name="acute.alt5" xMin="248" yMin="1118" xMax="710" yMax="1423">
      <component glyphName="acute" x="0" y="0" flags="0x4"/>
    </TTGlyph>
    <TTGlyph name="acutecomb" xMin="-443" yMin="1520" xMax="19" yMax="1825">
      <contour>
        <pt x="-443" y="1520" on="1"/>
        <pt x="-438" y="1553" on="1"/>
        <pt x="-194" y="1825" on="1"/>
        <pt x="19" y="1825" on="1"/>
        <pt x="13" y="1788" on="1"/>
        <pt x="-388" y="1520" on="1"/>
      </contour>
    </TTGlyph>
    <TTGlyph name="adieresis" xMin="61" yMin="-21" xMax="947" yMax="1331">
      <component glyphName="a" x="0" y="0" flags="0x204"/>
      <component glyphName="dieresis" x="177" y="0" flags="0x4"/>
    </TTGlyph>
    <TTGlyph name="ae" xMin="63" yMin="-21" xMax="1320" yMax="965">
      <contour>
        <pt x="1320" y="771" on="1"/>
        <pt x="1320" y="680" on="0"/>
        <pt x="1187" y="526" on="0"/>
        <pt x="936" y="425" on="0"/>
        <pt x="779" y="413" on="1"/>
        <pt x="771" y="359" on="0"/>
        <pt x="771" y="296" on="1"/>
        <pt x="771" y="84" on="0"/>
        <pt x="956" y="84" on="1"/>
        <pt x="1077" y="84" on="0"/>
        <pt x="1217" y="184" on="1"/>
        <pt x="1246" y="142" on="1"/>
        <pt x="1060" y="-20" on="0"/>
        <pt x="890" y="-20" on="1"/>
        <pt x="787" y="-20" on="0"/>
        <pt x="663" y="58" on="0"/>
        <pt x="621" y="147" on="1"/>
        <pt x="541" y="69" on="0"/>
        <pt x="373" y="-21" on="0"/>
        <pt x="304" y="-21" on="1"/>
        <pt x="198" y="-21" on="0"/>
        <pt x="63" y="166" on="0"/>
        <pt x="63" y="317" on="1"/>
        <pt x="63" y="489" on="0"/>
        <pt x="211" y="793" on="0"/>
        <pt x="466" y="964" on="0"/>
        <pt x="618" y="964" on="1"/>
        <pt x="680" y="964" on="0"/>
        <pt x="800" y="921" on="0"/>
        <pt x="841" y="891" on="1"/>
        <pt x="934" y="965" on="0"/>
        <pt x="1077" y="965" on="1"/>
        <pt x="1192" y="965" on="0"/>
        <pt x="1320" y="860" on="0"/>
      </contour>
      <contour>
        <pt x="391" y="104" on="1"/>
        <pt x="437" y="104" on="0"/>
        <pt x="551" y="166" on="0"/>
        <pt x="603" y="216" on="1"/>
        <pt x="595" y="272" on="0"/>
        <pt x="595" y="309" on="1"/>
        <pt x="595" y="604" on="0"/>
        <pt x="767" y="819" on="1"/>
        <pt x="678" y="885" on="0"/>
        <pt x="591" y="885" on="1"/>
        <pt x="500" y="885" on="0"/>
        <pt x="339" y="725" on="0"/>
        <pt x="241" y="465" on="0"/>
        <pt x="241" y="335" on="1"/>
        <pt x="241" y="225" on="0"/>
        <pt x="323" y="104" on="0"/>
      </contour>
      <contour>
        <pt x="1145" y="774" on="1"/>
        <pt x="1145" y="827" on="0"/>
        <pt x="1096" y="888" on="0"/>
        <pt x="1048" y="888" on="1"/>
        <pt x="957" y="888" on="0"/>
        <pt x="822" y="672" on="0"/>
        <pt x="789" y="476" on="1"/>
        <pt x="960" y="493" on="0"/>
        <pt x="1145" y="651" on="0"/>
      </contour>
    </TTGlyph>
    <TTGlyph name="aeacute" xMin="63" yMin="-21" xMax="1320" yMax="1423">
      <component glyphName="ae" x="0" y="0" flags="0x204"/>
      <component glyphName="acute" x="440" y="0" flags="0x4"/>
    </TTGlyph>
    <TTGlyph name="agrave" xMin="61" yMin="-21" xMax="947" yMax="1423">
      <component glyphName="a" x="0" y="0" flags="0x204"/>
      <component glyphName="grave" x="110" y="0" flags="0x4"/>
    </TTGlyph>
    <TTGlyph name="alef" xMin="25" yMin="-27" xMax="1262" yMax="1212">
      <contour>
        <pt x="709" y="674" on="1"/>
        <pt x="860" y="857" on="0"/>
        <pt x="1030" y="967" on="1"/>
        <pt x="981" y="967" on="0"/>
        <pt x="928" y="1009" on="0"/>
        <pt x="928" y="1057" on="1"/>
        <pt x="928" y="1088" on="0"/>
        <pt x="963" y="1156" on="0"/>
        <pt x="1013" y="1204" on="0"/>
        <pt x="1030" y="1204" on="1"/>
        <pt x="1036" y="1204" on="0"/>
        <pt x="1036" y="1196" on="1"/>
        <pt x="1032" y="1159" on="1"/>
        <pt x="1032" y="1130" on="0"/>
        <pt x="1075" y="1130" on="1"/>
        <pt x="1167" y="1133" on="1"/>
        <pt x="1212" y="1133" on="0"/>
        <pt x="1262" y="1082" on="0"/>
        <pt x="1262" y="1040" on="1"/>
        <pt x="1262" y="982" on="0"/>
        <pt x="1221" y="930" on="1"/>
        <pt x="1188" y="967" on="0"/>
        <pt x="1159" y="967" on="1"/>
        <pt x="1104" y="967" on="0"/>
        <pt x="861" y="729" on="0"/>
        <pt x="772" y="586" on="1"/>
        <pt x="1024" y="238" on="1"/>
        <pt x="1069" y="179" on="0"/>
        <pt x="1069" y="129" on="1"/>
        <pt x="1069" y="94" on="0"/>
        <pt x="1035" y="26" on="0"/>
        <pt x="982" y="-27" on="0"/>
        <pt x="971" y="-27" on="1"/>
        <pt x="958" y="-27" on="0"/>
        <pt x="958" y="-4" on="1"/>
        <pt x="958" y="29" on="0"/>
        <pt x="868" y="154" on="1"/>
        <pt x="451" y="731" on="1"/>
        <pt x="358" y="674" on="0"/>
        <pt x="266" y="548" on="0"/>
        <pt x="266" y="471" on="1"/>
        <pt x="266" y="424" on="0"/>
        <pt x="301" y="341" on="0"/>
        <pt x="342" y="261" on="0"/>
        <pt x="377" y="178" on="0"/>
        <pt x="377" y="131" on="1"/>
        <pt x="377" y="72" on="0"/>
        <pt x="338" y="0" on="1"/>
        <pt x="25" y="0" on="1"/>
        <pt x="35" y="63" on="1"/>
        <pt x="141" y="63" on="1"/>
        <pt x="160" y="63" on="0"/>
        <pt x="195" y="89" on="0"/>
        <pt x="195" y="123" on="1"/>
        <pt x="195" y="145" on="0"/>
        <pt x="176" y="201" on="0"/>
        <pt x="152" y="268" on="0"/>
        <pt x="133" y="349" on="0"/>
        <pt x="133" y="397" on="1"/>
        <pt x="133" y="497" on="0"/>
        <pt x="247" y="677" on="0"/>
        <pt x="350" y="741" on="1"/>
        <pt x="414" y="780" on="1"/>
        <pt x="303" y="934" on="1"/>
        <pt x="268" y="985" on="0"/>
        <pt x="268" y="1047" on="1"/>
        <pt x="268" y="1085" on="0"/>
        <pt x="300" y="1160" on="0"/>
        <pt x="348" y="1212" on="0"/>
        <pt x="362" y="1212" on="1"/>
        <pt x="371" y="1212" on="0"/>
        <pt x="371" y="1192" on="1"/>
        <pt x="371" y="1155" on="0"/>
        <pt x="433" y="1047" on="0"/>
        <pt x="492" y="969" on="1"/>
      </contour>
    </TTGlyph>
    <TTGlyph name="alefdagesh" xMin="25" yMin="-27" xMax="1262" yMax="1212">
      <component glyphName="alef" x="0" y="0" flags="0x204"/>
      <component glyphName="dagesh" x="569" y="-540" flags="0x4"/>
    </TTGlyph>
    <TTGlyph name="aleflamed" xMin="131" yMin="-27" xMax="1239" yMax="1681">
      <contour>
        <pt x="197" y="952" on="1"/>
        <pt x="131" y="952" on="0"/>
        <pt x="131" y="1055" on="1"/>
        <pt x="131" y="1138" on="0"/>
        <pt x="174" y="1264" on="0"/>
        <pt x="209" y="1323" on="1"/>
        <pt x="242" y="1378" on="0"/>
        <pt x="256" y="1410" on="0"/>
        <pt x="256" y="1423" on="1"/>
        <pt x="256" y="1436" on="0"/>
        <pt x="242" y="1453" on="0"/>
        <pt x="213" y="1468" on="1"/>
        <pt x="166" y="1492" on="0"/>
        <pt x="166" y="1536" on="1"/>
        <pt x="166" y="1569" on="0"/>
        <pt x="198" y="1633" on="0"/>
        <pt x="250" y="1681" on="0"/>
        <pt x="264" y="1681" on="1"/>
        <pt x="274" y="1681" on="0"/>
        <pt x="274" y="1671" on="1"/>
        <pt x="272" y="1653" on="1"/>
        <pt x="272" y="1635" on="0"/>
        <pt x="346" y="1614" on="1"/>
        <pt x="386" y="1601" on="0"/>
        <pt x="424" y="1578" on="0"/>
        <pt x="424" y="1556" on="1"/>
        <pt x="424" y="1530" on="0"/>
        <pt x="386" y="1479" on="1"/>
        <pt x="347" y="1427" on="1"/>
        <pt x="238" y="1283" on="0"/>
        <pt x="238" y="1194" on="1"/>
        <pt x="238" y="1160" on="0"/>
        <pt x="280" y="1135" on="0"/>
        <pt x="330" y="1135" on="1"/>
        <pt x="387" y="1135" on="1"/>
        <pt x="403" y="1135" on="0"/>
        <pt x="413" y="1109" on="0"/>
        <pt x="422" y="1066" on="0"/>
        <pt x="440" y="1008" on="0"/>
        <pt x="463" y="977" on="1"/>
        <pt x="684" y="674" on="1"/>
        <pt x="844" y="863" on="0"/>
        <pt x="1006" y="967" on="1"/>
        <pt x="905" y="967" on="0"/>
        <pt x="905" y="1057" on="1"/>
        <pt x="905" y="1088" on="0"/>
        <pt x="940" y="1157" on="0"/>
        <pt x="991" y="1204" on="0"/>
        <pt x="1008" y="1204" on="1"/>
        <pt x="1014" y="1204" on="0"/>
        <pt x="1014" y="1196" on="1"/>
        <pt x="1010" y="1159" on="1"/>
        <pt x="1010" y="1130" on="0"/>
        <pt x="1053" y="1130" on="1"/>
        <pt x="1145" y="1133" on="1"/>
        <pt x="1189" y="1133" on="0"/>
        <pt x="1239" y="1084" on="0"/>
        <pt x="1239" y="1040" on="1"/>
        <pt x="1239" y="975" on="0"/>
        <pt x="1198" y="930" on="1"/>
        <pt x="1167" y="967" on="0"/>
        <pt x="1137" y="967" on="1"/>
        <pt x="1082" y="967" on="0"/>
        <pt x="841" y="725" on="0"/>
        <pt x="750" y="580" on="1"/>
        <pt x="1004" y="231" on="1"/>
        <pt x="1049" y="169" on="0"/>
        <pt x="1049" y="125" on="1"/>
        <pt x="1049" y="90" on="0"/>
        <pt x="1014" y="22" on="0"/>
        <pt x="962" y="-27" on="0"/>
        <pt x="950" y="-27" on="1"/>
        <pt x="942" y="-27" on="0"/>
        <pt x="942" y="-21" on="1"/>
        <pt x="937" y="28" on="0"/>
        <pt x="850" y="147" on="1"/>
        <pt x="266" y="952" on="1"/>
      </contour>
    </TTGlyph>
    <TTGlyph name="aleflamedhatafsegol" xMin="131" yMin="-385" xMax="1239" yMax="1681">
      <component glyphName="aleflamed" x="0" y="0" flags="0x204"/>
      <component glyphName="hatafsegol" x="641" y="0" flags="0x4"/>
    </TTGlyph>
    <TTGlyph name="aleflamedsegol" xMin="131" yMin="-385" xMax="1239" yMax="1681">
      <component glyphName="aleflamed" x="0" y="0" flags="0x204"/>
      <component glyphName="segol" x="641" y="0" flags="0x4"/>
    </TTGlyph>
    <TTGlyph name="aleflamedtsere" xMin="131" yMin="-348" xMax="1239" yMax="1681">
      <component glyphName="aleflamed" x="0" y="0" flags="0x204"/>
      <component glyphName="tsere" x="641" y="0" flags="0x4"/>
    </TTGlyph>
    <TTGlyph name="alefmapiq" xMin="25" yMin="-27" xMax="1262" yMax="1212">
      <component glyphName="alef" x="0" y="0" flags="0x204"/>
      <component glyphName="dagesh" x="569" y="-540" flags="0x4"/>
    </TTGlyph>
    <TTGlyph name="alefpatah" xMin="25" yMin="-231" xMax="1262" yMax="1212">
      <component glyphName="alef" x="0" y="0" flags="0x204"/>
      <component glyphName="patah" x="635" y="0" flags="0x4"/>
    </TTGlyph>
    <TTGlyph name="alefqamats" xMin="25" yMin="-348" xMax="1262" yMax="1212">
      <component glyphName="alef" x="0" y="0" flags="0x204"/>
      <component glyphName="qamats" x="635" y="0" flags="0x4"/>
    </TTGlyph>
    <TTGlyph name="alefwide" xMin="25" yMin="-27" xMax="1262" yMax="1212">
      <component glyphName="alef" x="0" y="0" flags="0x204"/>
    </TTGlyph>
    <TTGlyph name="alpha" xMin="61" yMin="-21" xMax="1109" yMax="966">
      <contour>
        <pt x="961" y="45" on="1"/>
        <pt x="953" y="0" on="1"/>
        <pt x="740" y="0" on="1"/>
        <pt x="723" y="46" on="0"/>
        <pt x="695" y="191" on="0"/>
        <pt x="692" y="253" on="1"/>
        <pt x="611" y="102" on="0"/>
        <pt x="450" y="-21" on="0"/>
        <pt x="338" y="-21" on="1"/>
        <pt x="211" y="-21" on="0"/>
        <pt x="61" y="177" on="0"/>
        <pt x="61" y="347" on="1"/>
        <pt x="61" y="462" on="0"/>
        <pt x="125" y="698" on="0"/>
        <pt x="254" y="875" on="0"/>
        <pt x="434" y="966" on="0"/>
        <pt x="542" y="966" on="1"/>
        <pt x="771" y="966" on="0"/>
        <pt x="810" y="703" on="1"/>
        <pt x="811" y="674" on="1"/>
        <pt x="825" y="704" on="1"/>
        <pt x="952" y="940" on="1"/>
        <pt x="1109" y="940" on="1"/>
        <pt x="1101" y="900" on="1"/>
        <pt x="1063" y="856" on="0"/>
        <pt x="954" y="688" on="0"/>
        <pt x="823" y="471" on="1"/>
        <pt x="831" y="317" on="0"/>
        <pt x="866" y="126" on="0"/>
        <pt x="894" y="60" on="1"/>
      </contour>
      <contour>
        <pt x="705" y="572" on="1"/>
        <pt x="705" y="738" on="0"/>
        <pt x="626" y="886" on="0"/>
        <pt x="543" y="886" on="1"/>
        <pt x="449" y="886" on="0"/>
        <pt x="315" y="738" on="0"/>
        <pt x="237" y="438" on="0"/>
        <pt x="237" y="316" on="1"/>
        <pt x="237" y="206" on="0"/>
        <pt x="314" y="78" on="0"/>
        <pt x="383" y="78" on="1"/>
        <pt x="466" y="78" on="0"/>
        <pt x="616" y="236" on="0"/>
        <pt x="704" y="433" on="1"/>
        <pt x="705" y="514" on="1"/>
      </contour>
    </TTGlyph>
    <TTGlyph name="alphatonos" xMin="61" yMin="-21" xMax="1109" yMax="1443">
      <component glyphName="alpha" x="0" y="0" flags="0x204"/>
      <component glyphName="tonos" x="280" y="0" flags="0x4"/>
    </TTGlyph>
    <TTGlyph name="alt_plussign" xMin="88" yMin="514" xMax="1094" yMax="1128">
      <contour>
        <pt x="1061" y="514" on="1"/>
        <pt x="88" y="514" on="1"/>
        <pt x="121" y="700" on="1"/>
        <pt x="512" y="700" on="1"/>
        <pt x="588" y="1128" on="1"/>
        <pt x="774" y="1128" on="1"/>
        <pt x="698" y="700" on="1"/>
        <pt x="1094" y="700" on="1"/>
      </contour>
    </TTGlyph>
    <TTGlyph name="alternativeayin" xMin="-41" yMin="0" xMax="1120" yMax="1206">
      <component glyphName="ayin" x="0" y="0" flags="0x204"/>
    </TTGlyph>
    <TTGlyph name="alternativelamed" xMin="131" yMin="-29" xMax="918" yMax="1681">
      <component glyphName="lamed" x="0" y="0" flags="0x204"/>
    </TTGlyph>
    <TTGlyph name="amacron" xMin="61" yMin="-21" xMax="980" yMax="1270">
      <component glyphName="a" x="0" y="0" flags="0x204"/>
      <component glyphName="uni02C9" x="175" y="0" flags="0x4"/>
    </TTGlyph>
    <TTGlyph name="ampersand" xMin="87" yMin="-20" xMax="1585" yMax="1362">
      <contour>
        <pt x="1120" y="1102" on="1"/>
        <pt x="1120" y="1022" on="0"/>
        <pt x="1043" y="908" on="0"/>
        <pt x="908" y="823" on="0"/>
        <pt x="727" y="758" on="1"/>
        <pt x="1071" y="356" on="1"/>
        <pt x="1218" y="554" on="0"/>
        <pt x="1256" y="727" on="1"/>
        <pt x="1119" y="754" on="1"/>
        <pt x="1128" y="807" on="1"/>
        <pt x="1585" y="807" on="1"/>
        <pt x="1576" y="754" on="1"/>
        <pt x="1432" y="727" on="1"/>
        <pt x="1311" y="454" on="0"/>
        <pt x="1142" y="272" on="1"/>
        <pt x="1310" y="78" on="1"/>
        <pt x="1472" y="54" on="1"/>
        <pt x="1462" y="0" on="1"/>
        <pt x="1118" y="0" on="1"/>
        <pt x="1005" y="137" on="1"/>
        <pt x="888" y="50" on="0"/>
        <pt x="676" y="-20" on="0"/>
        <pt x="548" y="-20" on="1"/>
        <pt x="327" y="-20" on="0"/>
        <pt x="87" y="166" on="0"/>
        <pt x="87" y="340" on="1"/>
        <pt x="87" y="432" on="0"/>
        <pt x="166" y="583" on="0"/>
        <pt x="332" y="700" on="0"/>
        <pt x="489" y="756" on="1"/>
        <pt x="427" y="845" on="0"/>
        <pt x="381" y="971" on="0"/>
        <pt x="381" y="1037" on="1"/>
        <pt x="381" y="1184" on="0"/>
        <pt x="587" y="1362" on="0"/>
        <pt x="768" y="1362" on="1"/>
        <pt x="878" y="1362" on="0"/>
        <pt x="1035" y="1297" on="0"/>
        <pt x="1120" y="1178" on="0"/>
      </contour>
      <contour>
        <pt x="538" y="687" on="1"/>
        <pt x="404" y="630" on="0"/>
        <pt x="285" y="461" on="0"/>
        <pt x="285" y="343" on="1"/>
        <pt x="285" y="214" on="0"/>
        <pt x="434" y="66" on="0"/>
        <pt x="568" y="66" on="1"/>
        <pt x="668" y="66" on="0"/>
        <pt x="857" y="145" on="0"/>
        <pt x="936" y="219" on="1"/>
      </contour>
      <contour>
        <pt x="561" y="1071" on="1"/>
        <pt x="561" y="1008" on="0"/>
        <pt x="622" y="889" on="0"/>
        <pt x="673" y="823" on="1"/>
        <pt x="803" y="872" on="0"/>
        <pt x="901" y="938" on="0"/>
        <pt x="953" y="1027" on="0"/>
        <pt x="953" y="1090" on="1"/>
        <pt x="953" y="1182" on="0"/>
        <pt x="853" y="1282" on="0"/>
        <pt x="768" y="1282" on="1"/>
        <pt x="663" y="1282" on="0"/>
        <pt x="561" y="1168" on="0"/>
      </contour>
    </TTGlyph>
    <TTGlyph name="anoteleia" xMin="250" yMin="557" xMax="492" yMax="799">
      <component glyphName="periodcentered" x="85" y="0" flags="0x4"/>
    </TTGlyph>
    <TTGlyph name="aogonek" xMin="61" yMin="-403" xMax="947" yMax="964">
      <component glyphName="a" x="0" y="0" flags="0x204"/>
      <component glyphName="ogonek" x="374" y="0" flags="0x4"/>
    </TTGlyph>
    <TTGlyph name="approxequal" xMin="88" yMin="301" xMax="1080" yMax="1055">
      <contour>
        <pt x="811" y="711" on="1"/>
        <pt x="705" y="711" on="0"/>
        <pt x="566" y="832" on="1"/>
        <pt x="492" y="895" on="0"/>
        <pt x="395" y="952" on="0"/>
        <pt x="357" y="952" on="1"/>
        <pt x="280" y="952" on="0"/>
        <pt x="202" y="843" on="0"/>
        <pt x="189" y="711" on="1"/>
        <pt x="88" y="711" on="1"/>
        <pt x="106" y="898" on="0"/>
        <pt x="239" y="1055" on="0"/>
        <pt x="357" y="1055" on="1"/>
        <pt x="412" y="1055" on="0"/>
        <pt x="532" y="997" on="0"/>
        <pt x="607" y="934" on="1"/>
        <pt x="693" y="862" on="0"/>
        <pt x="776" y="813" on="0"/>
        <pt x="811" y="813" on="1"/>
        <pt x="880" y="813" on="0"/>
        <pt x="958" y="918" on="0"/>
        <pt x="977" y="1055" on="1"/>
        <pt x="1080" y="1055" on="1"/>
        <pt x="1063" y="925" on="0"/>
        <pt x="999" y="787" on="0"/>
        <pt x="893" y="711" on="0"/>
      </contour>
      <contour>
        <pt x="811" y="301" on="1"/>
        <pt x="705" y="301" on="0"/>
        <pt x="566" y="422" on="1"/>
        <pt x="492" y="485" on="0"/>
        <pt x="395" y="542" on="0"/>
        <pt x="357" y="542" on="1"/>
        <pt x="280" y="542" on="0"/>
        <pt x="202" y="433" on="0"/>
        <pt x="189" y="301" on="1"/>
        <pt x="88" y="301" on="1"/>
        <pt x="106" y="488" on="0"/>
        <pt x="239" y="645" on="0"/>
        <pt x="357" y="645" on="1"/>
        <pt x="412" y="645" on="0"/>
        <pt x="532" y="587" on="0"/>
        <pt x="607" y="524" on="1"/>
        <pt x="693" y="452" on="0"/>
        <pt x="776" y="403" on="0"/>
        <pt x="811" y="403" on="1"/>
        <pt x="880" y="403" on="0"/>
        <pt x="958" y="508" on="0"/>
        <pt x="977" y="645" on="1"/>
        <pt x="1080" y="645" on="1"/>
        <pt x="1063" y="515" on="0"/>
        <pt x="999" y="377" on="0"/>
        <pt x="893" y="301" on="0"/>
      </contour>
    </TTGlyph>
    <TTGlyph name="aring" xMin="61" yMin="-21" xMax="947" yMax="1480">
      <component glyphName="a" x="0" y="0" flags="0x204"/>
      <component glyphName="ring" x="196" y="0" flags="0x4"/>
    </TTGlyph>
    <TTGlyph name="aringacute" xMin="61" yMin="-21" xMax="1036" yMax="1834">
      <component glyphName="a" x="0" y="0" flags="0x204"/>
      <component glyphName="acute" x="326" y="411" flags="0x4"/>
      <component glyphName="ring" x="196" y="0" flags="0x4"/>
    </TTGlyph>
    <TTGlyph name="arrowboth" xMin="418" yMin="100" xMax="1630" yMax="580">
      <contour>
        <pt x="641" y="297" on="1"/>
        <pt x="698" y="230" on="0"/>
        <pt x="760" y="100" on="1"/>
        <pt x="688" y="100" on="1"/>
        <pt x="561" y="249" on="0"/>
        <pt x="418" y="322" on="1"/>
        <pt x="418" y="358" on="1"/>
        <pt x="561" y="431" on="0"/>
        <pt x="688" y="580" on="1"/>
        <pt x="760" y="580" on="1"/>
        <pt x="698" y="450" on="0"/>
        <pt x="641" y="383" on="1"/>
        <pt x="1407" y="383" on="1"/>
        <pt x="1350" y="450" on="0"/>
        <pt x="1288" y="580" on="1"/>
        <pt x="1360" y="580" on="1"/>
        <pt x="1487" y="431" on="0"/>
        <pt x="1630" y="358" on="1"/>
        <pt x="1630" y="322" on="1"/>
        <pt x="1487" y="249" on="0"/>
        <pt x="1360" y="100" on="1"/>
        <pt x="1288" y="100" on="1"/>
        <pt x="1350" y="230" on="0"/>
        <pt x="1407" y="297" on="1"/>
      </contour>
    </TTGlyph>
    <TTGlyph name="arrowdown" xMin="272" yMin="-61" xMax="752" yMax="1151">
      <contour>
        <pt x="555" y="162" on="1"/>
        <pt x="622" y="219" on="0"/>
        <pt x="752" y="281" on="1"/>
        <pt x="752" y="209" on="1"/>
        <pt x="603" y="82" on="0"/>
        <pt x="530" y="-61" on="1"/>
        <pt x="494" y="-61" on="1"/>
        <pt x="421" y="82" on="0"/>
        <pt x="272" y="209" on="1"/>
        <pt x="272" y="281" on="1"/>
        <pt x="402" y="219" on="0"/>
        <pt x="469" y="162" on="1"/>
        <pt x="469" y="1151" on="1"/>
        <pt x="555" y="1151" on="1"/>
      </contour>
    </TTGlyph>
    <TTGlyph name="arrowleft" xMin="418" yMin="100" xMax="1630" yMax="580">
      <contour>
        <pt x="641" y="297" on="1"/>
        <pt x="698" y="230" on="0"/>
        <pt x="760" y="100" on="1"/>
        <pt x="688" y="100" on="1"/>
        <pt x="561" y="249" on="0"/>
        <pt x="418" y="322" on="1"/>
        <pt x="418" y="358" on="1"/>
        <pt x="561" y="431" on="0"/>
        <pt x="688" y="580" on="1"/>
        <pt x="760" y="580" on="1"/>
        <pt x="698" y="450" on="0"/>
        <pt x="641" y="383" on="1"/>
        <pt x="1630" y="383" on="1"/>
        <pt x="1630" y="297" on="1"/>
      </contour>
    </TTGlyph>
    <TTGlyph name="arrowright" xMin="418" yMin="100" xMax="1630" yMax="580">
      <contour>
        <pt x="1407" y="383" on="1"/>
        <pt x="1350" y="450" on="0"/>
        <pt x="1288" y="580" on="1"/>
        <pt x="1360" y="580" on="1"/>
        <pt x="1487" y="431" on="0"/>
        <pt x="1630" y="358" on="1"/>
        <pt x="1630" y="322" on="1"/>
        <pt x="1487" y="249" on="0"/>
        <pt x="1360" y="100" on="1"/>
        <pt x="1288" y="100" on="1"/>
        <pt x="1350" y="230" on="0"/>
        <pt x="1407" y="297" on="1"/>
        <pt x="418" y="297" on="1"/>
        <pt x="418" y="383" on="1"/>
      </contour>
    </TTGlyph>
    <TTGlyph name="arrowup" xMin="272" yMin="-61" xMax="752" yMax="1151">
      <contour>
        <pt x="469" y="928" on="1"/>
        <pt x="402" y="871" on="0"/>
        <pt x="272" y="809" on="1"/>
        <pt x="272" y="881" on="1"/>
        <pt x="421" y="1008" on="0"/>
        <pt x="494" y="1151" on="1"/>
        <pt x="530" y="1151" on="1"/>
        <pt x="603" y="1008" on="0"/>
        <pt x="752" y="881" on="1"/>
        <pt x="752" y="809" on="1"/>
        <pt x="622" y="871" on="0"/>
        <pt x="555" y="928" on="1"/>
        <pt x="555" y="-61" on="1"/>
        <pt x="469" y="-61" on="1"/>
      </contour>
    </TTGlyph>
    <TTGlyph name="arrowupdn" xMin="272" yMin="-61" xMax="752" yMax="1151">
      <contour>
        <pt x="469" y="928" on="1"/>
        <pt x="402" y="871" on="0"/>
        <pt x="272" y="809" on="1"/>
        <pt x="272" y="881" on="1"/>
        <pt x="421" y="1008" on="0"/>
        <pt x="494" y="1151" on="1"/>
        <pt x="530" y="1151" on="1"/>
        <pt x="603" y="1008" on="0"/>
        <pt x="752" y="881" on="1"/>
        <pt x="752" y="809" on="1"/>
        <pt x="622" y="871" on="0"/>
        <pt x="555" y="928" on="1"/>
        <pt x="555" y="162" on="1"/>
        <pt x="622" y="219" on="0"/>
        <pt x="752" y="281" on="1"/>
        <pt x="752" y="209" on="1"/>
        <pt x="603" y="82" on="0"/>
        <pt x="530" y="-61" on="1"/>
        <pt x="494" y="-61" on="1"/>
        <pt x="421" y="82" on="0"/>
        <pt x="272" y="209" on="1"/>
        <pt x="272" y="281" on="1"/>
        <pt x="402" y="219" on="0"/>
        <pt x="469" y="162" on="1"/>
      </contour>
    </TTGlyph>
    <TTGlyph name="arrowupdnbse" xMin="272" yMin="-184" xMax="752" yMax="1151">
      <contour>
        <pt x="272" y="-104" on="1"/>
        <pt x="752" y="-104" on="1"/>
        <pt x="752" y="-184" on="1"/>
        <pt x="272" y="-184" on="1"/>
      </contour>
      <contour>
        <pt x="469" y="928" on="1"/>
        <pt x="402" y="871" on="0"/>
        <pt x="272" y="809" on="1"/>
        <pt x="272" y="881" on="1"/>
        <pt x="421" y="1008" on="0"/>
        <pt x="494" y="1151" on="1"/>
        <pt x="530" y="1151" on="1"/>
        <pt x="603" y="1008" on="0"/>
        <pt x="752" y="881" on="1"/>
        <pt x="752" y="809" on="1"/>
        <pt x="622" y="871" on="0"/>
        <pt x="555" y="928" on="1"/>
        <pt x="555" y="162" on="1"/>
        <pt x="622" y="219" on="0"/>
        <pt x="752" y="281" on="1"/>
        <pt x="752" y="209" on="1"/>
        <pt x="603" y="82" on="0"/>
        <pt x="530" y="-61" on="1"/>
        <pt x="494" y="-61" on="1"/>
        <pt x="421" y="82" on="0"/>
        <pt x="272" y="209" on="1"/>
        <pt x="272" y="281" on="1"/>
        <pt x="402" y="219" on="0"/>
        <pt x="469" y="162" on="1"/>
      </contour>
    </TTGlyph>
    <TTGlyph name="asciicircum" xMin="72" yMin="389" xMax="977" yMax="1341">
      <contour>
        <pt x="500" y="1341" on="1"/>
        <pt x="549" y="1341" on="1"/>
        <pt x="977" y="389" on="1"/>
        <pt x="874" y="389" on="1"/>
        <pt x="524" y="1198" on="1"/>
        <pt x="174" y="389" on="1"/>
        <pt x="72" y="389" on="1"/>
      </contour>
    </TTGlyph>
    <TTGlyph name="asciitilde" xMin="84" yMin="502" xMax="1076" yMax="846">
      <contour>
        <pt x="807" y="502" on="1"/>
        <pt x="701" y="502" on="0"/>
        <pt x="562" y="623" on="1"/>
        <pt x="488" y="686" on="0"/>
        <pt x="391" y="743" on="0"/>
        <pt x="353" y="743" on="1"/>
        <pt x="276" y="743" on="0"/>
        <pt x="198" y="634" on="0"/>
        <pt x="185" y="502" on="1"/>
        <pt x="84" y="502" on="1"/>
        <pt x="102" y="689" on="0"/>
        <pt x="235" y="846" on="0"/>
        <pt x="353" y="846" on="1"/>
        <pt x="409" y="846" on="0"/>
        <pt x="528" y="788" on="0"/>
        <pt x="603" y="725" on="1"/>
        <pt x="689" y="653" on="0"/>
        <pt x="772" y="604" on="0"/>
        <pt x="807" y="604" on="1"/>
        <pt x="876" y="604" on="0"/>
        <pt x="954" y="709" on="0"/>
        <pt x="973" y="846" on="1"/>
        <pt x="1076" y="846" on="1"/>
        <pt x="1059" y="716" on="0"/>
        <pt x="995" y="578" on="0"/>
        <pt x="889" y="502" on="0"/>
      </contour>
    </TTGlyph>
    <TTGlyph name="asterisk" xMin="197" yMin="590" xMax="1023" yMax="1341">
      <contour>
        <pt x="197" y="1065" on="1"/>
        <pt x="261" y="1208" on="1"/>
        <pt x="576" y="1014" on="1"/>
        <pt x="533" y="1341" on="1"/>
        <pt x="689" y="1341" on="1"/>
        <pt x="642" y="1014" on="1"/>
        <pt x="959" y="1204" on="1"/>
        <pt x="1023" y="1063" on="1"/>
        <pt x="691" y="965" on="1"/>
        <pt x="1023" y="868" on="1"/>
        <pt x="959" y="727" on="1"/>
        <pt x="642" y="915" on="1"/>
        <pt x="689" y="590" on="1"/>
        <pt x="533" y="590" on="1"/>
        <pt x="576" y="918" on="1"/>
        <pt x="261" y="723" on="1"/>
        <pt x="197" y="866" on="1"/>
        <pt x="525" y="965" on="1"/>
      </contour>
    </TTGlyph>
    <TTGlyph name="at" xMin="120" yMin="-389" xMax="1789" yMax="1364">
      <contour>
        <pt x="1469" y="-184" on="1"/>
        <pt x="1328" y="-294" on="0"/>
        <pt x="1041" y="-389" on="0"/>
        <pt x="875" y="-389" on="1"/>
        <pt x="650" y="-389" on="0"/>
        <pt x="307" y="-200" on="0"/>
        <pt x="120" y="144" on="0"/>
        <pt x="120" y="362" on="1"/>
        <pt x="120" y="646" on="0"/>
        <pt x="371" y="1106" on="0"/>
        <pt x="814" y="1364" on="0"/>
        <pt x="1084" y="1364" on="1"/>
        <pt x="1420" y="1364" on="0"/>
        <pt x="1789" y="1042" on="0"/>
        <pt x="1789" y="752" on="1"/>
        <pt x="1789" y="562" on="0"/>
        <pt x="1595" y="227" on="0"/>
        <pt x="1265" y="25" on="0"/>
        <pt x="1086" y="25" on="1"/>
        <pt x="1021" y="25" on="0"/>
        <pt x="1021" y="76" on="1"/>
        <pt x="1021" y="126" on="0"/>
        <pt x="1029" y="201" on="1"/>
        <pt x="942" y="114" on="0"/>
        <pt x="774" y="25" on="0"/>
        <pt x="707" y="25" on="1"/>
        <pt x="635" y="25" on="0"/>
        <pt x="556" y="134" on="0"/>
        <pt x="556" y="225" on="1"/>
        <pt x="556" y="344" on="0"/>
        <pt x="617" y="571" on="0"/>
        <pt x="728" y="747" on="0"/>
        <pt x="895" y="870" on="0"/>
        <pt x="1055" y="915" on="0"/>
        <pt x="1185" y="915" on="1"/>
        <pt x="1221" y="915" on="1"/>
        <pt x="1259" y="915" on="0"/>
        <pt x="1307" y="909" on="1"/>
        <pt x="1193" y="379" on="1"/>
        <pt x="1170" y="269" on="0"/>
        <pt x="1170" y="205" on="1"/>
        <pt x="1170" y="168" on="0"/>
        <pt x="1207" y="143" on="0"/>
        <pt x="1244" y="143" on="1"/>
        <pt x="1360" y="143" on="0"/>
        <pt x="1552" y="306" on="0"/>
        <pt x="1664" y="596" on="0"/>
        <pt x="1664" y="750" on="1"/>
        <pt x="1664" y="1002" on="0"/>
        <pt x="1352" y="1282" on="0"/>
        <pt x="1078" y="1282" on="1"/>
        <pt x="845" y="1282" on="0"/>
        <pt x="472" y="1055" on="0"/>
        <pt x="257" y="626" on="0"/>
        <pt x="257" y="365" on="1"/>
        <pt x="257" y="170" on="0"/>
        <pt x="412" y="-134" on="0"/>
        <pt x="706" y="-305" on="0"/>
        <pt x="906" y="-305" on="1"/>
        <pt x="1054" y="-305" on="0"/>
        <pt x="1303" y="-228" on="0"/>
        <pt x="1436" y="-133" on="1"/>
      </contour>
      <contour>
        <pt x="1150" y="807" on="1"/>
        <pt x="1101" y="811" on="1"/>
        <pt x="971" y="811" on="0"/>
        <pt x="796" y="722" on="0"/>
        <pt x="691" y="458" on="0"/>
        <pt x="691" y="309" on="1"/>
        <pt x="691" y="160" on="0"/>
        <pt x="771" y="160" on="1"/>
        <pt x="827" y="160" on="0"/>
        <pt x="974" y="222" on="0"/>
        <pt x="1035" y="274" on="1"/>
      </contour>
    </TTGlyph>
    <TTGlyph name="atilde" xMin="61" yMin="-21" xMax="1018" yMax="1381">
      <component glyphName="a" x="0" y="0" flags="0x204"/>
      <component glyphName="tilde" x="208" y="0" flags="0x4"/>
    </TTGlyph>
    <TTGlyph name="ayin" xMin="-41" yMin="0" xMax="1120" yMax="1206">
      <contour>
        <pt x="752" y="182" on="1"/>
        <pt x="779" y="182" on="0"/>
        <pt x="795" y="223" on="0"/>
        <pt x="795" y="293" on="1"/>
        <pt x="795" y="384" on="0"/>
        <pt x="868" y="612" on="0"/>
        <pt x="961" y="814" on="1"/>
        <pt x="980" y="856" on="0"/>
        <pt x="995" y="895" on="0"/>
        <pt x="995" y="909" on="1"/>
        <pt x="995" y="952" on="0"/>
        <pt x="938" y="952" on="1"/>
        <pt x="918" y="952" on="1"/>
        <pt x="862" y="952" on="0"/>
        <pt x="811" y="999" on="0"/>
        <pt x="811" y="1047" on="1"/>
        <pt x="811" y="1093" on="0"/>
        <pt x="875" y="1206" on="0"/>
        <pt x="897" y="1206" on="1"/>
        <pt x="909" y="1206" on="0"/>
        <pt x="909" y="1186" on="1"/>
        <pt x="903" y="1162" on="0"/>
        <pt x="903" y="1157" on="1"/>
        <pt x="903" y="1133" on="0"/>
        <pt x="944" y="1133" on="1"/>
        <pt x="1004" y="1133" on="1"/>
        <pt x="1120" y="1133" on="0"/>
        <pt x="1120" y="1040" on="1"/>
        <pt x="1120" y="1016" on="0"/>
        <pt x="1107" y="984" on="1"/>
        <pt x="920" y="524" on="0"/>
        <pt x="920" y="330" on="1"/>
        <pt x="920" y="285" on="0"/>
        <pt x="928" y="214" on="0"/>
        <pt x="928" y="193" on="1"/>
        <pt x="928" y="164" on="0"/>
        <pt x="886" y="60" on="0"/>
        <pt x="848" y="0" on="1"/>
        <pt x="-41" y="0" on="1"/>
        <pt x="43" y="182" on="1"/>
        <pt x="246" y="182" on="1"/>
        <pt x="293" y="292" on="0"/>
        <pt x="293" y="342" on="1"/>
        <pt x="293" y="393" on="0"/>
        <pt x="262" y="496" on="1"/>
        <pt x="231" y="599" on="0"/>
        <pt x="231" y="674" on="1"/>
        <pt x="231" y="742" on="0"/>
        <pt x="266" y="849" on="0"/>
        <pt x="328" y="954" on="1"/>
        <pt x="261" y="954" on="0"/>
        <pt x="201" y="1003" on="0"/>
        <pt x="201" y="1049" on="1"/>
        <pt x="201" y="1088" on="0"/>
        <pt x="234" y="1159" on="0"/>
        <pt x="284" y="1206" on="0"/>
        <pt x="299" y="1206" on="1"/>
        <pt x="309" y="1206" on="0"/>
        <pt x="309" y="1190" on="1"/>
        <pt x="305" y="1165" on="1"/>
        <pt x="305" y="1133" on="0"/>
        <pt x="358" y="1133" on="1"/>
        <pt x="414" y="1133" on="1"/>
        <pt x="480" y="1133" on="0"/>
        <pt x="526" y="1096" on="0"/>
        <pt x="526" y="1055" on="1"/>
        <pt x="526" y="1018" on="0"/>
        <pt x="493" y="928" on="0"/>
        <pt x="481" y="928" on="1"/>
        <pt x="471" y="931" on="1"/>
        <pt x="446" y="946" on="0"/>
        <pt x="428" y="946" on="1"/>
        <pt x="394" y="946" on="0"/>
        <pt x="356" y="878" on="0"/>
        <pt x="356" y="825" on="1"/>
        <pt x="356" y="780" on="0"/>
        <pt x="387" y="645" on="1"/>
        <pt x="420" y="504" on="0"/>
        <pt x="420" y="449" on="1"/>
        <pt x="420" y="390" on="0"/>
        <pt x="368" y="257" on="0"/>
        <pt x="328" y="182" on="1"/>
      </contour>
    </TTGlyph>
    <TTGlyph name="b" xMin="76" yMin="-20" xMax="962" yMax="1421">
      <contour>
        <pt x="305" y="1352" on="1"/>
        <pt x="172" y="1376" on="1"/>
        <pt x="180" y="1421" on="1"/>
        <pt x="480" y="1421" on="1"/>
        <pt x="406" y="980" on="1"/>
        <pt x="389" y="866" on="0"/>
        <pt x="367" y="787" on="1"/>
        <pt x="447" y="869" on="0"/>
        <pt x="616" y="965" on="0"/>
        <pt x="687" y="965" on="1"/>
        <pt x="812" y="965" on="0"/>
        <pt x="962" y="786" on="0"/>
        <pt x="962" y="631" on="1"/>
        <pt x="962" y="459" on="0"/>
        <pt x="813" y="154" on="0"/>
        <pt x="551" y="-20" on="0"/>
        <pt x="396" y="-20" on="1"/>
        <pt x="308" y="-20" on="0"/>
        <pt x="139" y="25" on="0"/>
        <pt x="76" y="64" on="1"/>
      </contour>
      <contour>
        <pt x="248" y="107" on="1"/>
        <pt x="306" y="59" on="0"/>
        <pt x="409" y="59" on="1"/>
        <pt x="511" y="59" on="0"/>
        <pt x="684" y="210" on="0"/>
        <pt x="783" y="465" on="0"/>
        <pt x="783" y="605" on="1"/>
        <pt x="783" y="717" on="0"/>
        <pt x="690" y="840" on="0"/>
        <pt x="612" y="840" on="1"/>
        <pt x="553" y="840" on="0"/>
        <pt x="416" y="762" on="0"/>
        <pt x="354" y="701" on="1"/>
      </contour>
    </TTGlyph>
    <TTGlyph name="backslash" xMin="158" yMin="-20" xMax="470" yMax="1350">
      <contour>
        <pt x="158" y="1350" on="1"/>
        <pt x="256" y="1350" on="1"/>
        <pt x="470" y="-20" on="1"/>
        <pt x="369" y="-20" on="1"/>
      </contour>
    </TTGlyph>
    <TTGlyph name="bar" xMin="267" yMin="-442" xMax="369" yMax="1421">
      <contour>
        <pt x="267" y="-442" on="1"/>
        <pt x="267" y="1421" on="1"/>
        <pt x="369" y="1421" on="1"/>
        <pt x="369" y="-442" on="1"/>
      </contour>
    </TTGlyph>
    <TTGlyph name="bari.dotless" xMin="47" yMin="0" xMax="526" yMax="940">
      <contour>
        <pt x="287" y="70" on="1"/>
        <pt x="444" y="45" on="1"/>
        <pt x="436" y="0" on="1"/>
        <pt x="109" y="0" on="1"/>
        <pt x="186" y="438" on="1"/>
        <pt x="47" y="438" on="1"/>
        <pt x="62" y="522" on="1"/>
        <pt x="201" y="522" on="1"/>
        <pt x="262" y="870" on="1"/>
        <pt x="133" y="895" on="1"/>
        <pt x="141" y="940" on="1"/>
        <pt x="440" y="940" on="1"/>
        <pt x="366" y="522" on="1"/>
        <pt x="526" y="522" on="1"/>
        <pt x="511" y="438" on="1"/>
        <pt x="351" y="438" on="1"/>
      </contour>
    </TTGlyph>
    <TTGlyph name="bet" xMin="-45" yMin="0" xMax="909" yMax="1204">
      <contour>
        <pt x="786" y="0" on="1"/>
        <pt x="-45" y="0" on="1"/>
        <pt x="39" y="182" on="1"/>
        <pt x="635" y="182" on="1"/>
        <pt x="688" y="280" on="0"/>
        <pt x="778" y="749" on="0"/>
        <pt x="778" y="860" on="1"/>
        <pt x="778" y="913" on="0"/>
        <pt x="739" y="952" on="0"/>
        <pt x="682" y="952" on="1"/>
        <pt x="266" y="952" on="1"/>
        <pt x="160" y="952" on="0"/>
        <pt x="160" y="1044" on="1"/>
        <pt x="160" y="1079" on="0"/>
        <pt x="190" y="1153" on="0"/>
        <pt x="235" y="1204" on="0"/>
        <pt x="250" y="1204" on="1"/>
        <pt x="260" y="1204" on="0"/>
        <pt x="260" y="1186" on="1"/>
        <pt x="256" y="1174" on="0"/>
        <pt x="256" y="1159" on="1"/>
        <pt x="256" y="1133" on="0"/>
        <pt x="295" y="1133" on="1"/>
        <pt x="727" y="1133" on="1"/>
        <pt x="828" y="1133" on="0"/>
        <pt x="909" y="1073" on="0"/>
        <pt x="909" y="995" on="1"/>
        <pt x="909" y="955" on="0"/>
        <pt x="868" y="659" on="0"/>
        <pt x="803" y="349" on="0"/>
        <pt x="784" y="303" on="1"/>
        <pt x="763" y="253" on="0"/>
        <pt x="692" y="182" on="1"/>
        <pt x="860" y="182" on="1"/>
      </contour>
    </TTGlyph>
    <TTGlyph name="beta" xMin="-33" yMin="-436" xMax="1017" yMax="1442">
      <contour>
        <pt x="697" y="1442" on="1"/>
        <pt x="845" y="1442" on="0"/>
        <pt x="1017" y="1287" on="0"/>
        <pt x="1017" y="1153" on="1"/>
        <pt x="1017" y="999" on="0"/>
        <pt x="852" y="794" on="0"/>
        <pt x="709" y="763" on="1"/>
        <pt x="708" y="753" on="1"/>
        <pt x="817" y="729" on="0"/>
        <pt x="943" y="567" on="0"/>
        <pt x="943" y="448" on="1"/>
        <pt x="943" y="233" on="0"/>
        <pt x="687" y="-20" on="0"/>
        <pt x="470" y="-20" on="1"/>
        <pt x="392" y="-20" on="0"/>
        <pt x="257" y="10" on="0"/>
        <pt x="215" y="33" on="1"/>
        <pt x="132" y="-436" on="1"/>
        <pt x="-33" y="-436" on="1"/>
        <pt x="209" y="941" on="1"/>
        <pt x="254" y="1199" on="0"/>
        <pt x="484" y="1442" on="0"/>
      </contour>
      <contour>
        <pt x="686" y="1362" on="1"/>
        <pt x="590" y="1362" on="0"/>
        <pt x="480" y="1280" on="0"/>
        <pt x="402" y="1096" on="0"/>
        <pt x="374" y="937" on="1"/>
        <pt x="229" y="115" on="1"/>
        <pt x="264" y="97" on="0"/>
        <pt x="385" y="68" on="0"/>
        <pt x="449" y="68" on="1"/>
        <pt x="596" y="68" on="0"/>
        <pt x="768" y="274" on="0"/>
        <pt x="768" y="457" on="1"/>
        <pt x="768" y="582" on="0"/>
        <pt x="631" y="706" on="0"/>
        <pt x="511" y="712" on="1"/>
        <pt x="525" y="790" on="1"/>
        <pt x="683" y="792" on="0"/>
        <pt x="853" y="991" on="0"/>
        <pt x="853" y="1164" on="1"/>
        <pt x="853" y="1257" on="0"/>
        <pt x="767" y="1362" on="0"/>
      </contour>
    </TTGlyph>
    <TTGlyph name="betdagesh" xMin="-45" yMin="0" xMax="909" yMax="1204">
      <component glyphName="bet" x="0" y="0" flags="0x204"/>
      <component glyphName="dagesh" x="414" y="-85" flags="0x4"/>
    </TTGlyph>
    <TTGlyph name="betrafe" xMin="-45" yMin="0" xMax="909" yMax="1378">
      <component glyphName="bet" x="0" y="0" flags="0x204"/>
      <component glyphName="rafe" x="420" y="0" flags="0x4"/>
    </TTGlyph>
    <TTGlyph name="block" xMin="0" yMin="-621" xMax="1451" yMax="1864">
      <contour>
        <pt x="1451" y="-621" on="1"/>
        <pt x="0" y="-621" on="1"/>
        <pt x="0" y="1864" on="1"/>
        <pt x="1451" y="1864" on="1"/>
      </contour>
    </TTGlyph>
    <TTGlyph name="braceleft" xMin="37" yMin="-274" xMax="801" yMax="1421">
      <contour>
        <pt x="367" y="-274" on="1"/>
        <pt x="258" y="-274" on="0"/>
        <pt x="150" y="-161" on="0"/>
        <pt x="150" y="-61" on="1"/>
        <pt x="150" y="-26" on="0"/>
        <pt x="158" y="20" on="1"/>
        <pt x="210" y="315" on="1"/>
        <pt x="217" y="350" on="0"/>
        <pt x="217" y="386" on="1"/>
        <pt x="217" y="467" on="0"/>
        <pt x="131" y="548" on="0"/>
        <pt x="37" y="553" on="1"/>
        <pt x="45" y="598" on="1"/>
        <pt x="260" y="602" on="0"/>
        <pt x="301" y="834" on="1"/>
        <pt x="353" y="1128" on="1"/>
        <pt x="378" y="1269" on="0"/>
        <pt x="535" y="1421" on="0"/>
        <pt x="666" y="1421" on="1"/>
        <pt x="801" y="1421" on="1"/>
        <pt x="793" y="1374" on="1"/>
        <pt x="731" y="1374" on="1"/>
        <pt x="640" y="1374" on="0"/>
        <pt x="544" y="1265" on="0"/>
        <pt x="525" y="1159" on="1"/>
        <pt x="466" y="829" on="1"/>
        <pt x="449" y="735" on="0"/>
        <pt x="321" y="597" on="0"/>
        <pt x="230" y="578" on="1"/>
        <pt x="230" y="575" on="1"/>
        <pt x="300" y="558" on="0"/>
        <pt x="382" y="456" on="0"/>
        <pt x="382" y="378" on="1"/>
        <pt x="382" y="347" on="0"/>
        <pt x="377" y="322" on="1"/>
        <pt x="318" y="-12" on="1"/>
        <pt x="310" y="-54" on="0"/>
        <pt x="310" y="-89" on="1"/>
        <pt x="310" y="-227" on="0"/>
        <pt x="448" y="-227" on="1"/>
        <pt x="510" y="-227" on="1"/>
        <pt x="502" y="-274" on="1"/>
      </contour>
    </TTGlyph>
    <TTGlyph name="braceright" xMin="36" yMin="-274" xMax="801" yMax="1421">
      <contour>
        <pt x="36" y="-274" on="1"/>
        <pt x="44" y="-227" on="1"/>
        <pt x="106" y="-227" on="1"/>
        <pt x="197" y="-227" on="0"/>
        <pt x="293" y="-118" on="0"/>
        <pt x="312" y="-12" on="1"/>
        <pt x="371" y="322" on="1"/>
        <pt x="388" y="418" on="0"/>
        <pt x="514" y="554" on="0"/>
        <pt x="608" y="575" on="1"/>
        <pt x="608" y="578" on="1"/>
        <pt x="539" y="594" on="0"/>
        <pt x="456" y="698" on="0"/>
        <pt x="456" y="777" on="1"/>
        <pt x="460" y="829" on="1"/>
        <pt x="519" y="1159" on="1"/>
        <pt x="527" y="1203" on="0"/>
        <pt x="527" y="1236" on="1"/>
        <pt x="527" y="1305" on="0"/>
        <pt x="462" y="1374" on="0"/>
        <pt x="389" y="1374" on="1"/>
        <pt x="327" y="1374" on="1"/>
        <pt x="335" y="1421" on="1"/>
        <pt x="471" y="1421" on="1"/>
        <pt x="687" y="1421" on="0"/>
        <pt x="687" y="1212" on="1"/>
        <pt x="687" y="1174" on="0"/>
        <pt x="679" y="1128" on="1"/>
        <pt x="627" y="834" on="1"/>
        <pt x="621" y="796" on="0"/>
        <pt x="621" y="765" on="1"/>
        <pt x="621" y="678" on="0"/>
        <pt x="715" y="601" on="0"/>
        <pt x="801" y="598" on="1"/>
        <pt x="793" y="553" on="1"/>
        <pt x="681" y="549" on="0"/>
        <pt x="555" y="429" on="0"/>
        <pt x="536" y="315" on="1"/>
        <pt x="484" y="20" on="1"/>
        <pt x="459" y="-119" on="0"/>
        <pt x="298" y="-274" on="0"/>
        <pt x="172" y="-274" on="1"/>
      </contour>
    </TTGlyph>
    <TTGlyph name="bracketleft" xMin="118" yMin="-274" xMax="873" yMax="1421">
      <contour>
        <pt x="118" y="-274" on="1"/>
        <pt x="417" y="1421" on="1"/>
        <pt x="873" y="1421" on="1"/>
        <pt x="865" y="1374" on="1"/>
        <pt x="560" y="1333" on="1"/>
        <pt x="292" y="-186" on="1"/>
        <pt x="582" y="-227" on="1"/>
        <pt x="574" y="-274" on="1"/>
      </contour>
    </TTGlyph>
    <TTGlyph name="bracketright" xMin="-49" yMin="-274" xMax="705" yMax="1421">
      <contour>
        <pt x="-49" y="-274" on="1"/>
        <pt x="-41" y="-227" on="1"/>
        <pt x="262" y="-186" on="1"/>
        <pt x="530" y="1333" on="1"/>
        <pt x="241" y="1374" on="1"/>
        <pt x="249" y="1421" on="1"/>
        <pt x="705" y="1421" on="1"/>
        <pt x="406" y="-274" on="1"/>
      </contour>
    </TTGlyph>
    <TTGlyph name="breve" xMin="223" yMin="1119" xMax="801" yMax="1399">
      <contour>
        <pt x="465" y="1119" on="1"/>
        <pt x="349" y="1119" on="0"/>
        <pt x="223" y="1237" on="0"/>
        <pt x="223" y="1343" on="1"/>
        <pt x="227" y="1399" on="1"/>
        <pt x="301" y="1399" on="1"/>
        <pt x="305" y="1334" on="0"/>
        <pt x="406" y="1260" on="0"/>
        <pt x="490" y="1260" on="1"/>
        <pt x="576" y="1260" on="0"/>
        <pt x="701" y="1335" on="0"/>
        <pt x="727" y="1399" on="1"/>
        <pt x="801" y="1399" on="1"/>
        <pt x="774" y="1269" on="0"/>
        <pt x="599" y="1119" on="0"/>
      </contour>
    </TTGlyph>
    <TTGlyph name="breve.alt1" xMin="223" yMin="1119" xMax="801" yMax="1399">
      <component glyphName="breve" x="0" y="0" flags="0x4"/>
    </TTGlyph>
    <TTGlyph name="breve.cyr" xMin="139" yMin="1122" xMax="856" yMax="1457">
      <component glyphName="cyrillicbreve" x="0" y="0" flags="0x204"/>
    </TTGlyph>
    <TTGlyph name="breveacute" xMin="-181" yMin="1099" xMax="395" yMax="1483">
      <contour>
        <pt x="161" y="1483" on="1"/>
        <pt x="328" y="1483" on="1"/>
        <pt x="324" y="1461" on="1"/>
        <pt x="88" y="1285" on="1"/>
        <pt x="22" y="1285" on="1"/>
        <pt x="24" y="1295" on="1"/>
      </contour>
      <contour>
        <pt x="67" y="1099" on="1"/>
        <pt x="-52" y="1099" on="0"/>
        <pt x="-181" y="1204" on="0"/>
        <pt x="-181" y="1301" on="1"/>
        <pt x="-178" y="1342" on="1"/>
        <pt x="-104" y="1342" on="1"/>
        <pt x="-99" y="1284" on="0"/>
        <pt x="3" y="1221" on="0"/>
        <pt x="88" y="1221" on="1"/>
        <pt x="171" y="1221" on="0"/>
        <pt x="295" y="1283" on="0"/>
        <pt x="321" y="1342" on="1"/>
        <pt x="395" y="1342" on="1"/>
        <pt x="373" y="1230" on="0"/>
        <pt x="197" y="1099" on="0"/>
      </contour>
    </TTGlyph>
    <TTGlyph name="brevegrave" xMin="-181" yMin="1099" xMax="395" yMax="1483">
      <contour>
        <pt x="177" y="1295" on="1"/>
        <pt x="175" y="1285" on="1"/>
        <pt x="109" y="1285" on="1"/>
        <pt x="-65" y="1461" on="1"/>
        <pt x="-61" y="1483" on="1"/>
        <pt x="105" y="1483" on="1"/>
      </contour>
      <contour>
        <pt x="67" y="1099" on="1"/>
        <pt x="-52" y="1099" on="0"/>
        <pt x="-181" y="1204" on="0"/>
        <pt x="-181" y="1301" on="1"/>
        <pt x="-178" y="1342" on="1"/>
        <pt x="-104" y="1342" on="1"/>
        <pt x="-99" y="1284" on="0"/>
        <pt x="3" y="1221" on="0"/>
        <pt x="88" y="1221" on="1"/>
        <pt x="171" y="1221" on="0"/>
        <pt x="295" y="1283" on="0"/>
        <pt x="321" y="1342" on="1"/>
        <pt x="395" y="1342" on="1"/>
        <pt x="373" y="1230" on="0"/>
        <pt x="197" y="1099" on="0"/>
      </contour>
    </TTGlyph>
    <TTGlyph name="brevehook" xMin="-181" yMin="1099" xMax="395" yMax="1484">
      <contour>
        <pt x="67" y="1099" on="1"/>
        <pt x="-52" y="1099" on="0"/>
        <pt x="-181" y="1204" on="0"/>
        <pt x="-181" y="1301" on="1"/>
        <pt x="-178" y="1342" on="1"/>
        <pt x="-104" y="1342" on="1"/>
        <pt x="-99" y="1284" on="0"/>
        <pt x="4" y="1221" on="0"/>
        <pt x="88" y="1221" on="1"/>
        <pt x="173" y="1221" on="0"/>
        <pt x="296" y="1285" on="0"/>
        <pt x="321" y="1342" on="1"/>
        <pt x="395" y="1342" on="1"/>
        <pt x="373" y="1230" on="0"/>
        <pt x="197" y="1099" on="0"/>
      </contour>
      <contour>
        <pt x="18" y="1467" on="1"/>
        <pt x="79" y="1484" on="0"/>
        <pt x="128" y="1484" on="1"/>
        <pt x="188" y="1484" on="0"/>
        <pt x="244" y="1439" on="0"/>
        <pt x="244" y="1411" on="1"/>
        <pt x="244" y="1369" on="0"/>
        <pt x="174" y="1322" on="0"/>
        <pt x="107" y="1318" on="1"/>
        <pt x="99" y="1287" on="1"/>
        <pt x="53" y="1287" on="1"/>
        <pt x="60" y="1355" on="1"/>
        <pt x="87" y="1360" on="1"/>
        <pt x="141" y="1370" on="0"/>
        <pt x="141" y="1400" on="1"/>
        <pt x="141" y="1430" on="0"/>
        <pt x="105" y="1430" on="1"/>
        <pt x="74" y="1430" on="0"/>
        <pt x="23" y="1415" on="1"/>
      </contour>
    </TTGlyph>
    <TTGlyph name="brevetilde" xMin="-184" yMin="1100" xMax="428" yMax="1520">
      <contour>
        <pt x="221" y="1330" on="1"/>
        <pt x="178" y="1330" on="0"/>
        <pt x="111" y="1361" on="0"/>
        <pt x="53" y="1399" on="0"/>
        <pt x="-1" y="1430" on="0"/>
        <pt x="-31" y="1430" on="1"/>
        <pt x="-101" y="1430" on="0"/>
        <pt x="-124" y="1375" on="1"/>
        <pt x="-137" y="1344" on="1"/>
        <pt x="-184" y="1344" on="1"/>
        <pt x="-137" y="1520" on="0"/>
        <pt x="24" y="1520" on="1"/>
        <pt x="66" y="1520" on="0"/>
        <pt x="134" y="1489" on="0"/>
        <pt x="192" y="1451" on="0"/>
        <pt x="247" y="1420" on="0"/>
        <pt x="276" y="1420" on="1"/>
        <pt x="316" y="1420" on="0"/>
        <pt x="365" y="1456" on="0"/>
        <pt x="381" y="1505" on="1"/>
        <pt x="428" y="1505" on="1"/>
        <pt x="382" y="1330" on="0"/>
      </contour>
      <contour>
        <pt x="63" y="1100" on="1"/>
        <pt x="-50" y="1100" on="0"/>
        <pt x="-170" y="1190" on="0"/>
        <pt x="-170" y="1274" on="1"/>
        <pt x="-167" y="1309" on="1"/>
        <pt x="-113" y="1309" on="1"/>
        <pt x="-106" y="1262" on="0"/>
        <pt x="-2" y="1211" on="0"/>
        <pt x="83" y="1211" on="1"/>
        <pt x="169" y="1211" on="0"/>
        <pt x="290" y="1263" on="0"/>
        <pt x="312" y="1309" on="1"/>
        <pt x="366" y="1309" on="1"/>
        <pt x="344" y="1208" on="0"/>
        <pt x="186" y="1100" on="0"/>
      </contour>
    </TTGlyph>
    <TTGlyph name="brokenbar" xMin="267" yMin="-442" xMax="369" yMax="1421">
      <contour>
        <pt x="267" y="801" on="1"/>
        <pt x="267" y="1421" on="1"/>
        <pt x="369" y="1421" on="1"/>
        <pt x="369" y="801" on="1"/>
      </contour>
      <contour>
        <pt x="267" y="-442" on="1"/>
        <pt x="267" y="180" on="1"/>
        <pt x="369" y="180" on="1"/>
        <pt x="369" y="-442" on="1"/>
      </contour>
    </TTGlyph>
    <TTGlyph name="bullet" xMin="136" yMin="434" xMax="623" yMax="922">
      <contour>
        <pt x="623" y="678" on="1"/>
        <pt x="623" y="576" on="0"/>
        <pt x="481" y="434" on="0"/>
        <pt x="379" y="434" on="1"/>
        <pt x="278" y="434" on="0"/>
        <pt x="136" y="576" on="0"/>
        <pt x="136" y="678" on="1"/>
        <pt x="136" y="780" on="0"/>
        <pt x="278" y="922" on="0"/>
        <pt x="379" y="922" on="1"/>
        <pt x="481" y="922" on="0"/>
        <pt x="623" y="780" on="0"/>
      </contour>
    </TTGlyph>
    <TTGlyph name="c" xMin="63" yMin="-20" xMax="887" yMax="965">
      <contour>
        <pt x="774" y="142" on="1"/>
        <pt x="693" y="67" on="0"/>
        <pt x="491" y="-20" on="0"/>
        <pt x="400" y="-20" on="1"/>
        <pt x="239" y="-20" on="0"/>
        <pt x="63" y="166" on="0"/>
        <pt x="63" y="330" on="1"/>
        <pt x="63" y="504" on="0"/>
        <pt x="203" y="791" on="0"/>
        <pt x="462" y="965" on="0"/>
        <pt x="604" y="965" on="1"/>
        <pt x="675" y="965" on="0"/>
        <pt x="835" y="935" on="0"/>
        <pt x="887" y="913" on="1"/>
        <pt x="842" y="651" on="1"/>
        <pt x="787" y="651" on="1"/>
        <pt x="771" y="825" on="1"/>
        <pt x="708" y="888" on="0"/>
        <pt x="603" y="888" on="1"/>
        <pt x="507" y="888" on="0"/>
        <pt x="340" y="746" on="0"/>
        <pt x="240" y="492" on="0"/>
        <pt x="240" y="340" on="1"/>
        <pt x="240" y="84" on="0"/>
        <pt x="446" y="84" on="1"/>
        <pt x="589" y="84" on="0"/>
        <pt x="744" y="184" on="1"/>
      </contour>
    </TTGlyph>
    <TTGlyph name="cacute" xMin="63" yMin="-20" xMax="966" yMax="1423">
      <component glyphName="c" x="0" y="0" flags="0x204"/>
      <component glyphName="acute" x="256" y="0" flags="0x4"/>
    </TTGlyph>
    <TTGlyph name="caron" xMin="184" yMin="1118" xMax="777" yMax="1424">
      <contour>
        <pt x="241" y="1424" on="1"/>
        <pt x="447" y="1241" on="1"/>
        <pt x="717" y="1424" on="1"/>
        <pt x="777" y="1424" on="1"/>
        <pt x="772" y="1391" on="1"/>
        <pt x="537" y="1118" on="1"/>
        <pt x="324" y="1118" on="1"/>
        <pt x="184" y="1391" on="1"/>
        <pt x="189" y="1424" on="1"/>
      </contour>
    </TTGlyph>
    <TTGlyph name="caroncommaaccent" xMin="50" yMin="915" xMax="356" yMax="1341">
      <contour>
        <pt x="356" y="1198" on="1"/>
        <pt x="356" y="1089" on="0"/>
        <pt x="213" y="952" on="0"/>
        <pt x="50" y="915" on="1"/>
        <pt x="50" y="978" on="1"/>
        <pt x="117" y="993" on="0"/>
        <pt x="197" y="1035" on="0"/>
        <pt x="235" y="1083" on="0"/>
        <pt x="235" y="1122" on="1"/>
        <pt x="235" y="1139" on="0"/>
        <pt x="206" y="1164" on="0"/>
        <pt x="171" y="1192" on="0"/>
        <pt x="142" y="1231" on="0"/>
        <pt x="142" y="1262" on="1"/>
        <pt x="142" y="1300" on="0"/>
        <pt x="197" y="1341" on="0"/>
        <pt x="240" y="1341" on="1"/>
        <pt x="290" y="1341" on="0"/>
        <pt x="356" y="1263" on="0"/>
      </contour>
    </TTGlyph>
    <TTGlyph name="ccaron" xMin="63" yMin="-20" xMax="983" yMax="1424">
      <component glyphName="c" x="0" y="0" flags="0x204"/>
      <component glyphName="caron" x="206" y="0" flags="0x4"/>
    </TTGlyph>
    <TTGlyph name="ccedilla" xMin="63" yMin="-427" xMax="887" yMax="965">
      <component glyphName="c" x="0" y="0" flags="0x204"/>
      <component glyphName="cedilla" x="35" y="0" flags="0x4"/>
    </TTGlyph>
    <TTGlyph name="ccircumflex" xMin="63" yMin="-20" xMax="924" yMax="1424">
      <component glyphName="c" x="0" y="0" flags="0x204"/>
      <component glyphName="circumflex" x="158" y="0" flags="0x4"/>
    </TTGlyph>
    <TTGlyph name="cedilla" xMin="114" yMin="-427" xMax="526" yMax="27">
      <contour>
        <pt x="526" y="-212" on="1"/>
        <pt x="526" y="-310" on="0"/>
        <pt x="383" y="-427" on="0"/>
        <pt x="247" y="-427" on="1"/>
        <pt x="175" y="-427" on="0"/>
        <pt x="114" y="-406" on="1"/>
        <pt x="137" y="-331" on="1"/>
        <pt x="185" y="-347" on="0"/>
        <pt x="234" y="-347" on="1"/>
        <pt x="295" y="-347" on="0"/>
        <pt x="371" y="-292" on="0"/>
        <pt x="371" y="-235" on="1"/>
        <pt x="371" y="-191" on="0"/>
        <pt x="303" y="-132" on="0"/>
        <pt x="238" y="-126" on="1"/>
        <pt x="306" y="27" on="1"/>
        <pt x="392" y="27" on="1"/>
        <pt x="359" y="-55" on="1"/>
        <pt x="439" y="-63" on="0"/>
        <pt x="526" y="-145" on="0"/>
      </contour>
    </TTGlyph>
    <TTGlyph name="cent" xMin="153" yMin="0" xMax="977" yMax="1341">
      <contour>
        <pt x="864" y="347" on="1"/>
        <pt x="795" y="285" on="0"/>
        <pt x="633" y="202" on="0"/>
        <pt x="554" y="190" on="1"/>
        <pt x="521" y="0" on="1"/>
        <pt x="439" y="0" on="1"/>
        <pt x="471" y="185" on="1"/>
        <pt x="319" y="191" on="0"/>
        <pt x="153" y="377" on="0"/>
        <pt x="153" y="535" on="1"/>
        <pt x="153" y="703" on="0"/>
        <pt x="284" y="980" on="0"/>
        <pt x="512" y="1151" on="0"/>
        <pt x="644" y="1167" on="1"/>
        <pt x="675" y="1341" on="1"/>
        <pt x="757" y="1341" on="1"/>
        <pt x="727" y="1169" on="1"/>
        <pt x="870" y="1161" on="0"/>
        <pt x="977" y="1118" on="1"/>
        <pt x="932" y="856" on="1"/>
        <pt x="877" y="856" on="1"/>
        <pt x="861" y="1030" on="1"/>
        <pt x="805" y="1086" on="0"/>
        <pt x="713" y="1092" on="1"/>
        <pt x="572" y="290" on="1"/>
        <pt x="699" y="300" on="0"/>
        <pt x="834" y="389" on="1"/>
      </contour>
      <contour>
        <pt x="330" y="545" on="1"/>
        <pt x="330" y="321" on="0"/>
        <pt x="490" y="293" on="1"/>
        <pt x="629" y="1084" on="1"/>
        <pt x="498" y="1048" on="0"/>
        <pt x="330" y="747" on="0"/>
      </contour>
    </TTGlyph>
    <TTGlyph name="chi" xMin="-164" yMin="-436" xMax="943" yMax="940">
      <contour>
        <pt x="355" y="327" on="1"/>
        <pt x="210" y="807" on="1"/>
        <pt x="200" y="840" on="0"/>
        <pt x="146" y="884" on="0"/>
        <pt x="89" y="895" on="1"/>
        <pt x="97" y="940" on="1"/>
        <pt x="280" y="940" on="1"/>
        <pt x="299" y="926" on="0"/>
        <pt x="319" y="854" on="1"/>
        <pt x="428" y="435" on="1"/>
        <pt x="632" y="740" on="0"/>
        <pt x="752" y="940" on="1"/>
        <pt x="943" y="940" on="1"/>
        <pt x="936" y="901" on="1"/>
        <pt x="813" y="736" on="0"/>
        <pt x="483" y="258" on="1"/>
        <pt x="650" y="-303" on="1"/>
        <pt x="664" y="-350" on="0"/>
        <pt x="708" y="-386" on="0"/>
        <pt x="741" y="-391" on="1"/>
        <pt x="733" y="-436" on="1"/>
        <pt x="580" y="-436" on="1"/>
        <pt x="560" y="-418" on="0"/>
        <pt x="534" y="-318" on="1"/>
        <pt x="409" y="152" on="1"/>
        <pt x="348" y="64" on="0"/>
        <pt x="94" y="-323" on="0"/>
        <pt x="25" y="-436" on="1"/>
        <pt x="-164" y="-436" on="1"/>
        <pt x="-158" y="-403" on="1"/>
        <pt x="-129" y="-363" on="0"/>
        <pt x="-51" y="-253" on="0"/>
        <pt x="38" y="-127" on="0"/>
        <pt x="133" y="9" on="0"/>
        <pt x="228" y="145" on="0"/>
        <pt x="317" y="273" on="0"/>
      </contour>
    </TTGlyph>
    <TTGlyph name="circle" xMin="167" yMin="162" xMax="1070" yMax="1065">
      <contour>
        <pt x="167" y="612" on="1"/>
        <pt x="167" y="734" on="0"/>
        <pt x="287" y="944" on="0"/>
        <pt x="496" y="1065" on="0"/>
        <pt x="617" y="1065" on="1"/>
        <pt x="739" y="1065" on="0"/>
        <pt x="949" y="944" on="0"/>
        <pt x="1070" y="733" on="0"/>
        <pt x="1070" y="612" on="1"/>
        <pt x="1070" y="491" on="0"/>
        <pt x="949" y="282" on="0"/>
        <pt x="740" y="162" on="0"/>
        <pt x="617" y="162" on="1"/>
        <pt x="495" y="162" on="0"/>
        <pt x="287" y="282" on="0"/>
        <pt x="167" y="490" on="0"/>
      </contour>
      <contour>
        <pt x="253" y="612" on="1"/>
        <pt x="253" y="514" on="0"/>
        <pt x="351" y="345" on="0"/>
        <pt x="518" y="248" on="0"/>
        <pt x="617" y="248" on="1"/>
        <pt x="715" y="248" on="0"/>
        <pt x="884" y="344" on="0"/>
        <pt x="984" y="514" on="0"/>
        <pt x="984" y="612" on="1"/>
        <pt x="984" y="710" on="0"/>
        <pt x="886" y="881" on="0"/>
        <pt x="715" y="979" on="0"/>
        <pt x="617" y="979" on="1"/>
        <pt x="520" y="979" on="0"/>
        <pt x="351" y="881" on="0"/>
        <pt x="253" y="712" on="0"/>
      </contour>
    </TTGlyph>
    <TTGlyph name="circumflex" xMin="174" yMin="1118" xMax="766" yMax="1424">
      <contour>
        <pt x="174" y="1118" on="1"/>
        <pt x="179" y="1151" on="1"/>
        <pt x="414" y="1424" on="1"/>
        <pt x="627" y="1424" on="1"/>
        <pt x="766" y="1151" on="1"/>
        <pt x="761" y="1118" on="1"/>
        <pt x="714" y="1118" on="1"/>
        <pt x="508" y="1301" on="1"/>
        <pt x="238" y="1118" on="1"/>
      </contour>
    </TTGlyph>
    <TTGlyph name="circumflex.alt1" xMin="174" yMin="1118" xMax="766" yMax="1424">
      <component glyphName="circumflex" x="0" y="0" flags="0x4"/>
    </TTGlyph>
    <TTGlyph name="circumflexacute" xMin="-246" yMin="1119" xMax="601" yMax="1483">
      <contour>
        <pt x="434" y="1483" on="1"/>
        <pt x="601" y="1483" on="1"/>
        <pt x="597" y="1461" on="1"/>
        <pt x="360" y="1285" on="1"/>
        <pt x="294" y="1285" on="1"/>
        <pt x="295" y="1295" on="1"/>
      </contour>
      <contour>
        <pt x="-246" y="1119" on="1"/>
        <pt x="-240" y="1152" on="1"/>
        <pt x="33" y="1405" on="1"/>
        <pt x="185" y="1405" on="1"/>
        <pt x="367" y="1152" on="1"/>
        <pt x="361" y="1119" on="1"/>
        <pt x="309" y="1119" on="1"/>
        <pt x="91" y="1282" on="1"/>
        <pt x="-186" y="1119" on="1"/>
      </contour>
    </TTGlyph>
    <TTGlyph name="circumflexgrave" xMin="-360" yMin="1119" xMax="367" yMax="1483">
      <contour>
        <pt x="-118" y="1295" on="1"/>
        <pt x="-119" y="1285" on="1"/>
        <pt x="-185" y="1285" on="1"/>
        <pt x="-360" y="1461" on="1"/>
        <pt x="-356" y="1483" on="1"/>
        <pt x="-189" y="1483" on="1"/>
      </contour>
      <contour>
        <pt x="310" y="1119" on="1"/>
        <pt x="92" y="1282" on="1"/>
        <pt x="-185" y="1119" on="1"/>
        <pt x="-246" y="1119" on="1"/>
        <pt x="-240" y="1152" on="1"/>
        <pt x="32" y="1405" on="1"/>
        <pt x="184" y="1405" on="1"/>
        <pt x="367" y="1152" on="1"/>
        <pt x="361" y="1119" on="1"/>
      </contour>
    </TTGlyph>
    <TTGlyph name="circumflexhook" xMin="-246" yMin="1119" xMax="534" yMax="1484">
      <contour>
        <pt x="286" y="1467" on="1"/>
        <pt x="351" y="1484" on="0"/>
        <pt x="408" y="1484" on="1"/>
        <pt x="471" y="1484" on="0"/>
        <pt x="534" y="1438" on="0"/>
        <pt x="534" y="1400" on="1"/>
        <pt x="534" y="1355" on="0"/>
        <pt x="456" y="1302" on="0"/>
        <pt x="384" y="1298" on="1"/>
        <pt x="373" y="1267" on="1"/>
        <pt x="323" y="1267" on="1"/>
        <pt x="329" y="1335" on="1"/>
        <pt x="359" y="1340" on="1"/>
        <pt x="422" y="1351" on="0"/>
        <pt x="422" y="1395" on="1"/>
        <pt x="422" y="1429" on="0"/>
        <pt x="380" y="1429" on="1"/>
        <pt x="340" y="1429" on="0"/>
        <pt x="290" y="1415" on="1"/>
      </contour>
      <contour>
        <pt x="-246" y="1119" on="1"/>
        <pt x="-240" y="1152" on="1"/>
        <pt x="33" y="1405" on="1"/>
        <pt x="185" y="1405" on="1"/>
        <pt x="367" y="1152" on="1"/>
        <pt x="361" y="1119" on="1"/>
        <pt x="309" y="1119" on="1"/>
        <pt x="91" y="1282" on="1"/>
        <pt x="-186" y="1119" on="1"/>
      </contour>
    </TTGlyph>
    <TTGlyph name="circumflextilde" xMin="-221" yMin="1089" xMax="429" yMax="1520">
      <contour>
        <pt x="-221" y="1089" on="1"/>
        <pt x="-216" y="1122" on="1"/>
        <pt x="6" y="1315" on="1"/>
        <pt x="198" y="1315" on="1"/>
        <pt x="351" y="1122" on="1"/>
        <pt x="346" y="1089" on="1"/>
        <pt x="295" y="1089" on="1"/>
        <pt x="89" y="1212" on="1"/>
        <pt x="-160" y="1089" on="1"/>
      </contour>
      <contour>
        <pt x="222" y="1330" on="1"/>
        <pt x="179" y="1330" on="0"/>
        <pt x="112" y="1361" on="0"/>
        <pt x="54" y="1399" on="0"/>
        <pt x="0" y="1430" on="0"/>
        <pt x="-30" y="1430" on="1"/>
        <pt x="-100" y="1430" on="0"/>
        <pt x="-123" y="1375" on="1"/>
        <pt x="-136" y="1344" on="1"/>
        <pt x="-183" y="1344" on="1"/>
        <pt x="-136" y="1520" on="0"/>
        <pt x="24" y="1520" on="1"/>
        <pt x="66" y="1520" on="0"/>
        <pt x="134" y="1489" on="0"/>
        <pt x="193" y="1451" on="0"/>
        <pt x="248" y="1420" on="0"/>
        <pt x="277" y="1420" on="1"/>
        <pt x="317" y="1420" on="0"/>
        <pt x="366" y="1456" on="0"/>
        <pt x="382" y="1505" on="1"/>
        <pt x="429" y="1505" on="1"/>
        <pt x="383" y="1330" on="0"/>
      </contour>
    </TTGlyph>
    <TTGlyph name="club" xMin="60" yMin="0" xMax="1284" yMax="1223">
      <contour>
        <pt x="1094" y="0" on="1"/>
        <pt x="252" y="0" on="1"/>
        <pt x="260" y="35" on="1"/>
        <pt x="395" y="62" on="0"/>
        <pt x="514" y="116" on="0"/>
        <pt x="609" y="236" on="0"/>
        <pt x="662" y="385" on="0"/>
        <pt x="662" y="461" on="1"/>
        <pt x="660" y="508" on="1"/>
        <pt x="603" y="388" on="0"/>
        <pt x="425" y="270" on="0"/>
        <pt x="336" y="270" on="1"/>
        <pt x="259" y="270" on="0"/>
        <pt x="130" y="346" on="0"/>
        <pt x="60" y="472" on="0"/>
        <pt x="60" y="549" on="1"/>
        <pt x="60" y="664" on="0"/>
        <pt x="206" y="822" on="0"/>
        <pt x="299" y="823" on="1"/>
        <pt x="361" y="823" on="0"/>
        <pt x="461" y="772" on="1"/>
        <pt x="423" y="837" on="0"/>
        <pt x="406" y="877" on="1"/>
        <pt x="395" y="914" on="0"/>
        <pt x="395" y="952" on="1"/>
        <pt x="395" y="1073" on="0"/>
        <pt x="557" y="1223" on="0"/>
        <pt x="670" y="1223" on="1"/>
        <pt x="786" y="1223" on="0"/>
        <pt x="946" y="1063" on="0"/>
        <pt x="946" y="956" on="1"/>
        <pt x="946" y="870" on="0"/>
        <pt x="877" y="772" on="1"/>
        <pt x="961" y="812" on="0"/>
        <pt x="977" y="815" on="1"/>
        <pt x="999" y="823" on="0"/>
        <pt x="1038" y="823" on="1"/>
        <pt x="1143" y="823" on="0"/>
        <pt x="1211" y="745" on="1"/>
        <pt x="1284" y="669" on="0"/>
        <pt x="1284" y="553" on="1"/>
        <pt x="1284" y="437" on="0"/>
        <pt x="1128" y="272" on="0"/>
        <pt x="1012" y="272" on="1"/>
        <pt x="956" y="272" on="0"/>
        <pt x="838" y="321" on="0"/>
        <pt x="743" y="403" on="0"/>
        <pt x="682" y="508" on="1"/>
        <pt x="687" y="382" on="0"/>
        <pt x="736" y="229" on="0"/>
        <pt x="845" y="109" on="0"/>
        <pt x="972" y="56" on="0"/>
        <pt x="1086" y="35" on="1"/>
      </contour>
    </TTGlyph>
    <TTGlyph name="colon" xMin="137" yMin="-29" xMax="520" yMax="960">
      <contour>
        <pt x="379" y="92" on="1"/>
        <pt x="379" y="43" on="0"/>
        <pt x="310" y="-29" on="0"/>
        <pt x="258" y="-29" on="1"/>
        <pt x="206" y="-29" on="0"/>
        <pt x="137" y="43" on="0"/>
        <pt x="137" y="92" on="1"/>
        <pt x="137" y="143" on="0"/>
        <pt x="207" y="213" on="0"/>
        <pt x="258" y="213" on="1"/>
        <pt x="309" y="213" on="0"/>
        <pt x="379" y="143" on="0"/>
      </contour>
      <contour>
        <pt x="520" y="839" on="1"/>
        <pt x="520" y="790" on="0"/>
        <pt x="451" y="718" on="0"/>
        <pt x="399" y="718" on="1"/>
        <pt x="347" y="718" on="0"/>
        <pt x="278" y="790" on="0"/>
        <pt x="278" y="839" on="1"/>
        <pt x="278" y="890" on="0"/>
        <pt x="348" y="960" on="0"/>
        <pt x="399" y="960" on="1"/>
        <pt x="450" y="960" on="0"/>
        <pt x="520" y="890" on="0"/>
      </contour>
    </TTGlyph>
    <TTGlyph name="comma" xMin="68" yMin="-315" xMax="383" yMax="211">
      <contour>
        <pt x="383" y="42" on="1"/>
        <pt x="383" y="-89" on="0"/>
        <pt x="217" y="-272" on="0"/>
        <pt x="68" y="-315" on="1"/>
        <pt x="68" y="-238" on="1"/>
        <pt x="254" y="-179" on="0"/>
        <pt x="254" y="-70" on="1"/>
        <pt x="254" y="-42" on="0"/>
        <pt x="215" y="-14" on="0"/>
        <pt x="168" y="15" on="0"/>
        <pt x="129" y="58" on="0"/>
        <pt x="129" y="100" on="1"/>
        <pt x="129" y="154" on="0"/>
        <pt x="197" y="211" on="0"/>
        <pt x="250" y="211" on="1"/>
        <pt x="311" y="211" on="0"/>
        <pt x="383" y="121" on="0"/>
      </contour>
    </TTGlyph>
    <TTGlyph name="commaaccentrotate" xMin="54" yMin="1120" xMax="297" yMax="1487">
      <contour>
        <pt x="54" y="1247" on="1"/>
        <pt x="54" y="1335" on="0"/>
        <pt x="171" y="1449" on="0"/>
        <pt x="297" y="1487" on="1"/>
        <pt x="297" y="1424" on="1"/>
        <pt x="171" y="1386" on="0"/>
        <pt x="171" y="1335" on="1"/>
        <pt x="171" y="1314" on="0"/>
        <pt x="199" y="1292" on="0"/>
        <pt x="233" y="1270" on="0"/>
        <pt x="261" y="1236" on="0"/>
        <pt x="261" y="1202" on="1"/>
        <pt x="261" y="1164" on="0"/>
        <pt x="207" y="1120" on="0"/>
        <pt x="168" y="1120" on="1"/>
        <pt x="117" y="1120" on="0"/>
        <pt x="54" y="1187" on="0"/>
      </contour>
    </TTGlyph>
    <TTGlyph name="copyright" xMin="118" yMin="-20" xMax="1500" yMax="1362">
      <contour>
        <pt x="118" y="670" on="1"/>
        <pt x="118" y="859" on="0"/>
        <pt x="305" y="1180" on="0"/>
        <pt x="622" y="1362" on="0"/>
        <pt x="808" y="1362" on="1"/>
        <pt x="995" y="1362" on="0"/>
        <pt x="1315" y="1178" on="0"/>
        <pt x="1500" y="859" on="0"/>
        <pt x="1500" y="670" on="1"/>
        <pt x="1500" y="485" on="0"/>
        <pt x="1319" y="168" on="0"/>
        <pt x="998" y="-20" on="0"/>
        <pt x="808" y="-20" on="1"/>
        <pt x="622" y="-20" on="0"/>
        <pt x="302" y="164" on="0"/>
        <pt x="118" y="484" on="0"/>
      </contour>
      <contour>
        <pt x="188" y="670" on="1"/>
        <pt x="188" y="503" on="0"/>
        <pt x="355" y="214" on="0"/>
        <pt x="642" y="49" on="0"/>
        <pt x="808" y="49" on="1"/>
        <pt x="975" y="49" on="0"/>
        <pt x="1263" y="214" on="0"/>
        <pt x="1431" y="502" on="0"/>
        <pt x="1431" y="670" on="1"/>
        <pt x="1431" y="838" on="0"/>
        <pt x="1261" y="1128" on="0"/>
        <pt x="975" y="1292" on="0"/>
        <pt x="808" y="1292" on="1"/>
        <pt x="641" y="1292" on="0"/>
        <pt x="353" y="1125" on="0"/>
        <pt x="188" y="836" on="0"/>
      </contour>
      <contour>
        <pt x="825" y="258" on="1"/>
        <pt x="630" y="258" on="0"/>
        <pt x="409" y="471" on="0"/>
        <pt x="409" y="664" on="1"/>
        <pt x="409" y="873" on="0"/>
        <pt x="620" y="1085" on="0"/>
        <pt x="827" y="1085" on="1"/>
        <pt x="942" y="1085" on="0"/>
        <pt x="1095" y="1055" on="1"/>
        <pt x="1099" y="868" on="1"/>
        <pt x="1050" y="868" on="1"/>
        <pt x="1031" y="973" on="1"/>
        <pt x="949" y="1024" on="0"/>
        <pt x="831" y="1024" on="1"/>
        <pt x="684" y="1024" on="0"/>
        <pt x="556" y="854" on="0"/>
        <pt x="556" y="666" on="1"/>
        <pt x="556" y="317" on="0"/>
        <pt x="825" y="317" on="1"/>
        <pt x="966" y="317" on="0"/>
        <pt x="1040" y="377" on="1"/>
        <pt x="1062" y="496" on="1"/>
        <pt x="1111" y="496" on="1"/>
        <pt x="1107" y="297" on="1"/>
        <pt x="983" y="258" on="0"/>
      </contour>
    </TTGlyph>
    <TTGlyph name="currency" xMin="105" yMin="260" xMax="939" yMax="1094">
      <contour>
        <pt x="132" y="676" on="1"/>
        <pt x="132" y="810" on="0"/>
        <pt x="212" y="913" on="1"/>
        <pt x="105" y="1020" on="1"/>
        <pt x="179" y="1094" on="1"/>
        <pt x="283" y="985" on="1"/>
        <pt x="391" y="1067" on="0"/>
        <pt x="521" y="1067" on="1"/>
        <pt x="651" y="1067" on="0"/>
        <pt x="759" y="985" on="1"/>
        <pt x="867" y="1094" on="1"/>
        <pt x="939" y="1022" on="1"/>
        <pt x="830" y="913" on="1"/>
        <pt x="912" y="803" on="0"/>
        <pt x="912" y="676" on="1"/>
        <pt x="912" y="546" on="0"/>
        <pt x="830" y="438" on="1"/>
        <pt x="939" y="332" on="1"/>
        <pt x="867" y="260" on="1"/>
        <pt x="759" y="367" on="1"/>
        <pt x="656" y="287" on="0"/>
        <pt x="521" y="287" on="1"/>
        <pt x="388" y="287" on="0"/>
        <pt x="283" y="367" on="1"/>
        <pt x="177" y="260" on="1"/>
        <pt x="105" y="332" on="1"/>
        <pt x="212" y="438" on="1"/>
        <pt x="132" y="543" on="0"/>
      </contour>
      <contour>
        <pt x="228" y="676" on="1"/>
        <pt x="228" y="599" on="0"/>
        <pt x="307" y="463" on="0"/>
        <pt x="443" y="383" on="0"/>
        <pt x="521" y="383" on="1"/>
        <pt x="641" y="383" on="0"/>
        <pt x="816" y="555" on="0"/>
        <pt x="816" y="676" on="1"/>
        <pt x="816" y="797" on="0"/>
        <pt x="642" y="971" on="0"/>
        <pt x="521" y="971" on="1"/>
        <pt x="444" y="971" on="0"/>
        <pt x="309" y="893" on="0"/>
        <pt x="228" y="755" on="0"/>
      </contour>
    </TTGlyph>
    <TTGlyph name="cyrillic_otmark" xMin="-438" yMin="1132" xMax="468" yMax="1341">
      <contour>
        <pt x="347" y="1132" on="1"/>
        <pt x="293" y="1132" on="1"/>
        <pt x="263" y="1242" on="1"/>
        <pt x="76" y="1242" on="1"/>
        <pt x="8" y="1132" on="1"/>
        <pt x="-45" y="1132" on="1"/>
        <pt x="-75" y="1242" on="1"/>
        <pt x="-262" y="1242" on="1"/>
        <pt x="-330" y="1132" on="1"/>
        <pt x="-384" y="1132" on="1"/>
        <pt x="-438" y="1304" on="1"/>
        <pt x="-431" y="1341" on="1"/>
        <pt x="468" y="1341" on="1"/>
        <pt x="461" y="1304" on="1"/>
      </contour>
    </TTGlyph>
    <TTGlyph name="cyrillicbreve" xMin="139" yMin="1122" xMax="856" yMax="1457">
      <contour>
        <pt x="496" y="1218" on="1"/>
        <pt x="580" y="1218" on="0"/>
        <pt x="716" y="1320" on="0"/>
        <pt x="792" y="1457" on="1"/>
        <pt x="856" y="1429" on="1"/>
        <pt x="799" y="1313" on="0"/>
        <pt x="690" y="1193" on="0"/>
        <pt x="548" y="1122" on="0"/>
        <pt x="454" y="1122" on="1"/>
        <pt x="189" y="1122" on="0"/>
        <pt x="139" y="1364" on="1"/>
        <pt x="306" y="1392" on="1"/>
        <pt x="325" y="1307" on="0"/>
        <pt x="415" y="1218" on="0"/>
      </contour>
    </TTGlyph>
    <TTGlyph name="d" xMin="62" yMin="-21" xMax="1029" yMax="1421">
      <contour>
        <pt x="783" y="941" on="1"/>
        <pt x="787" y="989" on="0"/>
        <pt x="851" y="1352" on="1"/>
        <pt x="697" y="1376" on="1"/>
        <pt x="705" y="1421" on="1"/>
        <pt x="1029" y="1421" on="1"/>
        <pt x="789" y="70" on="1"/>
        <pt x="902" y="45" on="1"/>
        <pt x="894" y="0" on="1"/>
        <pt x="609" y="0" on="1"/>
        <pt x="638" y="156" on="1"/>
        <pt x="469" y="-21" on="0"/>
        <pt x="329" y="-21" on="1"/>
        <pt x="206" y="-21" on="0"/>
        <pt x="62" y="164" on="0"/>
        <pt x="62" y="317" on="1"/>
        <pt x="62" y="488" on="0"/>
        <pt x="209" y="789" on="0"/>
        <pt x="465" y="964" on="0"/>
        <pt x="618" y="964" on="1"/>
        <pt x="712" y="964" on="0"/>
      </contour>
      <contour>
        <pt x="760" y="837" on="1"/>
        <pt x="725" y="860" on="0"/>
        <pt x="651" y="886" on="0"/>
        <pt x="598" y="886" on="1"/>
        <pt x="504" y="886" on="0"/>
        <pt x="340" y="738" on="0"/>
        <pt x="240" y="478" on="0"/>
        <pt x="240" y="339" on="1"/>
        <pt x="240" y="232" on="0"/>
        <pt x="328" y="104" on="0"/>
        <pt x="403" y="104" on="1"/>
        <pt x="459" y="104" on="0"/>
        <pt x="590" y="177" on="0"/>
        <pt x="651" y="243" on="1"/>
      </contour>
    </TTGlyph>
    <TTGlyph name="dagesh" xMin="-49" yMin="625" xMax="111" yMax="782">
      <contour>
        <pt x="-49" y="702" on="1"/>
        <pt x="-49" y="737" on="0"/>
        <pt x="-1" y="782" on="0"/>
        <pt x="31" y="782" on="1"/>
        <pt x="63" y="782" on="0"/>
        <pt x="111" y="737" on="0"/>
        <pt x="111" y="702" on="1"/>
        <pt x="111" y="670" on="0"/>
        <pt x="63" y="625" on="0"/>
        <pt x="31" y="625" on="1"/>
        <pt x="-1" y="625" on="0"/>
        <pt x="-49" y="670" on="0"/>
      </contour>
    </TTGlyph>
    <TTGlyph name="dagger" xMin="135" yMin="-240" xMax="1060" yMax="1421">
      <contour>
        <pt x="664" y="780" on="1"/>
        <pt x="407" y="-240" on="1"/>
        <pt x="361" y="-240" on="1"/>
        <pt x="468" y="780" on="1"/>
        <pt x="559" y="940" on="1"/>
        <pt x="135" y="893" on="1"/>
        <pt x="162" y="1049" on="1"/>
        <pt x="571" y="1006" on="1"/>
        <pt x="601" y="1421" on="1"/>
        <pt x="757" y="1421" on="1"/>
        <pt x="637" y="1006" on="1"/>
        <pt x="1060" y="1049" on="1"/>
        <pt x="1033" y="893" on="1"/>
        <pt x="625" y="940" on="1"/>
      </contour>
    </TTGlyph>
    <TTGlyph name="daggerdbl" xMin="3" yMin="-240" xMax="1061" yMax="1421">
      <contour>
        <pt x="402" y="401" on="1"/>
        <pt x="508" y="590" on="1"/>
        <pt x="469" y="780" on="1"/>
        <pt x="560" y="940" on="1"/>
        <pt x="136" y="893" on="1"/>
        <pt x="163" y="1049" on="1"/>
        <pt x="572" y="1006" on="1"/>
        <pt x="602" y="1421" on="1"/>
        <pt x="758" y="1421" on="1"/>
        <pt x="638" y="1006" on="1"/>
        <pt x="1061" y="1049" on="1"/>
        <pt x="1034" y="893" on="1"/>
        <pt x="626" y="940" on="1"/>
        <pt x="665" y="780" on="1"/>
        <pt x="554" y="590" on="1"/>
        <pt x="598" y="401" on="1"/>
        <pt x="503" y="242" on="1"/>
        <pt x="927" y="289" on="1"/>
        <pt x="900" y="133" on="1"/>
        <pt x="491" y="176" on="1"/>
        <pt x="465" y="-240" on="1"/>
        <pt x="309" y="-240" on="1"/>
        <pt x="425" y="176" on="1"/>
        <pt x="3" y="133" on="1"/>
        <pt x="29" y="289" on="1"/>
        <pt x="437" y="242" on="1"/>
      </contour>
    </TTGlyph>
    <TTGlyph name="dalet" xMin="117" yMin="-25" xMax="983" yMax="1204">
      <contour>
        <pt x="223" y="952" on="1"/>
        <pt x="160" y="952" on="0"/>
        <pt x="117" y="1000" on="0"/>
        <pt x="117" y="1047" on="1"/>
        <pt x="117" y="1097" on="0"/>
        <pt x="182" y="1204" on="0"/>
        <pt x="209" y="1204" on="1"/>
        <pt x="219" y="1204" on="0"/>
        <pt x="219" y="1188" on="1"/>
        <pt x="213" y="1164" on="0"/>
        <pt x="213" y="1157" on="1"/>
        <pt x="213" y="1133" on="0"/>
        <pt x="252" y="1133" on="1"/>
        <pt x="909" y="1133" on="1"/>
        <pt x="983" y="1133" on="0"/>
        <pt x="983" y="1077" on="1"/>
        <pt x="983" y="1065" on="1"/>
        <pt x="981" y="1053" on="1"/>
        <pt x="969" y="985" on="1"/>
        <pt x="966" y="971" on="0"/>
        <pt x="960" y="960" on="0"/>
        <pt x="952" y="958" on="1"/>
        <pt x="882" y="943" on="0"/>
        <pt x="807" y="758" on="0"/>
        <pt x="784" y="537" on="1"/>
        <pt x="758" y="276" on="0"/>
        <pt x="733" y="123" on="0"/>
        <pt x="713" y="80" on="0"/>
        <pt x="670" y="40" on="0"/>
        <pt x="564" y="-25" on="0"/>
        <pt x="551" y="-25" on="1"/>
        <pt x="537" y="-25" on="0"/>
        <pt x="537" y="-10" on="1"/>
        <pt x="541" y="4" on="1"/>
        <pt x="582" y="85" on="0"/>
        <pt x="610" y="246" on="1"/>
        <pt x="641" y="436" on="1"/>
        <pt x="681" y="695" on="0"/>
        <pt x="751" y="873" on="0"/>
        <pt x="834" y="952" on="1"/>
      </contour>
    </TTGlyph>
    <TTGlyph name="daletdagesh" xMin="117" yMin="-25" xMax="983" yMax="1204">
      <component glyphName="dalet" x="0" y="0" flags="0x204"/>
      <component glyphName="dagesh" x="362" y="-155" flags="0x4"/>
    </TTGlyph>
    <TTGlyph name="daletwide" xMin="117" yMin="-25" xMax="983" yMax="1204">
      <component glyphName="dalet" x="0" y="0" flags="0x204"/>
    </TTGlyph>
    <TTGlyph name="dcaron" xMin="62" yMin="-21" xMax="1375" yMax="1421">
      <component glyphName="d" x="0" y="0" flags="0x4"/>
      <component glyphName="caroncommaaccent" x="1019" y="80" flags="0x4"/>
    </TTGlyph>
    <TTGlyph name="degree" xMin="164" yMin="741" xMax="785" yMax="1362">
      <contour>
        <pt x="164" y="1051" on="1"/>
        <pt x="164" y="1134" on="0"/>
        <pt x="246" y="1278" on="0"/>
        <pt x="391" y="1362" on="0"/>
        <pt x="474" y="1362" on="1"/>
        <pt x="557" y="1362" on="0"/>
        <pt x="701" y="1279" on="0"/>
        <pt x="785" y="1135" on="0"/>
        <pt x="785" y="1051" on="1"/>
        <pt x="785" y="967" on="0"/>
        <pt x="700" y="822" on="0"/>
        <pt x="556" y="741" on="0"/>
        <pt x="474" y="741" on="1"/>
        <pt x="344" y="741" on="0"/>
        <pt x="164" y="921" on="0"/>
      </contour>
      <contour>
        <pt x="266" y="1051" on="1"/>
        <pt x="266" y="962" on="0"/>
        <pt x="389" y="841" on="0"/>
        <pt x="474" y="841" on="1"/>
        <pt x="562" y="841" on="0"/>
        <pt x="683" y="963" on="0"/>
        <pt x="683" y="1051" on="1"/>
        <pt x="683" y="1140" on="0"/>
        <pt x="562" y="1262" on="0"/>
        <pt x="474" y="1262" on="1"/>
        <pt x="389" y="1262" on="0"/>
        <pt x="266" y="1141" on="0"/>
      </contour>
    </TTGlyph>
    <TTGlyph name="delta" xMin="60" yMin="-20" xMax="979" yMax="1431">
      <contour>
        <pt x="420" y="-20" on="1"/>
        <pt x="253" y="-20" on="0"/>
        <pt x="60" y="172" on="0"/>
        <pt x="60" y="340" on="1"/>
        <pt x="60" y="527" on="0"/>
        <pt x="292" y="799" on="0"/>
        <pt x="525" y="870" on="1"/>
        <pt x="379" y="1026" on="0"/>
        <pt x="379" y="1169" on="1"/>
        <pt x="379" y="1294" on="0"/>
        <pt x="567" y="1431" on="0"/>
        <pt x="739" y="1431" on="1"/>
        <pt x="849" y="1431" on="0"/>
        <pt x="979" y="1393" on="1"/>
        <pt x="944" y="1195" on="1"/>
        <pt x="897" y="1195" on="1"/>
        <pt x="874" y="1304" on="1"/>
        <pt x="852" y="1327" on="0"/>
        <pt x="772" y="1351" on="0"/>
        <pt x="727" y="1351" on="1"/>
        <pt x="640" y="1351" on="0"/>
        <pt x="532" y="1268" on="0"/>
        <pt x="532" y="1185" on="1"/>
        <pt x="532" y="1132" on="0"/>
        <pt x="603" y="1014" on="0"/>
        <pt x="717" y="901" on="1"/>
        <pt x="811" y="805" on="0"/>
        <pt x="899" y="614" on="0"/>
        <pt x="899" y="499" on="1"/>
        <pt x="899" y="358" on="0"/>
        <pt x="775" y="112" on="0"/>
        <pt x="559" y="-20" on="0"/>
      </contour>
      <contour>
        <pt x="429" y="59" on="1"/>
        <pt x="515" y="59" on="0"/>
        <pt x="645" y="166" on="0"/>
        <pt x="720" y="381" on="0"/>
        <pt x="720" y="498" on="1"/>
        <pt x="720" y="682" on="0"/>
        <pt x="576" y="818" on="1"/>
        <pt x="414" y="766" on="0"/>
        <pt x="231" y="492" on="0"/>
        <pt x="231" y="316" on="1"/>
        <pt x="231" y="190" on="0"/>
        <pt x="332" y="59" on="0"/>
      </contour>
    </TTGlyph>
    <TTGlyph name="diamond" xMin="66" yMin="-25" xMax="978" yMax="1223">
      <contour>
        <pt x="519" y="1223" on="1"/>
        <pt x="591" y="1098" on="0"/>
        <pt x="856" y="737" on="0"/>
        <pt x="978" y="600" on="1"/>
        <pt x="910" y="530" on="0"/>
        <pt x="604" y="123" on="0"/>
        <pt x="521" y="-25" on="1"/>
        <pt x="484" y="46" on="0"/>
        <pt x="299" y="307" on="0"/>
        <pt x="151" y="498" on="0"/>
        <pt x="66" y="600" on="1"/>
        <pt x="182" y="737" on="0"/>
        <pt x="441" y="1082" on="0"/>
      </contour>
    </TTGlyph>
    <TTGlyph name="dieresis" xMin="205" yMin="1130" xMax="760" yMax="1331">
      <contour>
        <pt x="760" y="1231" on="1"/>
        <pt x="760" y="1189" on="0"/>
        <pt x="704" y="1130" on="0"/>
        <pt x="662" y="1130" on="1"/>
        <pt x="620" y="1130" on="0"/>
        <pt x="562" y="1192" on="0"/>
        <pt x="562" y="1231" on="1"/>
        <pt x="562" y="1273" on="0"/>
        <pt x="620" y="1331" on="0"/>
        <pt x="662" y="1331" on="1"/>
        <pt x="704" y="1331" on="0"/>
        <pt x="760" y="1273" on="0"/>
      </contour>
      <contour>
        <pt x="404" y="1231" on="1"/>
        <pt x="404" y="1189" on="0"/>
        <pt x="348" y="1130" on="0"/>
        <pt x="306" y="1130" on="1"/>
        <pt x="265" y="1130" on="0"/>
        <pt x="205" y="1190" on="0"/>
        <pt x="205" y="1231" on="1"/>
        <pt x="205" y="1273" on="0"/>
        <pt x="267" y="1331" on="0"/>
        <pt x="306" y="1331" on="1"/>
        <pt x="348" y="1331" on="0"/>
        <pt x="404" y="1273" on="0"/>
      </contour>
    </TTGlyph>
    <TTGlyph name="dieresistonos" xMin="51" yMin="1118" xMax="630" yMax="1474">
      <contour>
        <pt x="630" y="1212" on="1"/>
        <pt x="630" y="1174" on="0"/>
        <pt x="580" y="1121" on="0"/>
        <pt x="542" y="1121" on="1"/>
        <pt x="505" y="1121" on="0"/>
        <pt x="452" y="1174" on="0"/>
        <pt x="452" y="1212" on="1"/>
        <pt x="452" y="1250" on="0"/>
        <pt x="505" y="1302" on="0"/>
        <pt x="542" y="1302" on="1"/>
        <pt x="580" y="1302" on="0"/>
        <pt x="630" y="1250" on="0"/>
      </contour>
      <contour>
        <pt x="230" y="1212" on="1"/>
        <pt x="230" y="1174" on="0"/>
        <pt x="179" y="1121" on="0"/>
        <pt x="142" y="1121" on="1"/>
        <pt x="104" y="1121" on="0"/>
        <pt x="51" y="1174" on="0"/>
        <pt x="51" y="1212" on="1"/>
        <pt x="51" y="1250" on="0"/>
        <pt x="104" y="1302" on="0"/>
        <pt x="142" y="1302" on="1"/>
        <pt x="179" y="1302" on="0"/>
        <pt x="230" y="1250" on="0"/>
      </contour>
      <contour>
        <pt x="257" y="1118" on="1"/>
        <pt x="262" y="1151" on="1"/>
        <pt x="366" y="1474" on="1"/>
        <pt x="549" y="1474" on="1"/>
        <pt x="543" y="1437" on="1"/>
        <pt x="312" y="1118" on="1"/>
      </contour>
    </TTGlyph>
    <TTGlyph name="divide" xMin="116" yMin="201" xMax="1069" yMax="1159">
      <contour>
        <pt x="688" y="1063" on="1"/>
        <pt x="688" y="1023" on="0"/>
        <pt x="632" y="967" on="0"/>
        <pt x="592" y="967" on="1"/>
        <pt x="551" y="967" on="0"/>
        <pt x="495" y="1023" on="0"/>
        <pt x="495" y="1063" on="1"/>
        <pt x="495" y="1103" on="0"/>
        <pt x="551" y="1159" on="0"/>
        <pt x="592" y="1159" on="1"/>
        <pt x="632" y="1159" on="0"/>
        <pt x="688" y="1103" on="0"/>
      </contour>
      <contour>
        <pt x="688" y="297" on="1"/>
        <pt x="688" y="257" on="0"/>
        <pt x="632" y="201" on="0"/>
        <pt x="592" y="201" on="1"/>
        <pt x="551" y="201" on="0"/>
        <pt x="495" y="257" on="0"/>
        <pt x="495" y="297" on="1"/>
        <pt x="495" y="337" on="0"/>
        <pt x="551" y="393" on="0"/>
        <pt x="592" y="393" on="1"/>
        <pt x="632" y="393" on="0"/>
        <pt x="688" y="337" on="0"/>
      </contour>
      <contour>
        <pt x="1069" y="731" on="1"/>
        <pt x="1069" y="629" on="1"/>
        <pt x="116" y="629" on="1"/>
        <pt x="116" y="731" on="1"/>
      </contour>
    </TTGlyph>
    <TTGlyph name="dkshade" xMin="0" yMin="-621" xMax="1493" yMax="1699">
      <contour>
        <pt x="1493" y="-621" on="1"/>
        <pt x="0" y="-621" on="1"/>
        <pt x="0" y="-331" on="1"/>
        <pt x="106" y="-331" on="1"/>
        <pt x="106" y="-234" on="1"/>
        <pt x="0" y="-234" on="1"/>
        <pt x="0" y="56" on="1"/>
        <pt x="106" y="56" on="1"/>
        <pt x="106" y="153" on="1"/>
        <pt x="0" y="153" on="1"/>
        <pt x="0" y="444" on="1"/>
        <pt x="106" y="444" on="1"/>
        <pt x="106" y="540" on="1"/>
        <pt x="0" y="540" on="1"/>
        <pt x="0" y="829" on="1"/>
        <pt x="106" y="829" on="1"/>
        <pt x="106" y="927" on="1"/>
        <pt x="0" y="927" on="1"/>
        <pt x="0" y="1216" on="1"/>
        <pt x="106" y="1216" on="1"/>
        <pt x="106" y="1314" on="1"/>
        <pt x="0" y="1314" on="1"/>
        <pt x="0" y="1603" on="1"/>
        <pt x="106" y="1603" on="1"/>
        <pt x="106" y="1699" on="1"/>
        <pt x="213" y="1699" on="1"/>
        <pt x="213" y="1603" on="1"/>
        <pt x="319" y="1603" on="1"/>
        <pt x="319" y="1699" on="1"/>
        <pt x="426" y="1699" on="1"/>
        <pt x="426" y="1603" on="1"/>
        <pt x="532" y="1603" on="1"/>
        <pt x="532" y="1699" on="1"/>
        <pt x="639" y="1699" on="1"/>
        <pt x="639" y="1603" on="1"/>
        <pt x="746" y="1603" on="1"/>
        <pt x="746" y="1699" on="1"/>
        <pt x="853" y="1699" on="1"/>
        <pt x="853" y="1603" on="1"/>
        <pt x="960" y="1603" on="1"/>
        <pt x="960" y="1699" on="1"/>
        <pt x="1067" y="1699" on="1"/>
        <pt x="1067" y="1603" on="1"/>
        <pt x="1173" y="1603" on="1"/>
        <pt x="1173" y="1699" on="1"/>
        <pt x="1280" y="1699" on="1"/>
        <pt x="1280" y="1603" on="1"/>
        <pt x="1386" y="1603" on="1"/>
        <pt x="1386" y="1699" on="1"/>
        <pt x="1493" y="1699" on="1"/>
        <pt x="1493" y="1506" on="1"/>
        <pt x="1386" y="1506" on="1"/>
        <pt x="1386" y="1408" on="1"/>
        <pt x="1493" y="1408" on="1"/>
        <pt x="1493" y="1119" on="1"/>
        <pt x="1386" y="1119" on="1"/>
        <pt x="1386" y="1023" on="1"/>
        <pt x="1493" y="1023" on="1"/>
        <pt x="1493" y="732" on="1"/>
        <pt x="1386" y="732" on="1"/>
        <pt x="1386" y="636" on="1"/>
        <pt x="1493" y="636" on="1"/>
        <pt x="1493" y="345" on="1"/>
        <pt x="1386" y="345" on="1"/>
        <pt x="1386" y="249" on="1"/>
        <pt x="1493" y="249" on="1"/>
        <pt x="1493" y="-42" on="1"/>
        <pt x="1386" y="-42" on="1"/>
        <pt x="1386" y="-136" on="1"/>
        <pt x="1493" y="-136" on="1"/>
        <pt x="1493" y="-427" on="1"/>
        <pt x="1386" y="-427" on="1"/>
        <pt x="1386" y="-523" on="1"/>
        <pt x="1493" y="-523" on="1"/>
      </contour>
      <contour>
        <pt x="106" y="1119" on="1"/>
        <pt x="106" y="1023" on="1"/>
        <pt x="213" y="1023" on="1"/>
        <pt x="213" y="1119" on="1"/>
      </contour>
      <contour>
        <pt x="319" y="1119" on="1"/>
        <pt x="319" y="1023" on="1"/>
        <pt x="426" y="1023" on="1"/>
        <pt x="426" y="1119" on="1"/>
      </contour>
      <contour>
        <pt x="532" y="1119" on="1"/>
        <pt x="532" y="1023" on="1"/>
        <pt x="639" y="1023" on="1"/>
        <pt x="639" y="1119" on="1"/>
      </contour>
      <contour>
        <pt x="746" y="1119" on="1"/>
        <pt x="746" y="1023" on="1"/>
        <pt x="853" y="1023" on="1"/>
        <pt x="853" y="1119" on="1"/>
      </contour>
      <contour>
        <pt x="960" y="927" on="1"/>
        <pt x="853" y="927" on="1"/>
        <pt x="853" y="829" on="1"/>
        <pt x="960" y="829" on="1"/>
      </contour>
      <contour>
        <pt x="746" y="927" on="1"/>
        <pt x="639" y="927" on="1"/>
        <pt x="639" y="829" on="1"/>
        <pt x="746" y="829" on="1"/>
      </contour>
      <contour>
        <pt x="532" y="927" on="1"/>
        <pt x="426" y="927" on="1"/>
        <pt x="426" y="829" on="1"/>
        <pt x="532" y="829" on="1"/>
      </contour>
      <contour>
        <pt x="319" y="927" on="1"/>
        <pt x="213" y="927" on="1"/>
        <pt x="213" y="829" on="1"/>
        <pt x="319" y="829" on="1"/>
      </contour>
      <contour>
        <pt x="106" y="732" on="1"/>
        <pt x="106" y="636" on="1"/>
        <pt x="213" y="636" on="1"/>
        <pt x="213" y="732" on="1"/>
      </contour>
      <contour>
        <pt x="319" y="732" on="1"/>
        <pt x="319" y="636" on="1"/>
        <pt x="426" y="636" on="1"/>
        <pt x="426" y="732" on="1"/>
      </contour>
      <contour>
        <pt x="532" y="732" on="1"/>
        <pt x="532" y="636" on="1"/>
        <pt x="639" y="636" on="1"/>
        <pt x="639" y="732" on="1"/>
      </contour>
      <contour>
        <pt x="746" y="732" on="1"/>
        <pt x="746" y="636" on="1"/>
        <pt x="853" y="636" on="1"/>
        <pt x="853" y="732" on="1"/>
      </contour>
      <contour>
        <pt x="319" y="540" on="1"/>
        <pt x="213" y="540" on="1"/>
        <pt x="213" y="444" on="1"/>
        <pt x="319" y="444" on="1"/>
      </contour>
      <contour>
        <pt x="426" y="540" on="1"/>
        <pt x="426" y="444" on="1"/>
        <pt x="532" y="444" on="1"/>
        <pt x="532" y="540" on="1"/>
      </contour>
      <contour>
        <pt x="639" y="540" on="1"/>
        <pt x="639" y="444" on="1"/>
        <pt x="746" y="444" on="1"/>
        <pt x="746" y="540" on="1"/>
      </contour>
      <contour>
        <pt x="853" y="540" on="1"/>
        <pt x="853" y="444" on="1"/>
        <pt x="960" y="444" on="1"/>
        <pt x="960" y="540" on="1"/>
      </contour>
      <contour>
        <pt x="106" y="345" on="1"/>
        <pt x="106" y="249" on="1"/>
        <pt x="213" y="249" on="1"/>
        <pt x="213" y="345" on="1"/>
      </contour>
      <contour>
        <pt x="532" y="345" on="1"/>
        <pt x="532" y="249" on="1"/>
        <pt x="639" y="249" on="1"/>
        <pt x="639" y="345" on="1"/>
      </contour>
      <contour>
        <pt x="426" y="249" on="1"/>
        <pt x="426" y="345" on="1"/>
        <pt x="319" y="345" on="1"/>
        <pt x="319" y="249" on="1"/>
      </contour>
      <contour>
        <pt x="746" y="345" on="1"/>
        <pt x="746" y="249" on="1"/>
        <pt x="853" y="249" on="1"/>
        <pt x="853" y="345" on="1"/>
      </contour>
      <contour>
        <pt x="960" y="56" on="1"/>
        <pt x="960" y="153" on="1"/>
        <pt x="853" y="153" on="1"/>
        <pt x="853" y="56" on="1"/>
      </contour>
      <contour>
        <pt x="746" y="56" on="1"/>
        <pt x="746" y="153" on="1"/>
        <pt x="639" y="153" on="1"/>
        <pt x="639" y="56" on="1"/>
      </contour>
      <contour>
        <pt x="532" y="56" on="1"/>
        <pt x="532" y="153" on="1"/>
        <pt x="426" y="153" on="1"/>
        <pt x="426" y="56" on="1"/>
      </contour>
      <contour>
        <pt x="319" y="56" on="1"/>
        <pt x="319" y="153" on="1"/>
        <pt x="213" y="153" on="1"/>
        <pt x="213" y="56" on="1"/>
      </contour>
      <contour>
        <pt x="106" y="-42" on="1"/>
        <pt x="106" y="-136" on="1"/>
        <pt x="213" y="-136" on="1"/>
        <pt x="213" y="-42" on="1"/>
      </contour>
      <contour>
        <pt x="319" y="-42" on="1"/>
        <pt x="319" y="-136" on="1"/>
        <pt x="426" y="-136" on="1"/>
        <pt x="426" y="-42" on="1"/>
      </contour>
      <contour>
        <pt x="532" y="-42" on="1"/>
        <pt x="532" y="-136" on="1"/>
        <pt x="639" y="-136" on="1"/>
        <pt x="639" y="-42" on="1"/>
      </contour>
      <contour>
        <pt x="746" y="-42" on="1"/>
        <pt x="746" y="-136" on="1"/>
        <pt x="853" y="-136" on="1"/>
        <pt x="853" y="-42" on="1"/>
      </contour>
      <contour>
        <pt x="960" y="-331" on="1"/>
        <pt x="960" y="-234" on="1"/>
        <pt x="853" y="-234" on="1"/>
        <pt x="853" y="-331" on="1"/>
      </contour>
      <contour>
        <pt x="746" y="-331" on="1"/>
        <pt x="746" y="-234" on="1"/>
        <pt x="639" y="-234" on="1"/>
        <pt x="639" y="-331" on="1"/>
      </contour>
      <contour>
        <pt x="532" y="-331" on="1"/>
        <pt x="532" y="-234" on="1"/>
        <pt x="426" y="-234" on="1"/>
        <pt x="426" y="-331" on="1"/>
      </contour>
      <contour>
        <pt x="319" y="-331" on="1"/>
        <pt x="319" y="-234" on="1"/>
        <pt x="213" y="-234" on="1"/>
        <pt x="213" y="-331" on="1"/>
      </contour>
      <contour>
        <pt x="106" y="-427" on="1"/>
        <pt x="106" y="-523" on="1"/>
        <pt x="213" y="-523" on="1"/>
        <pt x="213" y="-427" on="1"/>
      </contour>
      <contour>
        <pt x="319" y="-427" on="1"/>
        <pt x="319" y="-523" on="1"/>
        <pt x="426" y="-523" on="1"/>
        <pt x="426" y="-427" on="1"/>
      </contour>
      <contour>
        <pt x="532" y="-427" on="1"/>
        <pt x="532" y="-523" on="1"/>
        <pt x="639" y="-523" on="1"/>
        <pt x="639" y="-427" on="1"/>
      </contour>
      <contour>
        <pt x="746" y="-427" on="1"/>
        <pt x="746" y="-523" on="1"/>
        <pt x="853" y="-523" on="1"/>
        <pt x="853" y="-427" on="1"/>
      </contour>
      <contour>
        <pt x="960" y="1314" on="1"/>
        <pt x="853" y="1314" on="1"/>
        <pt x="853" y="1216" on="1"/>
        <pt x="960" y="1216" on="1"/>
      </contour>
      <contour>
        <pt x="746" y="1314" on="1"/>
        <pt x="639" y="1314" on="1"/>
        <pt x="639" y="1216" on="1"/>
        <pt x="746" y="1216" on="1"/>
      </contour>
      <contour>
        <pt x="532" y="1314" on="1"/>
        <pt x="426" y="1314" on="1"/>
        <pt x="426" y="1216" on="1"/>
        <pt x="532" y="1216" on="1"/>
      </contour>
      <contour>
        <pt x="319" y="1314" on="1"/>
        <pt x="213" y="1314" on="1"/>
        <pt x="213" y="1216" on="1"/>
        <pt x="319" y="1216" on="1"/>
      </contour>
      <contour>
        <pt x="853" y="1506" on="1"/>
        <pt x="746" y="1506" on="1"/>
        <pt x="746" y="1408" on="1"/>
        <pt x="853" y="1408" on="1"/>
      </contour>
      <contour>
        <pt x="639" y="1506" on="1"/>
        <pt x="532" y="1506" on="1"/>
        <pt x="532" y="1408" on="1"/>
        <pt x="639" y="1408" on="1"/>
      </contour>
      <contour>
        <pt x="426" y="1506" on="1"/>
        <pt x="319" y="1506" on="1"/>
        <pt x="319" y="1408" on="1"/>
        <pt x="426" y="1408" on="1"/>
      </contour>
      <contour>
        <pt x="213" y="1506" on="1"/>
        <pt x="106" y="1506" on="1"/>
        <pt x="106" y="1408" on="1"/>
        <pt x="213" y="1408" on="1"/>
      </contour>
      <contour>
        <pt x="960" y="1119" on="1"/>
        <pt x="960" y="1023" on="1"/>
        <pt x="1067" y="1023" on="1"/>
        <pt x="1067" y="1119" on="1"/>
      </contour>
      <contour>
        <pt x="1173" y="1119" on="1"/>
        <pt x="1173" y="1023" on="1"/>
        <pt x="1280" y="1023" on="1"/>
        <pt x="1280" y="1119" on="1"/>
      </contour>
      <contour>
        <pt x="1386" y="927" on="1"/>
        <pt x="1280" y="927" on="1"/>
        <pt x="1280" y="829" on="1"/>
        <pt x="1386" y="829" on="1"/>
      </contour>
      <contour>
        <pt x="1173" y="927" on="1"/>
        <pt x="1067" y="927" on="1"/>
        <pt x="1067" y="829" on="1"/>
        <pt x="1173" y="829" on="1"/>
      </contour>
      <contour>
        <pt x="960" y="732" on="1"/>
        <pt x="960" y="636" on="1"/>
        <pt x="1067" y="636" on="1"/>
        <pt x="1067" y="732" on="1"/>
      </contour>
      <contour>
        <pt x="1173" y="732" on="1"/>
        <pt x="1173" y="636" on="1"/>
        <pt x="1280" y="636" on="1"/>
        <pt x="1280" y="732" on="1"/>
      </contour>
      <contour>
        <pt x="1173" y="540" on="1"/>
        <pt x="1067" y="540" on="1"/>
        <pt x="1067" y="444" on="1"/>
        <pt x="1173" y="444" on="1"/>
      </contour>
      <contour>
        <pt x="1280" y="540" on="1"/>
        <pt x="1280" y="444" on="1"/>
        <pt x="1386" y="444" on="1"/>
        <pt x="1386" y="540" on="1"/>
      </contour>
      <contour>
        <pt x="960" y="345" on="1"/>
        <pt x="960" y="249" on="1"/>
        <pt x="1067" y="249" on="1"/>
        <pt x="1067" y="345" on="1"/>
      </contour>
      <contour>
        <pt x="1280" y="249" on="1"/>
        <pt x="1280" y="345" on="1"/>
        <pt x="1173" y="345" on="1"/>
        <pt x="1173" y="249" on="1"/>
      </contour>
      <contour>
        <pt x="1386" y="56" on="1"/>
        <pt x="1386" y="153" on="1"/>
        <pt x="1280" y="153" on="1"/>
        <pt x="1280" y="56" on="1"/>
      </contour>
      <contour>
        <pt x="1173" y="56" on="1"/>
        <pt x="1173" y="153" on="1"/>
        <pt x="1067" y="153" on="1"/>
        <pt x="1067" y="56" on="1"/>
      </contour>
      <contour>
        <pt x="960" y="-42" on="1"/>
        <pt x="960" y="-136" on="1"/>
        <pt x="1067" y="-136" on="1"/>
        <pt x="1067" y="-42" on="1"/>
      </contour>
      <contour>
        <pt x="1173" y="-42" on="1"/>
        <pt x="1173" y="-136" on="1"/>
        <pt x="1280" y="-136" on="1"/>
        <pt x="1280" y="-42" on="1"/>
      </contour>
      <contour>
        <pt x="1386" y="-331" on="1"/>
        <pt x="1386" y="-234" on="1"/>
        <pt x="1280" y="-234" on="1"/>
        <pt x="1280" y="-331" on="1"/>
      </contour>
      <contour>
        <pt x="1173" y="-331" on="1"/>
        <pt x="1173" y="-234" on="1"/>
        <pt x="1067" y="-234" on="1"/>
        <pt x="1067" y="-331" on="1"/>
      </contour>
      <contour>
        <pt x="960" y="-427" on="1"/>
        <pt x="960" y="-523" on="1"/>
        <pt x="1067" y="-523" on="1"/>
        <pt x="1067" y="-427" on="1"/>
      </contour>
      <contour>
        <pt x="1173" y="-427" on="1"/>
        <pt x="1173" y="-523" on="1"/>
        <pt x="1280" y="-523" on="1"/>
        <pt x="1280" y="-427" on="1"/>
      </contour>
      <contour>
        <pt x="1386" y="1314" on="1"/>
        <pt x="1280" y="1314" on="1"/>
        <pt x="1280" y="1216" on="1"/>
        <pt x="1386" y="1216" on="1"/>
      </contour>
      <contour>
        <pt x="1173" y="1314" on="1"/>
        <pt x="1067" y="1314" on="1"/>
        <pt x="1067" y="1216" on="1"/>
        <pt x="1173" y="1216" on="1"/>
      </contour>
      <contour>
        <pt x="1280" y="1506" on="1"/>
        <pt x="1173" y="1506" on="1"/>
        <pt x="1173" y="1408" on="1"/>
        <pt x="1280" y="1408" on="1"/>
      </contour>
      <contour>
        <pt x="1067" y="1506" on="1"/>
        <pt x="960" y="1506" on="1"/>
        <pt x="960" y="1408" on="1"/>
        <pt x="1067" y="1408" on="1"/>
      </contour>
    </TTGlyph>
    <TTGlyph name="dnblock" xMin="0" yMin="-621" xMax="1451" yMax="621">
      <contour>
        <pt x="1451" y="-621" on="1"/>
        <pt x="0" y="-621" on="1"/>
        <pt x="0" y="621" on="1"/>
        <pt x="1451" y="621" on="1"/>
      </contour>
    </TTGlyph>
    <TTGlyph name="dollar" xMin="24" yMin="-156" xMax="991" yMax="1483">
      <contour>
        <pt x="76" y="371" on="1"/>
        <pt x="141" y="371" on="1"/>
        <pt x="142" y="180" on="1"/>
        <pt x="179" y="127" on="0"/>
        <pt x="321" y="63" on="0"/>
        <pt x="404" y="61" on="1"/>
        <pt x="506" y="638" on="1"/>
        <pt x="372" y="705" on="0"/>
        <pt x="263" y="797" on="0"/>
        <pt x="200" y="912" on="0"/>
        <pt x="200" y="990" on="1"/>
        <pt x="200" y="1163" on="0"/>
        <pt x="420" y="1349" on="0"/>
        <pt x="632" y="1355" on="1"/>
        <pt x="655" y="1483" on="1"/>
        <pt x="737" y="1483" on="1"/>
        <pt x="714" y="1355" on="1"/>
        <pt x="857" y="1352" on="0"/>
        <pt x="991" y="1318" on="1"/>
        <pt x="942" y="1039" on="1"/>
        <pt x="877" y="1039" on="1"/>
        <pt x="872" y="1210" on="1"/>
        <pt x="810" y="1260" on="0"/>
        <pt x="699" y="1270" on="1"/>
        <pt x="614" y="787" on="1"/>
        <pt x="759" y="709" on="0"/>
        <pt x="872" y="611" on="0"/>
        <pt x="940" y="491" on="0"/>
        <pt x="940" y="414" on="1"/>
        <pt x="940" y="219" on="0"/>
        <pt x="705" y="-4" on="0"/>
        <pt x="472" y="-18" on="1"/>
        <pt x="448" y="-156" on="1"/>
        <pt x="366" y="-156" on="1"/>
        <pt x="390" y="-20" on="1"/>
        <pt x="165" y="-16" on="0"/>
        <pt x="24" y="73" on="1"/>
      </contour>
      <contour>
        <pt x="762" y="379" on="1"/>
        <pt x="762" y="428" on="0"/>
        <pt x="726" y="503" on="0"/>
        <pt x="655" y="564" on="0"/>
        <pt x="582" y="601" on="1"/>
        <pt x="487" y="66" on="1"/>
        <pt x="622" y="83" on="0"/>
        <pt x="762" y="244" on="0"/>
      </contour>
      <contour>
        <pt x="375" y="1025" on="1"/>
        <pt x="375" y="964" on="0"/>
        <pt x="450" y="869" on="0"/>
        <pt x="538" y="823" on="1"/>
        <pt x="617" y="1270" on="1"/>
        <pt x="501" y="1261" on="0"/>
        <pt x="375" y="1134" on="0"/>
      </contour>
    </TTGlyph>
    <TTGlyph name="dotaccent" xMin="363" yMin="1139" xMax="580" yMax="1356">
      <contour>
        <pt x="580" y="1247" on="1"/>
        <pt x="580" y="1203" on="0"/>
        <pt x="516" y="1139" on="0"/>
        <pt x="471" y="1139" on="1"/>
        <pt x="427" y="1139" on="0"/>
        <pt x="363" y="1203" on="0"/>
        <pt x="363" y="1247" on="1"/>
        <pt x="363" y="1292" on="0"/>
        <pt x="427" y="1356" on="0"/>
        <pt x="471" y="1356" on="1"/>
        <pt x="516" y="1356" on="0"/>
        <pt x="580" y="1292" on="0"/>
      </contour>
    </TTGlyph>
    <TTGlyph name="dotbelow.alt1" xMin="-241" yMin="-311" xMax="-61" yMax="-139">
      <contour>
        <pt x="-241" y="-311" on="1"/>
        <pt x="-241" y="-139" on="1"/>
        <pt x="-61" y="-139" on="1"/>
        <pt x="-61" y="-311" on="1"/>
      </contour>
    </TTGlyph>
    <TTGlyph name="dotbelow.alt10" xMin="-775" yMin="-311" xMax="-595" yMax="-139">
      <component glyphName="dotbelow.alt1" x="-534" y="0" flags="0x4"/>
    </TTGlyph>
    <TTGlyph name="dotbelow.alt11" xMin="-646" yMin="-311" xMax="-466" yMax="-139">
      <component glyphName="dotbelow.alt1" x="-405" y="0" flags="0x4"/>
    </TTGlyph>
    <TTGlyph name="dotbelow.alt12" xMin="-666" yMin="-311" xMax="-486" yMax="-139">
      <component glyphName="dotbelow.alt1" x="-425" y="0" flags="0x4"/>
    </TTGlyph>
    <TTGlyph name="dotbelow.alt13" xMin="-866" yMin="-311" xMax="-686" yMax="-139">
      <component glyphName="dotbelow.alt1" x="-625" y="0" flags="0x4"/>
    </TTGlyph>
    <TTGlyph name="dotbelow.alt14" xMin="-733" yMin="-311" xMax="-553" yMax="-139">
      <component glyphName="dotbelow.alt1" x="-492" y="0" flags="0x4"/>
    </TTGlyph>
    <TTGlyph name="dotbelow.alt15" xMin="-966" yMin="-311" xMax="-786" yMax="-139">
      <component glyphName="dotbelow.alt1" x="-725" y="0" flags="0x4"/>
    </TTGlyph>
    <TTGlyph name="dotbelow.alt2" xMin="-769" yMin="-311" xMax="-589" yMax="-139">
      <component glyphName="dotbelow.alt1" x="-528" y="0" flags="0x4"/>
    </TTGlyph>
    <TTGlyph name="dotbelow.alt3" xMin="-885" yMin="-311" xMax="-705" yMax="-139">
      <component glyphName="dotbelow.alt1" x="-644" y="0" flags="0x4"/>
    </TTGlyph>
    <TTGlyph name="dotbelow.alt4" xMin="-1045" yMin="-311" xMax="-865" yMax="-139">
      <component glyphName="dotbelow.alt1" x="-804" y="0" flags="0x4"/>
    </TTGlyph>
    <TTGlyph name="dotbelow.alt5" xMin="-817" yMin="-311" xMax="-637" yMax="-139">
      <component glyphName="dotbelow.alt1" x="-576" y="0" flags="0x4"/>
    </TTGlyph>
    <TTGlyph name="dotbelow.alt6" xMin="-1114" yMin="-311" xMax="-934" yMax="-139">
      <component glyphName="dotbelow.alt1" x="-873" y="0" flags="0x4"/>
    </TTGlyph>
    <TTGlyph name="dotbelow.alt7" xMin="-659" yMin="-311" xMax="-479" yMax="-139">
      <component glyphName="dotbelow.alt1" x="-418" y="0" flags="0x4"/>
    </TTGlyph>
    <TTGlyph name="dotbelow.alt8" xMin="-380" yMin="-311" xMax="-200" yMax="-139">
      <component glyphName="dotbelow.alt1" x="-139" y="0" flags="0x4"/>
    </TTGlyph>
    <TTGlyph name="dotbelow.alt9" xMin="-310" yMin="-311" xMax="-130" yMax="-139">
      <component glyphName="dotbelow.alt1" x="-69" y="0" flags="0x4"/>
    </TTGlyph>
</ttFont>
